<svg id="Layer_1" data-name="Layer 1" xmlns="http://www.w3.org/2000/svg" width="936.95" height="755.98" viewBox="0 0 936.95 755.98">
  <defs>
    <style>
      .cls-1 {
        fill: #191919;
      }

      .cls-11, .cls-2, .cls-22, .cls-33, .cls-37, .cls-41, .cls-44, .cls-46, .cls-47, .cls-5, .cls-6, .cls-7, .cls-8 {
        fill: #fff;
      }

      .cls-11, .cls-13, .cls-2, .cls-33, .cls-35, .cls-37, .cls-39, .cls-40, .cls-41, .cls-42, .cls-44, .cls-46, .cls-47, .cls-5, .cls-6, .cls-7, .cls-8 {
        isolation: isolate;
      }

      .cls-2 {
        opacity: 0.07;
      }

      .cls-3 {
        fill: #424242;
      }

      .cls-4 {
        fill: #151515;
      }

      .cls-5 {
        opacity: 0.1;
      }

      .cls-6 {
        opacity: 0.19;
      }

      .cls-7 {
        opacity: 0.05;
      }

      .cls-8 {
        opacity: 0.33;
      }

      .cls-9 {
        fill: #e41937;
      }

      .cls-10 {
        fill: #a51016;
      }

      .cls-11, .cls-23 {
        opacity: 0.04;
      }

      .cls-12 {
        fill: #d72e33;
      }

      .cls-13 {
        opacity: 0.56;
      }

      .cls-14 {
        fill: #1a1a1a;
      }

      .cls-15 {
        fill: #f66;
      }

      .cls-16 {
        fill: #7cb2e8;
      }

      .cls-17 {
        fill: #ff69f8;
      }

      .cls-18 {
        fill: #40e2a0;
      }

      .cls-19 {
        fill: #9c9d9f;
      }

      .cls-20 {
        fill: #121212;
      }

      .cls-21, .cls-46 {
        opacity: 0.06;
      }

      .cls-24 {
        fill: #0d0d0d;
      }

      .cls-25 {
        fill: #0a0a0a;
      }

      .cls-26 {
        fill: #141414;
      }

      .cls-27 {
        fill: #0f0f0f;
      }

      .cls-28 {
        fill: #050505;
      }

      .cls-28, .cls-30 {
        stroke: #050505;
        stroke-width: 2px;
      }

      .cls-28, .cls-30, .cls-45 {
        stroke-miterlimit: 10;
      }

      .cls-29 {
        fill: #f2f2f2;
      }

      .cls-30, .cls-38 {
        fill: none;
      }

      .cls-31 {
        fill: #272727;
      }

      .cls-32 {
        fill: #e6e6e6;
      }

      .cls-33 {
        font-size: 9.71px;
        font-family: ArialMT, Arial;
      }

      .cls-34 {
        fill: #202020;
      }

      .cls-35 {
        opacity: 0.32;
      }

      .cls-36 {
        fill: #242424;
      }

      .cls-37 {
        opacity: 0.09;
      }

      .cls-39 {
        opacity: 0.3;
      }

      .cls-40 {
        opacity: 0.48;
      }

      .cls-41 {
        opacity: 0.11;
      }

      .cls-42 {
        opacity: 0.36;
      }

      .cls-43, .cls-45 {
        fill: #232323;
      }

      .cls-44 {
        opacity: 0.01;
      }

      .cls-45 {
        stroke: #1a1a1a;
      }

      .cls-47 {
        opacity: 0.02;
      }
    </style>
  </defs>
  <g>
    <g>
      <path class="cls-1" d="M655.5,182.7l-.1-3.5s1.5-4.8,5.5-4.8,34.8.1,34.8.1,8.6.5,17.9,2,121,20.2,121,20.2,9.9,2.6,16.8,6.3,20,11.6,20.2,13.5.1,5.7.1,5.7Z" transform="translate(0.01 0.1)"/>
      <path class="cls-2" d="M655.5,182.7l-.1-3.5s1.5-4.8,5.5-4.8,34.8.1,34.8.1,8.6.5,17.9,2,121,20.2,121,20.2,9.9,2.6,16.8,6.3,20,11.6,20.2,13.5.1,5.7.1,5.7Z" transform="translate(0.01 0.1)"/>
    </g>
    <g>
      <path class="cls-1" d="M286.9,180.3l.1-3.5s-1.5-4.8-5.5-4.8H246.7a164.29,164.29,0,0,0-17.9,2c-9.3,1.5-121,19.9-121,19.9s-9.9,2.6-16.8,6.3-20.1,11.5-20.2,13.5-.1,5.7-.1,5.7Z" transform="translate(0.01 0.1)"/>
      <path class="cls-2" d="M286.9,180.3l.1-3.5s-1.5-4.8-5.5-4.8H246.7a164.29,164.29,0,0,0-17.9,2c-9.3,1.5-121,19.9-121,19.9s-9.9,2.6-16.8,6.3-20.1,11.5-20.2,13.5-.1,5.7-.1,5.7Z" transform="translate(0.01 0.1)"/>
    </g>
    <path class="cls-3" d="M455.9,592.1l193.6.7s23.6-.8,37.5,15.8,56.2,67.3,56.2,67.3,16,21.1,37.5,15.1,111.7-36.3,111.7-36.3,37.1-17.4,38.3-53.9,6.1-174.6,6.1-174.6,1.4-16.8-4.7-37.7-35.9-128.2-35.9-128.2-16.4-50-59.2-57.3-128-20.6-128-20.6-5.4-1.2-24.8-1.2-428-1.8-428-1.8-11.6-.9-42,3.8-113.8,18.3-113.8,18.3-41.2,12.7-52.8,52.2S3,408.9,3,408.9s-3.2,11.3-3,29.5S5.1,676.7,5.1,676.7s5.5,40.6,38,51.5,82.5,26.7,82.5,26.7,27.2,6.3,37.5-13.1,56.4-132.1,56.4-132.1,11.6-17.8,26.6-18.2S455.9,592.1,455.9,592.1Z" transform="translate(0.01 0.1)"/>
    <path id="Base_lower" data-name="Base lower" class="cls-4" d="M454.7,537.4l178.2,1.4s23-1.1,42.3,23.9,88.6,110.5,94.7,112.4,9.3,3.8,18.2,1.6S888.3,644,888.3,644s33.3-19.5,34.9-50.9,7.5-161,7.5-161a182.22,182.22,0,0,0-7.1-42.5c-6.9-23.8-32.3-112.5-32.3-112.5s-14.3-43.2-59.9-51S712.5,206,712.5,206s-3.1-1.4-18.4-1.6-443.3-1.3-443.3-1.3-9.3-1.5-34.3,2.7-111.2,18-111.2,18-39,4.3-54.2,54.1S10.3,416.3,10.3,416.3s-4,5.7-3.7,29.5,4.9,228,4.9,228,.3,12.8,8.5,23,10.7,14.7,20.1,19.5L106.7,740s30.8,10.7,39.6-10.4S210,569,210,569s9.1-24.6,23.5-28.8,39.4-3.4,39.4-3.4Z" transform="translate(0.01 0.1)"/>
    <g>
      <path id="Base_lower-2" data-name="Base lower" class="cls-5" d="M454.7,537.4l178.2,1.4s23-1.1,42.3,23.9,88.6,110.5,94.7,112.4,9.3,3.8,18.2,1.6S888.3,644,888.3,644s33.3-19.5,34.9-50.9,7.5-161,7.5-161a182.22,182.22,0,0,0-7.1-42.5c-6.9-23.8-32.3-112.5-32.3-112.5s-14.3-43.2-59.9-51S712.5,206,712.5,206s-3.1-1.4-18.4-1.6-443.3-1.3-443.3-1.3-9.3-1.5-34.3,2.7-111.2,18-111.2,18-39,4.3-54.2,54.1S10.3,416.3,10.3,416.3s-4,5.7-3.7,29.5,4.9,228,4.9,228,.3,12.8,8.5,23,10.7,14.7,20.1,19.5L106.7,740s30.8,10.7,39.6-10.4S210,569,210,569s9.1-24.6,23.5-28.8,39.4-3.4,39.4-3.4Z" transform="translate(0.01 0.1)"/>
      <path class="cls-6" d="M209.4,523.6,88.7,539.4,77.5,643.2l29.7,96.2-.2.5c3.2,1,31,9.4,39.2-10.5C155.1,708.4,210,569,210,569s9.1-24.6,23.5-28.8a.37.37,0,0,0,.3-.1l-1.2-6Z" transform="translate(0.01 0.1)"/>
      <path class="cls-7" d="M930.8,432a182.22,182.22,0,0,0-7.1-42.5C916.8,365.7,891.4,277,891.4,277s-14.3-43-59.7-51l-.3,4.7,13.1,46.7,65.2,137.9-1.2,183.4-26.6,47.6c4.1-1.4,6.5-2.2,6.5-2.2s33.3-19.5,34.9-50.9C924.9,561.6,930.8,432,930.8,432Z" transform="translate(0.01 0.1)"/>
      <path class="cls-6" d="M54.5,279.4l772.7-37.2,3.2-10.2.8-1.5.3-4.5h-.2c-45.6-7.9-118.9-20.1-118.9-20.1s-3.1-1.4-18.4-1.6S250.7,203,250.7,203s-9.3-1.5-34.3,2.7-111.2,18-111.2,18S66.2,228,51,277.8h0Z" transform="translate(0.01 0.1)"/>
    </g>
    <g>
      <path id="Base_upper" data-name="Base upper" class="cls-4" d="M454.6,532.2l178.8,1.1s23.7-2.5,42.8,21.6,90.6,112.5,90.6,112.5,13.7,11.9,27,7.7,94.5-31,94.5-31,33.4-20,34.9-50.9,4.4-163,4.4-163l-2.4-15.5s-1-5.2-3.9-15.3-31.1-110.9-31.1-110.9-12.9-49.9-58.5-57.7-112.3-18.6-112.3-18.6-1.8-2-47.9-2.3-421.4-2-421.4-2-11.8-.8-39.6,3.9-102.6,16.5-102.6,16.5-40,4.6-53.5,51S14.1,419.8,14.1,419.8s-5.3,20.3-5.4,25.3,4.9,228.5,4.9,228.5,1.6,17,6.4,23.1,12.8,16.9,20.1,19.5l64.5,22.9s27.2,7.6,34.6-9.7,66.5-166.8,66.5-166.8,12.1-26.1,26.6-28.5,18.3-2.4,18.3-2.4Z" transform="translate(0.01 0.1)"/>
      <path class="cls-8" d="M13.6,673.7s1.6,17,6.4,23.1,12.8,16.9,20.1,19.5l64.5,22.9s27.2,7.6,34.6-9.7,66.5-166.8,66.5-166.8L8.7,445.2C8.7,450.2,13.6,673.7,13.6,673.7Z" transform="translate(0.01 0.1)"/>
      <path class="cls-8" d="M766.9,667.3s13.7,11.9,27,7.7,94.5-31,94.5-31,33.4-20,34.9-50.9,4.4-163,4.4-163L676.2,554.8C695.3,578.9,766.9,667.3,766.9,667.3Z" transform="translate(0.01 0.1)"/>
      <path class="cls-9" d="M802.5,561.8c1-1.9,3.1-3.1,5-4A22.16,22.16,0,0,1,803,563,10.41,10.41,0,0,1,802.5,561.8ZM864,548.9c1-1.1,1.8-2.4,2.9-3.4a10.4,10.4,0,0,1,2-.8,11.46,11.46,0,0,0,2.3-1c1.2-1,2.9-2.2,3.1-3.7,0-1.4-1.7-1.5-3-1.3-1.7.6-3.5,1-5.2,1.5a5.72,5.72,0,0,0-.7.8A24.37,24.37,0,0,0,864,548.9Zm20.1-27.1a1.07,1.07,0,0,1-.2.6,10.1,10.1,0,0,0,5-1.1c.5.5,1.4.8,1.4,1.6s-.2,1.5-.3,2.3c2-.5,3.9-1.3,5.9-1.4l13.5-1.2a9.34,9.34,0,0,1,2.4.2l.6,1.5h-.5c-.1,1.5-.1,3-.3,4.6-.2,2.3,1.8,3.6,1.8,5.8a13.77,13.77,0,0,1-2.6,5.3,81.77,81.77,0,0,1-8.1,8.6c-.7.6-.9,1.4-1.5,2-1.3,1.5-2.7,2.9-3.9,4.4-2.2,2.9-4.7,5.8-6.6,8.9a16.29,16.29,0,0,0-1.1,3.1,13.59,13.59,0,0,0-4.8.9c-1,.3-1.6-.4-2.3-.7a19.42,19.42,0,0,0-6.8-2.2c-3.5,0-7.1-.1-10.7.1a42.32,42.32,0,0,0-4.2,2.2c-.1.4-.1.8-.2,1.2a34.83,34.83,0,0,1-1,4.4c-2.8,12.3-5.7,24.7-8.5,37-1.1,4.7-2.1,9.3-3.4,14-.1.7-.9,1.1-1.5,1.6l-2,1c-2-.1-3.4-1.2-4.9-2l-40.2-24.6c-.5-.3-1.3-.8-1.9-1.1a45.31,45.31,0,0,1-2.9,7.4,14.79,14.79,0,0,0-4.6,2.5c-.3.5-.5.9-.8,1.4-1.5.7-3.1.7-4.5,1.6a39.09,39.09,0,0,0-10.9,8.9c-1.2.2-2.3-.2-3.6,0-1.9.4-3.6-.1-5.4-.2a3.91,3.91,0,0,1-3.9-2.5c1-2.6,2-5.1,3.2-7.6a25.25,25.25,0,0,1-2.1,2.5c-2.3.2-4.4-.6-6.7-.2-.7.7-1.6,1.9-1,2.6.8,1.2,2.1,1.9,3.2,2.9h-2v.6c-2.5-.1-5.2.1-7.6-.5-1.7-.7-3.2-1.7-4.9-2.4-1.2-.3-2.6.1-3.9,0-2.2,0-3.9-1.1-5.5-2.1l-.5-1.3a8.65,8.65,0,0,1,.7,1c-.2-1.9.8-4,1.8-5.9a32.44,32.44,0,0,1,1.9-3.7,35.68,35.68,0,0,1,4.5-5c3.9-4,8-7.8,12.1-11.6-.7-.6-1.4-1.2-2-1.8a1.35,1.35,0,0,1-.2-1.7,22.4,22.4,0,0,1,4-5.3,24.57,24.57,0,0,0,4-3l-3-1.4c-1.6-.5-2.7-1.7-4.4-2.1-1.2-.2-2-1.2-3.2-1.4-1.4-.3-2.5-.8-3.8-1.2a22.72,22.72,0,0,0-5.3-.5c-1.7-.2-3.6-.3-4.9-1.2a55.46,55.46,0,0,1-2-5.2,54.61,54.61,0,0,0-2.1-6.1,1.67,1.67,0,0,1-.1-1.2,22.65,22.65,0,0,1,2.8-5l51-25.7c1.8-.1,3.3.6,4.9,1s1.4,2.1,2.5,2.8c5.5,3.4,11,6.7,16.5,10.2h0l1.4.9c.1.1.3.2.4.3h0l.8.5c.9-.5,1.8-1,2.7-1.4l1-4.4h0l3-12.9c.5-2.1.9-4.2,1.6-6.4.1-.6.4-1.3.2-1.8-.2-.8-.8-1.5-.4-2.5a38.39,38.39,0,0,1,2.2-3.9,5.26,5.26,0,0,1,1.2-1.4L872.9,480c2.3-.3,4.1.6,6,1.2,1.6,3.6,2.8,7.4,4.3,11.1.5,1-.4,2.3-1,3.3-1.7,3.5-4.7,6.6-6,10.1l-.9,2.2,2-1.7c1.5-1.5,3.6-2.1,5.4-3.1,2.3-1.4,4.7-2.7,7-4,2.7-1.4,5.2-3.2,7.9-4.4.9,2,3.3,2.8,4.2,4.9a3.11,3.11,0,0,0,.6-.4v.1c-.1.1-.3.4-.4.5a16.6,16.6,0,0,1-1.2,4.2c-.9,1.7-2.5,3-3.8,4.5-1.5,1.9-3.8,3.1-5.3,5-1.8,2-4,3.7-5.8,5.6C885.3,519.6,884.9,520.8,884.1,521.8Zm-67.3,14.8a10.09,10.09,0,0,1,1.5-.7,5.58,5.58,0,0,0,.8-.5c.3-1.3.7-2.7.9-3.8.6-2.8,1.3-5.6,1.9-8.4.8-3.6,1.6-7.1,2.4-10.7a3.56,3.56,0,0,1-.1-3.2,6.24,6.24,0,0,1,3.2-3.4c4.1-2.1,8.2-4.2,12.4-6.2.3-.1.6-.3.9-.4s.5-.3.8-.5h0c3.3-1.6,6.5-3.3,9.8-4.9,5.6-2.8,11.4-5.8,17.2-8.6,2.4-1.2,5-.7,6,1.1a22.16,22.16,0,0,1,1.4,3.8,13.49,13.49,0,0,0,.8,2.4,4.29,4.29,0,0,1-.1,3.5A25.17,25.17,0,0,1,875,499a16.37,16.37,0,0,0-1.2,2.2c-.1.1-.1.3-.2.4a37.83,37.83,0,0,0-3.3,8.3c-.3.8-.5,1.6-.8,2.5a29,29,0,0,0,2.9-1.9l.4-1c.6-1.8,1.5-3.5,2.2-5.3a42.09,42.09,0,0,1,4.8-8.1,11.71,11.71,0,0,0,1.6-3.4c-1.1-3.4-2.5-6.6-3.7-10-1.7-.6-3.7-1.6-5.9-.4-15.2,7.7-30.5,15.4-45.7,23.1a7.64,7.64,0,0,0-2.3,1.7c-.5,1-.9,2-1.4,2.9-.6,1.2,0,2.2,0,3.3a20,20,0,0,1-.4,2.4c-1.4,6.8-3.2,13.6-4.6,20.4h0Zm47.2-23c1.6-4.4,2.5-9,5.1-13.3.8-1.8,2-3.4,2.9-5.2-1-1.9-1.1-4.2-2.1-6.1-9,4.5-17.9,9-26.9,13.6a6.91,6.91,0,0,1-.2,4c-1.7,7.5-3.5,15-5.1,22.4h0l-.4,1.6c8.7-5.1,17.5-10,26.3-15.1l.4-1.9Zm-39.2,17.7-.2.9a16.38,16.38,0,0,1,3.9-1.7c.7,0,3,1.3,4.5,2a1.39,1.39,0,0,0,1.1,0c.6-.4,1.2-.7,1.8-1.1l.8-3.6,3.9-17.1c.4-1.9.9-3.8,1.2-5.7a7.49,7.49,0,0,0-.5-1.6c-4.1,2.1-8.2,4.1-12.3,6.2.2.2.3.4.5.5a9.7,9.7,0,0,1-.1,1.7c-.5,2.4-1.1,4.7-1.6,7.1h0l-.5,2.3c-1,3.5-1.7,6.8-2.5,10.1Zm-63.4,41.8.4.2.2-.2a17.41,17.41,0,0,0,1.4-1.2h0a99.64,99.64,0,0,0-12.9-6.2,6.12,6.12,0,0,1-1.2-.5,8.23,8.23,0,0,0-1.6-.6,18.63,18.63,0,0,1-2.7-.5c-.8-.2-1.5-.3-2.1-.4a3.45,3.45,0,0,1-3.1-2.1c-.7-1.7-1.3-3.5-2-5.2l-.3-.9c-.8-2.1.7-4.8,3.3-6.2l3.6-1.8c3.1-1.5,6.2-3.1,9.4-4.7l.6-.3a2.51,2.51,0,0,1,.7-.4c2.9-1.5,5.9-3,8.8-4.4,5.8-2.9,11.7-5.9,17.6-8.9h0c2.4-1.2,5-.8,6,1.1a2.71,2.71,0,0,0,.7.9.1.1,0,0,1,.1.1c3.2,2,6.6,4.1,9.8,6,1.6,1,3.3,2,4.9,3l-1.5-1,2.6,1.7c.1.1.2.1.3.2l.1.1,1.9,1.2c.8-.4,1.5-.9,2.3-1.3l-2.1-1.4c-1.6-1-3.3-2-4.8-3-3.6-2.3-7.2-4.5-10.9-6.8a4.07,4.07,0,0,1-1.4-1.2c-.4-.6-.6-1.5-1.5-1.6-1.5-.3-3-1.2-4.8-.2-15.4,7.8-30.7,15.5-46.1,23.2a4.85,4.85,0,0,0-2.3,1.9,30.13,30.13,0,0,0-1.6,3.1c-.3.5,0,.9.1,1.3,1,2.7,2.1,5.4,3.1,8.1.2.3.2.8.5,1,2.7,1.2,6.1.8,9,1.5a30.75,30.75,0,0,1,6.9,2.1C755.7,570.3,758.6,571.6,761.4,573.1ZM755.2,548v-1.1c-4.3,2.1-8.6,4.3-12.9,6.5.8,2,1.5,4.1,2.3,6.1,1.8.1,3.3.7,5.1.9a20.05,20.05,0,0,1,3.7,1.2,79,79,0,0,1,12.1,5.7l1.8,1.1,3.1-3.1c1.7-1.6,3-3.4,4.8-4.9L773,559h0C767.1,555.3,761.2,551.6,755.2,548ZM775,558.5l1.3.8c1.9-1.4,3.8-2.5,5.8-3.8,3.4-2.1,6.7-4.5,10.3-6.3,1.1-.6,2.3-.5,3.4-.8l5.7-3.3-2.3-1.3h0c-4.8-3-9.6-5.9-14.4-8.9a5.46,5.46,0,0,1-1.9-2.1c-8.8,4.5-17.6,8.9-26.4,13.3.3.7.4,1.5,1.1,1.9C763.5,551.5,769.2,555,775,558.5Zm-5.6,39.1a159.89,159.89,0,0,0,10.5-12.9c1.8-2.4,3.7-4.8,5.3-7.2.8-1.7,2.2-3.5,1.5-5.1-1.1-.6-2.7-.3-4.1-.2-2.5.2-5.2,1.4-7.7,1.2a3.17,3.17,0,0,1-.6-.5,20.21,20.21,0,0,1,2.9-4.5,53,53,0,0,1,9.4-8.9c.9-.7,1.8-.2,2.6,0a25.94,25.94,0,0,1-1.1,3.7c2.3-2,4.7-4,7.1-6s5-3.8,7.4-5.7c.7-.7,1.7-.8,2.6-1.3,6.2-4.7,12.3-9.5,18.5-14.1-.1,0-.3-.1-.4-.1a24.58,24.58,0,0,0-3.9,2.2c-2.9,1.4-5.7,3.4-8.7,4.6a10.48,10.48,0,0,1-2.2,2c-4.5,2.7-8.9,5.3-13.4,8-2.8.5-5.7.8-8.5,2.2-4.9,3-9.2,6.9-13.6,10.6l-5.4,5.4a63.18,63.18,0,0,0-5.6,6c-1.1,1.5-2.8,2.7-3.7,4.3-.8,1.2.9,2.5,2.1,1.4,1.8-1.6,3.6-3.2,5.5-4.8a6.72,6.72,0,0,1,1.7,3.1l11.4-3a2.61,2.61,0,0,1-.6,1.8c-2.3,3.1-4.4,6.4-7.2,9.2a29.77,29.77,0,0,1-3.6,3.5c-1.2.7-2.7,1.6-3.7.9a10.46,10.46,0,0,1-1.3-2.3,10.89,10.89,0,0,1,.4-4.7c.3-1.2,1.1-2.4,1.5-3.6a5.82,5.82,0,0,0-.3-1.9c-1.1.9-2.2,1.9-3.3,2.8-5.5,4.6-10.6,9.6-15.9,14.4a53,53,0,0,0-5.3,5.3c-.5,2.4-1.5,5-.4,7,.8.8,2,1,3,1.6a20.17,20.17,0,0,0,3.6,1.8c-1.4-.8-2.7-1.6-4.1-2.4a25.29,25.29,0,0,0-2.2-1.3c1.7-2.1,3-4.4,5-6.4a36.05,36.05,0,0,1,4.5-4.2,13.27,13.27,0,0,0,3.9,4.9,8,8,0,0,0,4.4,1,17.11,17.11,0,0,0,4.4-1.3C764.5,602.1,766.9,599.8,769.4,597.6Zm37-35.9c0-.1.1-.3.1-.4,1.7-1.3,3.2-2.8,4.9-4,.3-.8,1.1-1.9.6-2.5-.7-.3-1.5-1-2.5-.6-3.2,2-6.4,4-9.6,6.1.2.7.7,1.3.4,2.2-.3,1.2-.6,2.4-.9,3.5-.2.9-.6,1.9-.2,2.7.2.3.2.8.7.8,1-1,1.8-2.2,2.7-3.2-.4-.4-1.4-.7-.8-1.5.3-.8,1.3-.8,2-.9,3.1-.5,6.2-.7,9.3-1.1a20,20,0,0,0,2.1-1c.8-.2,1.6-.3,2.4-.5a18.57,18.57,0,0,0,2.9-2.7c1.9-2.1,4.5-3.5,6.7-5.5.7-.8,1.4-1.7,2-2.5a2.89,2.89,0,0,0-1.6.9,74,74,0,0,1-7.2,5.3,30.32,30.32,0,0,1-6.4,2.8C811.6,560.2,809,561.1,806.4,561.7Zm31.4-17.5a3.38,3.38,0,0,1,1.3-2.2,82.32,82.32,0,0,1,8.6-4.9c1.3-.5,1.9-1.8,2.6-2.8l-7.2,3.6a.86.86,0,0,1-1.3-.4c-1.9.9-3.5,2.4-5.4,3.4-.5.4-1,.7-1.5,1.1a20.82,20.82,0,0,0-1.2,3.2,31.62,31.62,0,0,1-2.9,6.2c-.8,1.2-2.1,2.1-2.8,3.3a27.87,27.87,0,0,0,4.5-2.4c1.3-.2,1.7-1.6,2.9-2.1a14.39,14.39,0,0,0,4-2.3c1.1-.7,2.3-.9,3.4-1.6.9-1.1,1.7-2.2,2.6-3.3a97.11,97.11,0,0,0-9.2,5.5,4.25,4.25,0,0,1-1.1.2,17.38,17.38,0,0,1,1-1.9,9.58,9.58,0,0,1,2.4-1.7c1-.7,2-1.5,3-2.2a21.06,21.06,0,0,1,4.7-1.9c.5-.8,1.4-1.5,1.7-2.3-2.1.5-3.8,2.1-5.8,3C840.8,542.4,839.4,543.5,837.8,544.2Zm-6.5,16.9a23.25,23.25,0,0,0,.8-3.6,19.41,19.41,0,0,0-2.9,2.1,21.19,21.19,0,0,1-1.4,4c-.6,2.5-1.4,5-1.8,7.5,1.2-.8,2.5-1.4,3.6-2.3a17.78,17.78,0,0,1,.7-3.9c.7-1.6,2.7-2.3,4.2-3.1a23.63,23.63,0,0,0-.8,4.5c1.3-.7,2.6-1.3,3.9-2,0-3.6,1.2-7.3,2-11-1,.7-2.9.9-3.1,2.2-.2.9-.7,1.9-.9,2.8A11.05,11.05,0,0,1,831.3,561.1Zm-3.2-4.3h-1.6c-1.6,1.3-3,2.7-4.5,4.1-.8.7-1.3,1.7-2.1,2.4a19.9,19.9,0,0,0-3.5,2,54.72,54.72,0,0,0-5.3,6.6c-.5,1.1-1.3,2.5-.5,3.4a2.85,2.85,0,0,0,2.8-.2l5.4-2.7a1.06,1.06,0,0,1,.2-.5l.5.5c-1.2,1.5-2.8,2.9-3.4,4.6a52.92,52.92,0,0,0-1.3,5.4c.8-1,1.1-2.3,2.2-3.1,1.3-1.1,2-2.6,3.1-3.8s2.9-1.9,3.8-3.3c.6-2.1.4-4.1,1-6.3.3-1.4,1.1-2.9.9-4.2a22.89,22.89,0,0,0-6.3,4.8,6.56,6.56,0,0,0-1.7,2.5,13.25,13.25,0,0,1,3.5-2.3c.2.6.7,1.5-.1,2.2a21.11,21.11,0,0,1-4.5,2.8c-.5-.2-1.2-.3-1.2-.9a2.62,2.62,0,0,1,.5-1.7,33,33,0,0,1,6-6.4,39.69,39.69,0,0,1,5.4-3.7C827.6,558.3,827.9,557.5,828.1,556.8Zm-7.9,29.4c.8.5,1.9,1.1,2.5,1.5.3-1.3,1.3-2.9.8-4C822.2,583.9,821.1,585.2,820.2,586.2Zm-10.9,5.6a15.38,15.38,0,0,1-1.2,1.3l14.7,8.9c5.1,3.1,10.3,6.3,15.4,9.4a4.36,4.36,0,0,0,2.7,1.1c.6-3.2,1.4-6.4,2.1-9.6,0-.4.3-1-.1-1.3-1.7-1.3-3.7-2.4-5.5-3.6-3.1-1.9-6.2-3.7-9.2-5.6h0l-8.2-5c-.1-.1-.3-.2-.4-.3-.2.8-.1,1.7-.3,2.5-1.5-.7-2.4-2-3.9-2.6C813.2,588.5,810.9,589.9,809.3,591.8Zm34.1,8.8a5.9,5.9,0,0,0,.4-.8c2.2-9.3,4.3-18.5,6.5-27.8a2.49,2.49,0,0,0,.1-.8h0l.5-2.2a22,22,0,0,1-2.8,1.8c-.6-.8-1.1-1.8-2.3-2.1a7.53,7.53,0,0,0-3-.4c-1.4.9-2.8,1.9-4.3,2.7a54,54,0,0,0-8.2,5.2c-1.1.9-2,2-3.2,2.8a8.79,8.79,0,0,0-1-.6v.1l-.6,2.5-1.8,7.5.8.5,3.5,2.1C833.2,594.2,838.6,597,843.4,600.6Zm1.3-40.9a14.15,14.15,0,0,1,.2-2.9c.3-1,.1-2,.4-3,.6-2,1.2-4,1.7-6,2.4-1.4,5.1-2.2,7.5-3.8,1.4-.6,2-2,3-3,1.2-1,2.5-1.8,3.8-2.7,2.1-1.2,4.4-2.1,6.5-3.4a3.87,3.87,0,0,0,1.9-1.2,10.84,10.84,0,0,0,2.9-1.8c2.2-1.4,4.4-2.5,6.5-4l-2.7,1.2a39.61,39.61,0,0,0-7.8,3.1,38,38,0,0,1-5.3,3.6c-.7.4-.9,1-1.3,1.6-5.5,3.5-10.9,7.1-16.5,10.5-2.8,1.4-5.7,2.8-8.5,4.3a7.08,7.08,0,0,1-2.8,1.6c-.5.1-.6.6-.8.9a18.61,18.61,0,0,1-2.5,1,10.93,10.93,0,0,0-.5,1.7c.8-.5,1.6-1,2.3-1.5,1.5-1.1,3.1-1.9,4.6-2.8a38.09,38.09,0,0,1,5.2-2.9,76.28,76.28,0,0,0-2.2,13.1c1.9-.9,3.7-2.1,5.8-2.4A5.26,5.26,0,0,0,844.7,559.7ZM812.6,549a17.53,17.53,0,0,0,2.4-2.3c-6,4.1-12,8.2-18,12.4-1.8,1.4-3.6,2.8-5.5,4-1.9,1.5-3.7,3.1-5.5,4.7-.4,0-.8.1-1.1.1-.7.9-1.4,1.7-2.1,2.6a14.46,14.46,0,0,0,2.9-.4c1.3-1.3,2.8-2.5,4.2-3.8a26.94,26.94,0,0,1,3.7-3c-.3,2-1.8,3.9-2.5,5.9-.9,1.3-.8,2.7-1.7,4-.4.6-1.1,1.1-1.5,1.8-.1.6.6.5,1,.5,2.6-2.3,5.5-4.2,8.3-6.3-.5-.4-1.6-.6-1.4-1.5a17.33,17.33,0,0,1,1.8-5.1,8.38,8.38,0,0,0,.8-3c3-2,6.1-4,9.2-6.1a9.54,9.54,0,0,1,3.5-1.4A14.68,14.68,0,0,0,812.6,549Zm-12.4,31.7a.92.92,0,0,1,1.1-.1c1.1-1.3,1.3-2.9,2.4-4.2a3.38,3.38,0,0,0,1.1-3c-2.1,1.3-3.9,3-5.8,4.4a59.33,59.33,0,0,1-6.4,4.8c.7-1.5,1.6-2.9,2.2-4.4a10.41,10.41,0,0,1,1.8-3c1.7-1.2,3.5-2,5.1-3.2,2.9-1.9,5.7-4.1,8.8-5.5l.5.5c.7-.6,1.4-1.2,2-1.8-1-.4-2.3-.1-3.5,0-1.5.7-3.1,1.1-4.4,2.2-2,1.5-3.3,3.6-4.7,5.5-1.1.1-1.6-.7-2.3-1.3a25.42,25.42,0,0,0-6.8,5c-.7.9-1.2,1.9-1.9,2.8-3.7,4.9-7.2,9.8-11,14.6-1.5,2-2.8,4.1-4.2,6.2-2,3.1-4.4,6-5.8,9.2-.8,2.1-1.9,4.2-2.7,6.3,4.6-2.9,9-6.1,13.7-8.9a3,3,0,0,1,1.9.5c-.5-.4-1.2-.9-.7-1.7a10,10,0,0,1,2.4-3.1l3-1.5c1-3.7,2.7-7.4,3.4-11.1h-2.2c1.1-1.1,2.5-1.9,3.7-2.9C793.9,584.9,797,582.7,800.2,580.7Zm-2.9,9.5c.1-.4.1-.8.2-1.1a3.53,3.53,0,0,0,1.9-.6l3.6-2.7c1.9-1.6,4.1-2.6,6-4.1-.4-.5-1-1-.8-1.7a20.16,20.16,0,0,0,.7-2.3c-.2-.7-.5-1.3-.7-2,0-2.6,1.9-5.2,3.7-7.5-.1-.1-.2-.2-.2-.3-1.7.9-2.8,2.4-4.2,3.6-.6,1.1-1,2.3-1.5,3.4a14,14,0,0,0-1.7,4.7,6.49,6.49,0,0,1-1.8,1.9c-.9.6-.8,1.6-1.4,2.3-1.4,1.8-3.2,3.4-4.2,5.3C796.6,589.6,797.1,589.8,797.3,590.2Zm60.4-22.4-1.5-.6c-.4,1.8-1,3.9-1.2,4.8-1.3,5-2.4,10.1-3.5,15-1,4.2-1.9,8.3-2.9,12.5h0v.2h0l-.8,3.1c-.3,1.4-.6,2.8-.9,4.1-.4,1.9-.8,3.6-1.2,5.4,0,.2-.1.3-.1.5l-2,8.2-7.5-4.6h0a8.79,8.79,0,0,1-1-.6.76.76,0,0,0-.4-.2.1.1,0,0,1-.1-.1c-4.6-2.8-9.2-5.7-13.9-8.5-2.9-1.8-5.8-3.5-8.7-5.3h-.1c-.7-.4-1.4-.9-2.2-1.3-1.7-1-4.1-2.6-5.9-3.8h0a37,37,0,0,1-4.7-.2.76.76,0,0,0,.4.2c14.9,9.2,30,18.2,44.9,27.4a24.18,24.18,0,0,0,1-3.6c2.5-10.7,5.1-21.5,7.5-32.2,1.4-6.5,3-12.9,4.3-19.4A1.35,1.35,0,0,0,857.7,567.8Zm-2.4-11.7c.8-.8,2-1,2.6-1.9a7.11,7.11,0,0,0,1.3-3.4,78.21,78.21,0,0,1-9,6,8.75,8.75,0,0,1,.2-1.6c2.5-1.8,5.1-3.4,7.7-5a7.19,7.19,0,0,1,1.8-2.6.76.76,0,0,1-.4-.2c-1.2.6-2.5,1.1-3.7,1.8a53.32,53.32,0,0,1-5.1,3.1,2.41,2.41,0,0,1,1.1-2.2c1.9-1.4,3.9-2.7,5.8-4,1.8-1,1.6-2.9,2.1-4.3a64.77,64.77,0,0,1-6.7,5c-1.2.8-2.3,1.7-3.6,2.4a5.83,5.83,0,0,0-1.5,1.1,8.26,8.26,0,0,0,1.3.7c-.5,2.3-1.4,4.6-1.7,6.9a6.08,6.08,0,0,1,.1,4.6,4,4,0,0,0,.3,1.9c.3-.6,0-1-.1-1.5.2-.5.8-.9,1.2-1.3,1.4-1.2,2.6-2.6,4.1-3.8A11.78,11.78,0,0,0,855.3,556.1Zm28.4-28.4c-1.4,1.1-2.9,2-4.3,2.9v.2c1-.5,2-1.1,3-1.5,1.8-.3,3.5,0,5.2-.2,3.2-.3,6.4-.6,9.7-.8a28.27,28.27,0,0,1,5-.2v.9c-1.7,3-3.5,5.9-5.4,8.8a42.63,42.63,0,0,1-4.6,5.9c-1.6,2-3.4,3.9-5.2,5.8a31.92,31.92,0,0,1-7.5.5c-2.9-.3-5.6-.9-8.5-1.2-.2-.9,1.1-1.4,1.8-1.9,2-1.2,3.7-2.7,5.5-4,2.9-2.2,6-4.3,8.2-7.1.5-.8,1.5-1.9,1-2.7-.7-1.3-2.5-1.3-4.1-1.1a42.93,42.93,0,0,0-5,.7c-.3.1-.3.1-.4.1-2.5.9-4.9,1.4-7.4,2.3-1.8,1.1-3.8,1.1-5.5,2.2a19.78,19.78,0,0,0-4.1,2.8,5,5,0,0,1,1.3.5c-.4,2.2-.7,4.3-1,6.5-.3,1.5-.7,3.1-1,4.6-1.1,3.2-2.5,6.4-3.4,9.6.1.2.3.7.4.9,1.6-1.7,3.9-2.3,6-3.2a18.61,18.61,0,0,1,2.5-1,2.76,2.76,0,0,1-1.5-1.5c-.2-1.8-.5-3.5-.6-5.3a3.29,3.29,0,0,1,.6-.3,38.11,38.11,0,0,0,8.1,4.7,51.9,51.9,0,0,0,7.9,2.5c2.2.4,3.9,1.6,6,2.2a10.71,10.71,0,0,1,3.3-5c2.8-2.8,5.7-5.6,8.4-8.4a69.18,69.18,0,0,0,5.3-5.6,19.26,19.26,0,0,0,3.6-4.5c.5-1.6.1-3,0-4.4-.3-.4-.7.3-.9.5-2.6,3-5.1,6-7.6,9a8.64,8.64,0,0,1-1.4,1.3,29.22,29.22,0,0,1,2.1-3.2c2.3-3.2,4.5-6.5,6.8-9.8.5-.8,1.1-1.5,1.5-2.3a5.55,5.55,0,0,1-1.4-2.2c-1.6.1-3.1.2-4.7.2-4.6.5-9.2,1.5-13.8,2.3C886.3,528.4,884.6,528.7,883.7,527.7Zm-.8-16.2c-.8.5-1.6,1-2.5,1.5a.76.76,0,0,0-.4-.2c2.3-1.7,4.4-3.7,6.9-5.2,1.5-1,3-1.9,4.4-3a21.2,21.2,0,0,0,2.7-3.4c.1-.4.1-.8.2-1.2-2.4,1.6-4.6,3.4-7.1,4.9s-4.9,2.9-7.3,4.4c-2.6,1.5-4.3,4-6.6,5.9a77.62,77.62,0,0,0-11.7,7.1,89.64,89.64,0,0,1-7.8,4.7,9.87,9.87,0,0,1-3.1,1.5,22.23,22.23,0,0,0,1.9-2.7c-2.5.7-4.6,3.1-7.2,3.4,1.3-1,2.6-1.8,3.9-2.8,2.4-1.7,5-3,7.4-4.5.9-.8,1.9-1.7,2.7-2.5-2.2.6-4,2.1-6,3.1-7.1,3.6-13.6,8.2-20.1,12.8-4.1,2.9-8.3,5.7-12.4,8.6-2.2,1.7-4.5,3.4-6.7,5.2a16.06,16.06,0,0,1-1.6,3.9c.8-.5,1.6-1,2.3-1.5a4.33,4.33,0,0,0,.5.1c-.7,2.3-1.4,4.6-1.9,6.8,1.5-.4,3.1-.4,4.5-1.4,2.9-2.2,5.9-4.2,8.8-6.2.9-.7,2.1-1.5,2.3-2.6-3.7,1.7-7.1,4.1-10.6,6.2a9,9,0,0,1,.6-2.2c1.1-.8,2.4-1,3.4-1.9,2.3-1.6,4.4-3.5,7-4.6a2.35,2.35,0,0,1,.2.8,15.76,15.76,0,0,1,3.1-4.2c-4.8,1.5-8.7,5.1-13.1,7.3,0-.3.1-.8.1-1a17.88,17.88,0,0,1,1.4-1.3l7.2-4.5c4.2-2.6,8.6-5.1,12.9-7.5,1.9-1.1,3.4-3,5.4-3.9l.4.4c1.1-.7,2-1.9,3.2-2.4-1.8,2.1-3.7,4.1-5.3,6.3a24.06,24.06,0,0,1,4.2-2.2c1.6-.5,2.4-2,3.8-2.8a43,43,0,0,1,5.9-3.4c-.6,1.4-1.9,2.6-2.9,4-1.7,2.4-3.5,4.8-5.3,7.2a37.29,37.29,0,0,0-2,4c2.9-1.7,5.7-3.5,8.5-5.3a3.8,3.8,0,0,0,1.3-1.8,15,15,0,0,1,2.2-3.9c1.5-2,2.7-4.1,4.4-6a20.94,20.94,0,0,1,2.9-3.1c1.7-1,3.5-1.5,5.2-2.5-.6,1-1.3,2-1.8,3a4.58,4.58,0,0,0,1.3-.8c1.8-1.8,3.4-3.8,5.1-5.7S881.3,513.1,882.9,511.5Z" transform="translate(0.01 0.1)"/>
      <g>
        <g>
          <path class="cls-10" d="M580.9,473.5a5.91,5.91,0,0,1,1.4-.6,12.27,12.27,0,0,1,2.6,1.2,18.28,18.28,0,0,1,1.4,4.7c-1.6.4-3.1.9-4.7,1.3-.3-.9-.5-1.9-.8-2.8A16,16,0,0,1,580.9,473.5Z" transform="translate(0.01 0.1)"/>
          <path class="cls-10" d="M544.4,473.7c.9-.2,2.7-.5,2.7.9a14.88,14.88,0,0,1-.9,5.9,36.76,36.76,0,0,1-4.7-1.5C542.3,477.3,542.1,474.4,544.4,473.7Z" transform="translate(0.01 0.1)"/>
          <path class="cls-10" d="M575.9,474.5a5.8,5.8,0,0,1,3.6-.8,36,36,0,0,1,1.2,6.4c-1.4.1-2.8.3-4.3.4C576.2,478.6,576,476.5,575.9,474.5Z" transform="translate(0.01 0.1)"/>
          <path class="cls-10" d="M548.3,474.2l3.1.3c.2.6.5,1.3.7,1.9a35.45,35.45,0,0,0-.8,4.7c-1.4-.3-3.1,0-4.3-.9C547.3,478.2,547.8,476.2,548.3,474.2Z" transform="translate(0.01 0.1)"/>
          <path class="cls-10" d="M564.5,476.5c-.4-2.8,4.1-3.3,5.3-1.3a54.81,54.81,0,0,1,.5,5.7c-2,.2-4,.2-5.9.3C564.5,479.6,564.4,478,564.5,476.5Z" transform="translate(0.01 0.1)"/>
          <path class="cls-10" d="M571.9,474.7c.9-.5,2.4-.7,3.2.2a16.77,16.77,0,0,1,.3,5.9c-1.5.1-3,.1-4.4.3C571.3,478.9,570.9,476.6,571.9,474.7Z" transform="translate(0.01 0.1)"/>
          <path class="cls-10" d="M552.9,474.9a9.2,9.2,0,0,1,3.3.2,46.23,46.23,0,0,1,.5,6.5c-1.5-.1-3-.3-4.5-.4A19.38,19.38,0,0,1,552.9,474.9Z" transform="translate(0.01 0.1)"/>
          <path class="cls-10" d="M558.3,475.3a4.09,4.09,0,0,1,5,.5c.1,2,.1,4.1,0,6.1l-5.7-.3C557.7,479.5,557.3,477.2,558.3,475.3Z" transform="translate(0.01 0.1)"/>
          <path class="cls-10" d="M582.5,481.6a35.33,35.33,0,0,1,4.6-1.5c.1,1.9,0,3.8,0,5.6a10.23,10.23,0,0,1-4.6.5A35.29,35.29,0,0,1,582.5,481.6Z" transform="translate(0.01 0.1)"/>
          <path class="cls-10" d="M540.9,480.5c1.4.4,2.8.9,4.3,1.3a7.16,7.16,0,0,1-.2,5,14,14,0,0,1-4.1-.6A27.15,27.15,0,0,1,540.9,480.5Z" transform="translate(0.01 0.1)"/>
          <path class="cls-10" d="M577,481.7c1.4,0,2.8-.1,4.2-.1.1,2.2.5,4.4.1,6.5-1.4.9-3.8.3-4.1-1.4A28.27,28.27,0,0,1,577,481.7Z" transform="translate(0.01 0.1)"/>
          <path class="cls-10" d="M571.2,482.6c1.5-.1,3.1-.3,4.6-.4,0,2.3.1,4.7,0,7.1a5.2,5.2,0,0,1-4.4.1C571.2,487.1,571.2,484.8,571.2,482.6Z" transform="translate(0.01 0.1)"/>
          <path class="cls-10" d="M546.6,482.1c1.4.1,2.8.1,4.2.2-.1,2,.1,4.1-.7,6a3.47,3.47,0,0,1-3.9.3C546.3,486.4,546.4,484.3,546.6,482.1Z" transform="translate(0.01 0.1)"/>
          <path class="cls-10" d="M564.3,482.7l6.1-.3c-.1,2.7-.3,5.3-.5,8a9.2,9.2,0,0,1-5.9-.7A32.57,32.57,0,0,1,564.3,482.7Z" transform="translate(0.01 0.1)"/>
          <path class="cls-10" d="M552.1,482.8c1.5.1,2.9.2,4.4.4,0,2.2,0,4.4-.1,6.7a5,5,0,0,1-4.3,0A56.06,56.06,0,0,1,552.1,482.8Z" transform="translate(0.01 0.1)"/>
          <path class="cls-10" d="M557.5,482.9c2,.2,4,.3,5.9.4a33.71,33.71,0,0,1,.1,7.1,9.53,9.53,0,0,1-5.5.6A36.77,36.77,0,0,1,557.5,482.9Z" transform="translate(0.01 0.1)"/>
        </g>
        <path class="cls-10" d="M821.5,258.9c-3.1-3.6-9.1-3.9-12.9-1.1-18.5,14.1-37.5,27.7-57.3,39.9-19.3,11.9-39.3,22.9-60.7,30.5-6.4,2.2-13.3,3.6-18.5,8.2-4.2,3.3-6.6,8.4-7.6,13.6-.7,4-2.9,7.5-4.8,11A188.91,188.91,0,0,1,640,389.9c-7.4,8.8-15.7,16.9-25.5,22.9,1.1-14.5-3.3-30-14-40.2-8.4-8.3-20.2-12.2-31.8-13-7.5-.3-15.2-.3-22.6,1.3a25.59,25.59,0,0,0-10.3,4.4c-9.5,6.6-18.1,15.5-22,26.6-2.3,6.4-2.6,13.4-2.4,20.1-16.2-11.2-28.3-27.2-38.5-43.9-2.5-4.1-4.8-8.4-6.9-12.7-1.6-3.3-1.7-7-3.1-10.3-2.8-7.4-10.1-12-17.4-14.2-19-5.9-36.9-15-54.1-25-23.7-13.9-46.2-29.8-68-46.6-2-1.6-4.1-3.4-6.8-3.6a9.23,9.23,0,0,0-10.5,6.3c-1.4,5.2,1.3,10.2,3.2,14.9,3.8,8,8.9,15.4,14.3,22.5,13,17.2,28.6,32.2,45.1,46a12.5,12.5,0,0,0-3.2,9c0,3.7,2,6.9,3.9,9.9,7.8,12.4,17.6,23.4,28.4,33.4a11.32,11.32,0,0,0,.2,14.5,224.86,224.86,0,0,0,36.2,32.7c1.5,1.2,3.3,2.1,4.6,3.5a13.15,13.15,0,0,0-1,10.1c.9,3.2,3.8,5.2,6,7.6,10,9.5,21.9,17,34.3,23-4,4.9-3.4,13.7,2.6,16.7,12.6,6.8,26,12.8,40.3,14.3a56.55,56.55,0,0,0,31.3-5.6c1.4-.6,2.7-1.6,4.3-1.3a66.11,66.11,0,0,0,15.4.1c3-.7,5.4,1.6,8.2,2.3,11.1,4.5,23.6,4.8,35.2,2,10.9-2.6,21.2-7.2,31-12.4,3.7-1.7,5.5-5.9,5.4-9.8,0-2.6-1.3-4.9-2.5-7.1a130.91,130.91,0,0,0,34.5-22.8c2.6-2.3,5.4-4.8,6.1-8.4a11.53,11.53,0,0,0-1.4-9.2,231.84,231.84,0,0,0,37.1-31.4c2.5-2.7,5.7-5.2,6.7-8.9,1.1-3.3.1-6.9-1.8-9.7a1.7,1.7,0,0,0-.1-.7,159.09,159.09,0,0,0,30.2-35.8c3.1-4.7,3-11.6-1-15.8,17.8-14.6,34.5-30.8,48.2-49.3,5.9-8.2,11.7-16.7,14.7-26.3C824.3,266.2,824.2,261.9,821.5,258.9ZM601.9,418.1c1.2-2.5,3-4.8,3.9-7.4,1-3.8-1-8.2-3.7-11.3-.3-.3.1-.6.4-.5a9,9,0,0,1,4.1,4.3,14.06,14.06,0,0,1,1.5,8.3c-.3,2.8-3.4,5.5-3.8,8.2s1,4.6,1.8,4.6,1.2-1.1,2.5-3.4c2.9-2.5,1.1,2.9.8,4.8-.4,4.2,2.5,8.7,1,12.8a27.27,27.27,0,0,1-3.7,7.2c-.6.8-1.8.6-2.6.8.2-2.7,2.1-5.7,2.6-9,1.3-9.3-5.9-10.1-6.3-13.8C600,421.8,601.1,419.9,601.9,418.1Zm-39.4-23.5c-6.9-2.7-13.7-5.8-20.7-8.4a50.75,50.75,0,0,1,4.3-2.7c10.5-6.1,21-12.4,31.6-18.3-5,6.4-10,12.8-14.9,19.3,8.7,2.8,17.3,5.8,25.9,8.7q-28.65,12.15-57.5,24C541.7,409.7,552.1,402.2,562.5,394.6ZM536,425.5a49.12,49.12,0,0,1,11.3-2.2c4.3-.2,8.2,2.4,10.8,5.6a9.19,9.19,0,0,1,1.4,3.2,12.44,12.44,0,0,1,9.1-.3,7,7,0,0,1,1.8-3.9c2.6-3.1,6.5-5.4,10.7-5.1a51.94,51.94,0,0,1,13.5,3.1c3.3,1.2,5.3,4.4,6.5,7.6,1.8,4.5,2.1,9.9-.2,14.3-1.6,3.2-5.2,4.8-8.6,4.9-2.6.1-5.1-1-7.4-2.1a33.71,33.71,0,0,1-15.7-15.5c-2.1-.8-4-2.9-6.4-2.1-1.4.5-3.4.9-3.9,2.5-3.3,7.7-10.2,13.3-17.8,16.6a11.89,11.89,0,0,1-11-.5c-2.5-1.5-3.9-4.4-4.4-7.2a20.24,20.24,0,0,1,3.9-15.2C531.2,427,533.7,426.2,536,425.5ZM599.8,464c-2.3-2.2-5.9-3.8-11.1-4.7-3-.8-12.6-1.9-12.9-4.8,3,1.9,3.9,1.6,7.9,2.3s11.2,2,13.1,2.7A5.82,5.82,0,0,1,599.8,464Zm-27,.2c-2.6,1.1-5.2-.7-7.8-.9-2.8.4-5.4,2.1-8.3,1.5a3.19,3.19,0,0,1-2.9-2.6c-.3-3.8,1.9-7.2,2.2-10.9.2-2.9,2-5.4,3.4-7.8.9-1.3,2.1,0,3.3.2,1.6.5,3.2-1.2,4.7-.5,1,1.3.9,3,1.7,4.4,2.2,3.4,3.1,7.4,4.6,11.1C574.4,460.5,574.7,463.1,572.8,464.2Zm-21-9.8c-.3,2.9-9.9,3.9-13,4.7-5.1.9-8.8,2.5-11.1,4.7.2-2.1,1.5-3.4,3.1-4.5,1.9-.7,9.3-1.9,13.2-2.6S548.7,456.3,551.8,454.4Zm-32.6-33.7c1.3,2.2,1.8,3.4,2.5,3.4s2.3-1.8,1.9-4.6-3.5-5.4-3.8-8.3a13.34,13.34,0,0,1,1.5-8.3,9.26,9.26,0,0,1,4.1-4.2c.4-.2.7.2.4.5-2.7,3.1-4.8,7.5-3.8,11.3.9,2.6,2.7,4.9,3.9,7.4.8,1.8,1.8,3.7,1.5,5.7-.4,3.7-6.7,5.7-5.5,15,.5,3.3,2.6,4.8,2.8,7.5-.9-.2-2,0-2.6-.9a27.27,27.27,0,0,1-3.7-7.2c-1.5-4.1.3-8.4,0-12.5C518,423.6,516.3,418.2,519.2,420.7ZM354,323.1c-11.6-11.4-22.5-23.7-31.5-37.4-3.9-6.2-8-12.7-9.2-20.1.2-.3.6-1,.8-1.3a3.94,3.94,0,0,1,3,.8c24.5,18.9,49.8,36.9,76.8,52.1,15.9,8.9,32.4,17,49.9,22.3,4.1,1.4,8.3,3.4,10.9,7.1,2.8,4,2.4,9.3,4.8,13.5a184.78,184.78,0,0,0,32.1,46.2c6.9,6.9,14.5,13.2,23.3,17.6.5,4.1-2,8.1-.5,12.1.5,1.4,2,2.2,2.2,3.7.5,4.3-1.5,8.7,0,12.9,1,1.7,3.4,2,4.3,3.7.6,1,.5,2.3.7,3.4-9-4.7-16.4-11.8-24.1-18.4-4.4-3.9-8.9-7.7-13.3-11.6-10.6-10.1-19.6-21.7-28.5-33.2-1.4-1.7-2.6-3.7-4.6-4.8C416.1,372.9,382.6,350.7,354,323.1Zm20.6,35.8a6.53,6.53,0,0,1-.9-5.9c.9-2.1,3.3-3,5.5-3.1,1.5-.1,2.5,1.2,3.7,2,9.4,6.9,18.9,13.5,28.6,20,10.2,6.7,20.4,13.5,31.2,19,2.1,1.3,5,1.5,6.5,3.6,11.1,13.9,23.1,27.1,35.5,39.9,3.3,3.2,6.3,6.7,9.7,9.8a121.08,121.08,0,0,1-21.2-6.6,249,249,0,0,1-53.9-31C401.9,393.3,385.9,377.7,374.6,358.9ZM468,475.8a114.78,114.78,0,0,1-22.5-18c-.2-1.3-.5-2.8.2-4,1.6-2.5,5.4-2.8,7.8-1.3,21.8,15.4,48,23.6,74.2,27.2,0,3.8.2,7.7-.6,11.5,2.1,1.5,4.7,2.3,6.8,3.7a52.82,52.82,0,0,1,3.7,5.5C513.1,496.8,489.1,488.7,468,475.8Zm57.7,38.1c-14.9-.7-28.6-7.2-41.5-14-.6-1.4-1.1-3.1-.1-4.5,2.2-3.2,6.8-3.4,10.2-2.2a121.18,121.18,0,0,0,14.5,4.4,285.85,285.85,0,0,0,30.3,6.3c1.1,3.3,4.2,4.9,7,6.5A51.34,51.34,0,0,1,525.7,513.9Zm119-16.4c-.1,1.8-2,2.4-3.3,3.1-10.1,5.2-20.8,9.8-32.1,11.6a50,50,0,0,1-26.8-2.9,62.47,62.47,0,0,0,6.2-6.4,309.72,309.72,0,0,0,40.2-8.7c3.5-1,6.9-3.1,10.7-2.3C642.2,492.3,645.2,494.4,644.7,497.5Zm38.6-41.9c0,1.5-1.2,2.5-2.1,3.5-8.8,8.7-19.3,15.6-30.2,21.3A182,182,0,0,1,616.2,494c-8.6,2.3-17.3,4.4-26.2,5.1a13.59,13.59,0,0,1,6.3-5.3c1.6-.9,3.5-1.7,4.3-3.4a116.42,116.42,0,0,1-.5-11.8c24.5-2.8,48.7-10.1,69.7-23.1,2.9-1.6,5.5-4.7,9.1-4.3C681.2,451.1,683.7,453.1,683.3,455.6ZM724.9,408a220.21,220.21,0,0,1-39.2,34.2c-19.9,13.6-42.1,24.1-65.6,29.7a128.93,128.93,0,0,1-19.4,3.3c-.1.2-.2.7-.3.9.5-3.5-3.1-6-6.1-6.6-.5,3.4-.1,6.7-.1,10.1A14.31,14.31,0,0,1,591,488a3.22,3.22,0,0,1-1.8,1.2c-.2-.8-.4-1.7-.6-2.5-2.5,1-4.7,2.4-7.2,3.4a51.36,51.36,0,0,1-31,2c-3.7-.6-6.8-3-10-4.8-.3,1.1-1,2.5-2.4,1.9-1.6-1.1-3.3-2.6-3.6-4.6-.9-4.4-1-9-1.4-13.4-2.3-.2-4,1.4-5.7,2.6v2.5c-24.7-2.9-48.4-11.9-69.8-24.3A221.18,221.18,0,0,1,407,411.7c-1.4-1.6-3.2-3-4-5-.6-2.5,2-4.7,4.4-4.1,2.7.4,4.3,2.8,6.3,4.3A239.29,239.29,0,0,0,449.4,430c15,7.9,30.7,14.6,47.2,18.6a11.05,11.05,0,0,1,3.1.9c6.6,6.2,14.4,10.9,22.4,15,.8,1.8,1.7,4.4,4.1,4.5,4.5-1.2,8.3-4.2,12.8-5.6,1.8-.4,4.2-.7,5.3,1.1,1.9,2.2-.9,4.6-.7,7a48.7,48.7,0,0,0,9.3.8,186.52,186.52,0,0,0,31.7-1.4c-.2-2.6-3-4.9-1.5-7.5.5-1.1,1.9-2.2,3.1-1.4,4.7,2.3,9.5,4.5,14.3,6.6,2.7.7,4.6-2.2,4.4-4.7a90.8,90.8,0,0,0,23.8-15.4c6.5-1.8,13-3.3,19.3-5.6a247.28,247.28,0,0,0,62.1-32.6c2.7-2,5.4-4.1,7.9-6.3,1.5-1.4,3.9-2.4,5.8-1.2A3.35,3.35,0,0,1,724.9,408Zm29.6-48.9c-11.6,19-28.1,34.6-45.8,47.8A245,245,0,0,1,655.2,437a115,115,0,0,1-20.7,6.3A667.82,667.82,0,0,0,680.8,393c1.7-1.1,3.8-1.6,5.6-2.6,10.1-5,19.5-11.2,29-17.3,10.3-6.8,20.5-13.7,30.5-21a23.67,23.67,0,0,1,3.3-2.2,6.45,6.45,0,0,1,6.1,2.5C756.5,354.6,755.8,357.2,754.5,359.1ZM814.3,273c-3.3,7.5-8,14.3-12.8,20.9-13.9,18.4-30.6,34.4-48.5,48.8-23.3,18.6-48.7,34.5-75,48.4a15.22,15.22,0,0,0-3.9,3.7c-7.6,9.5-15.1,19.3-23.6,28.1-7.5,8-16.2,14.6-24.4,21.8-6.6,5.5-13.1,11.3-21,14.6,1.8-3.9,6-6.3,6.7-10.7.5-2.6-1-5-.8-7.6.1-2.3,2.9-3.4,2.8-5.8a67.35,67.35,0,0,0-.7-11.9c10.5-5,19.5-12.8,27.5-21.2a191.64,191.64,0,0,0,29.2-42.6c2.5-4.5,2-10.2,5.5-14.3s8.9-5.8,13.9-7.3c22.9-7.5,44.1-19,64.6-31.4a691.85,691.85,0,0,0,59.1-41.1c.9-.9,2.7-1,3.4.1C816.5,268.2,815.3,270.6,814.3,273Z" transform="translate(0.01 0.1)"/>
      </g>
    </g>
    <g id="Touchpad">
      <path class="cls-1" d="M522.8,196.4l39.4.9c2.1,0,14.6,1.2,14.6,15.7,0,13.3.1,118.8.1,118.8,0,4-1.8,14.9-15.5,15.2-13.4.3-278.2-.9-278.2-.9s-16.6-.1-16.6-16.1.8-118.2.8-118.2.4-17.2,19.7-17C306.2,194.9,522.8,196.4,522.8,196.4Z" transform="translate(0.01 0.1)"/>
      <path class="cls-11" d="M522.8,196.4l39.4.9c2.1,0,14.6,1.2,14.6,15.7,0,13.3.1,118.8.1,118.8,0,4-1.8,14.9-15.5,15.2-13.4.3-278.2-.9-278.2-.9s-16.6-.1-16.6-16.1.8-118.2.8-118.2.4-17.2,19.7-17C306.2,194.9,522.8,196.4,522.8,196.4Z" transform="translate(0.01 0.1)"/>
      <path class="cls-1" d="M283.8,202.6l276.6,1s8.7.1,8.8,8,.2,119.6.2,119.6.8,7.6-5,7.7-281.1-1.1-281.1-1.1-9.8,1.1-9.8-8.1.7-119.2.7-119.2S274.8,202.6,283.8,202.6Z" transform="translate(0.01 0.1)"/>
      <g>
        <path class="cls-12" d="M462.4,218.1a8.3,8.3,0,0,1,2.1-.6,6.14,6.14,0,0,0-2.3,1.1v.3h-.5c-.1.4-.5.6-.9.8s-.6.6-1,.8c.2-.3.3-.7.5-1a11.4,11.4,0,0,0-1.9,1c-.3.2-.5.3-.8.5l.3.2-.3.1h-.1l-.4.2.1-.5a3.55,3.55,0,0,0-.9.4c.2,0,.6-.1.8-.1-.4.7-1.4.7-2.1,1.1-.5.2-1,.4-1.4.6,0,.2.1.4.1.6.2.1.4.1.6.2-.5.2-1,.4-1.4.6a31.74,31.74,0,0,1-4.2,1.9c-.1.3-.1.6-.2.9-.5.2-1.1.4-1.4-.2a14.48,14.48,0,0,0-3.5,1.8,21.48,21.48,0,0,1-2.6,1.4c2.3-.4,4.3-1.6,6.5-2.4a9,9,0,0,0,2.1-.8c.1.1.3.2.4.3l-.6.2a15.17,15.17,0,0,1,2.1-.3,19.64,19.64,0,0,1-3.6,1.6,1.38,1.38,0,0,0-.3.4c0-.2.1-.5.1-.7a11.72,11.72,0,0,0-4.3,2.2c.1.1.3.2.4.3-.2-.1-.4-.1-.6-.2a8.65,8.65,0,0,1-1,.7,2.35,2.35,0,0,0,.8.2,8,8,0,0,0-1.6.8c0,.1.1.2.1.3-.5.3-1.5.3-1.4,1a31.32,31.32,0,0,0-4.8,2.5,33.1,33.1,0,0,0-3.3,1.5c-.8.3-1.3,1-2.1,1.1-.1.2-.3.3-.4.5.2-.1.4-.1.6-.2.1.2.3.5.4.7a2.66,2.66,0,0,1-.3,1.2c.1,0,.4,0,.5.1v.2c-.3-.1-.5-.2-.8-.3a1.06,1.06,0,0,1,.2-.5c-.4.3-.9.6-1.3.9H428c0,.1.1.4.1.6-.1-.1-.2-.4-.3-.5a9.82,9.82,0,0,1-1.8.8c.1.1.3.2.4.3a3.19,3.19,0,0,1-1.4.3c.1.3.5.4.8.6-1,.5-2.2.2-3.3.4.4.6,1,.7,1.6,1.1a2.21,2.21,0,0,1-1.6,0,13.5,13.5,0,0,1-2.6,1.5c0-.3-.1-.6-.1-.8.2-.3.3-.5.5-.8l-1.1.3c-.1.7-.8,1-1.3,1.2.1,0,.4.1.6.1a3,3,0,0,1-1,.4,2.14,2.14,0,0,1-.9,1.8,3,3,0,0,1-.5,1.6,2.35,2.35,0,0,0-.8-.2,7.57,7.57,0,0,0-.1-1.5c-.2.2-.4.3-.6.5-.3,0-.5.1-.8.1h-.4l-.8.8c.3-.6.5-1.2.8-1.8.1.1.3.4.4.5a4.19,4.19,0,0,0,.9-1.4,3,3,0,0,0-.5.7h-.7l-.9.6c.1-.4.2-.8-.4-.8a2,2,0,0,1,1.1-.2,2.19,2.19,0,0,0-.3-.5.81.81,0,0,0,.8-.4c-1.3-.2-2.1,1-3.3,1.4.4-.3,1-.5,1.2-1.1-.7,0-1.3.6-1.9.9.1.1.2.3.3.4a3.33,3.33,0,0,1-.6.3c0-.1-.1-.3-.2-.3-.2.2-.5.4-.7.6a1.68,1.68,0,0,1-.3,1.2,4.4,4.4,0,0,0,.2-1,4.9,4.9,0,0,0-2.4.8,27.06,27.06,0,0,1-3.9,1.7c-1.2.6-2.4,1-3.5,1.6-.9.3-1.8.6-2.7,1a4.35,4.35,0,0,1-1.5.8c-.3.1-.5-.1-.7-.3a9.5,9.5,0,0,0,1.7-1,2.77,2.77,0,0,1-1.3.3l.5-.5c-.1-.1-.2-.2-.2-.3a3.92,3.92,0,0,0-1,.8l-.3-.6c-.6.3-1.2.8-1.8,1.1.1-.2.3-.5.4-.7-3.4,1.5-6.8,3.2-10.2,4.7-4.9,2.2-9.9,4-14.9,6.1a5,5,0,0,1-1.3.4c1.6-.8,3.3-1.4,4.9-2.2.9-.5,1.9-.9,2.8-1.5.4-.3.9-.1,1.3-.1a1.07,1.07,0,0,1-.6-.2l.5-.5a3.26,3.26,0,0,0-1.4.4c-.9.5-2,.9-2.9,1.4a3.55,3.55,0,0,1-.9.4c-1.1.2-2,.8-3.1,1,1.2-.9,2.7-1.1,3.9-1.9.6-.3,1.2-.4,1.7-.7,1.4-.8,3.1-1.1,4.5-2,.9-.5,1.9-.9,2.8-1.3-.3-.1-.8-.4-1.1,0-.5.4-1.1,1-1.7.7-.1.1-.3.3-.4.3-.3,0-.5-.1-.8-.1a7.74,7.74,0,0,0,1.6-.7c1.1-.2,1.9-1.3,3.1-1.4l.5-.5a.73.73,0,0,0,1-.4,8.43,8.43,0,0,0,1.4-.6,1.43,1.43,0,0,0-1.1-.3l-.4-.4a3.33,3.33,0,0,1,.3.6,1.7,1.7,0,0,0-.7.1c-.5,0-.9.2-1.3.2a4.18,4.18,0,0,1-1-.4c.5-.3,1-.5,1.6-.8a.76.76,0,0,1,.4.2l.6-.3a.76.76,0,0,0,.2-.4c2.1-1,4.2-1.8,6.2-2.9a13.9,13.9,0,0,0,2.1-1.1,25,25,0,0,0-2.5.9c0-.2.1-.5.1-.6-.1.2-.1.4-.2.6a12.15,12.15,0,0,0-2,.9c-.1-.1-.3-.2-.4-.3a1.8,1.8,0,0,0,.9-.4,5.64,5.64,0,0,0-1.2.4,12.2,12.2,0,0,1-1.7.7.76.76,0,0,0-.4-.2c3.2-1.7,6.7-3,10-4.5,1.2-.3,2.2-1.2,3.4-1.6a34.53,34.53,0,0,0,6.1-3c-1,.3-1.9.8-2.9,1.1a11.69,11.69,0,0,0-2,.6c-.1.2-.1.5-.2.7,0-.2,0-.5.1-.6-.5,0-.5.5-.7.9l.1-.6c-1.1.4-2.1,1-3.2,1.3v.3c-1-.2-1.6.6-2.5.9a17.55,17.55,0,0,1-2.4,1.1c-1.9.7-3.7,1.5-5.5,2.2a34.65,34.65,0,0,1,5.5-2.6v-.3c-1,0-1.7.8-2.7,1,.2-.4.7-.5,1-.7a12.9,12.9,0,0,1,1.6-.9c.1.2.3.3.5.5.4.2.7-.3,1-.4a.35.35,0,0,1,.2-.1h.1a10.37,10.37,0,0,0,1-.4c.2,0,.4-.1.6-.1-.1-.2-.3-.3-.4-.5a6,6,0,0,0,1.9-.6c0-.2.1-.5.1-.6.9-.2,1.6-.9,2.6-.9a1.06,1.06,0,0,1-.2.5c.4-.1.9-.2,1.4-.3v-.4c.4,0,.9-.1,1.3-.1a4.14,4.14,0,0,0-1.6-.2c.7-.5,1.7-.2,2.1-1.1a4.14,4.14,0,0,0,1.9-.5c.6-.3,1.4-.3,1.8-.9a23.84,23.84,0,0,0-4.7,1.7c-1.9.5-3.6,1.5-5.5,2.2l.3-.6a.76.76,0,0,1,.4.2,14.32,14.32,0,0,1,2.1-1.2,1.06,1.06,0,0,0,.5.2.75.75,0,0,0-.4-.7c.2.1.4.3.6.4.5-.3.9-.6,1.4-.9h.9c-.1-.2-.3-.3-.5-.5.6,0,1.1-.4,1.6-.1a1.06,1.06,0,0,1,.2-.5c.3.3,1,.4.9-.3.2.1.4.1.6.2-.3-1,1-.1,1.3-.7h.4l-.4-.4h.6c0-.5.5-.6.9-.5.4-.3.8-.7,1.2-1a1.56,1.56,0,0,0,.6.8l-.1-.4.3.1a2.66,2.66,0,0,1-.3-1.2c.8.4,1-.7,1.8-.5a1.14,1.14,0,0,1-.3-.6c0-.4.5-.5.8-.7s.2-.5.4-.6a4.42,4.42,0,0,1,1.5-.5c-.1.1-.3.2-.4.3a2.65,2.65,0,0,1,.5.6v-.6c.5.4,1.7.3,1.7,1.2a7.07,7.07,0,0,1,1.8-1.2v-.6h.3l.1.1c-.1.1-.1.3-.2.4a.6.6,0,0,0,.4.1c.1-.1.3-.2.4-.3l.3-.3c0-.1-.1-.4-.1-.5l.1-.1c.3-.1.7-.2.9.2a.76.76,0,0,0-.2-.4l.4-.1a.76.76,0,0,0,.2.4c0-.1-.1-.3-.1-.4a2.19,2.19,0,0,1,.5-.3,7.49,7.49,0,0,1-1.6.5,6.26,6.26,0,0,1,2-1,3.58,3.58,0,0,1-1.1-.4,1.76,1.76,0,0,0,1.3-.6c0,.1-.1.4-.1.6.2,0,.6-.1.7-.1.7-.4,1.4-.7,2.1-1.1l.1-.4h-.5c.1-.9.7.1,1.1.1.1-.1.4-.2.5-.3-.1-.5-.4-1-.1-1.4.3,0,.3.3.4.4a.65.65,0,0,1,.9.5,8.17,8.17,0,0,0,2-1.2,11.66,11.66,0,0,0,2.6-1c.7-.2.8-1.3,1.7-1.2.1,1.2-1.5,1.3-2,2.1.3,0,.5-.1.8-.1v.5c-.4-.1-.8-.1-.9-.6-.3.2-.7.4-1,.6.1.1.1.3.2.4a1.33,1.33,0,0,0-.3.5l.4.1c.5.2.1-.6.5-.7s.4.4.5.6a5.6,5.6,0,0,0,2-.8c2.6-1.1,4.9-2.5,7.5-3.5,1.2-.7,2.6-1.1,3.8-1.8a1.33,1.33,0,0,0,.5.3l-.4-.4a15.55,15.55,0,0,0,2.3-.8l.9.3c-1.4.6-2.9,1.3-4.3,2-2,1.1-4.2,2-6.2,3.1a14,14,0,0,0-1.6,1c4.6-2.5,9.6-4.5,14.4-6.7v.4a7.5,7.5,0,0,1,2-1,2.07,2.07,0,0,1,.2-.6v.6c.6-.1.7-1.2,1.4-.7v-.3c.1,0,.3.1.4.1.4-.2.7-.3,1.1-.5l-.4-.4c.2.1.5.2.7.3l-.1-.5a.76.76,0,0,0,.5.2c.1-.2.3-.4.4-.6,0,.1-.1.4-.1.5a18.94,18.94,0,0,1,2.1-.9l-.4-.4c.1.1.4.2.5.3.9-.4,1.7-.9,2.6-1.2-2.2,1.2-4.4,2.4-6.6,3.5-.4.2-.7.6-1.2.6a29.76,29.76,0,0,1-3,1.8,31.9,31.9,0,0,0,3.3-1.1,6,6,0,0,0,1.9-.6c.1.1.4.3.5.4a1.7,1.7,0,0,1,.1-.7,13,13,0,0,1,1.7-.8c-.4.5-1.3.4-1.5,1,.4.3.8.1,1.2-.1a9.83,9.83,0,0,1,1.6-.5c-.8.3-1.6.7-2.5,1,0,.1-.1.2-.2.3.1,0,.4.1.5.1a20.29,20.29,0,0,1-2.6,1.1c.4-.7,1.4-.6,1.8-1.2-1,.3-1.9.8-2.9,1.2a4.33,4.33,0,0,0-.1.5c-.5.2-.9.3-1.4.5,0,.1.1.2.1.3a4.67,4.67,0,0,1-1,.5,7.48,7.48,0,0,0,3.2-1c1.5-.8,3-1.6,4.4-2.4s3.1-1.3,4.5-2.1c1.2-.3,2.2-1.2,3.5-1.4-1.2.5-2.3,1.3-3.6,1.8a30.71,30.71,0,0,0-3.1,1.7,4.42,4.42,0,0,0,1.6-.6c1.1-.7,2.3-1.1,3.4-1.7a17.91,17.91,0,0,0,2.4-1.2.6.6,0,0,1,.1-.4C462,218,462.3,218.1,462.4,218.1Zm-1.4,1.2c-.2,0-.8.3-.4.4S461.8,219.1,461,219.3Zm-14.9,4.9c.3.2.9,0,.9-.3C446.7,223.8,446.1,223.8,446.1,224.2Zm-6.5,1.6a2.84,2.84,0,0,0,1.2-.4,4.9,4.9,0,0,0,2-1.1C441.7,224.7,440.7,225.3,439.6,225.8Zm-1.6.7c0,.3.2.3.5.1C438.4,226.3,438.3,226.3,438,226.5Zm-14.4,2.9a1,1,0,0,0,.9-.2C424.4,228.8,423.5,229.1,423.6,229.4Zm-5.5,2.2c-.2-.1-.7.3-.3.4S418.5,231.7,418.1,231.6Zm-11.8,5.7c-.3.1-.3.3,0,.5C406.5,237.6,406.5,237.5,406.3,237.3Zm1.1.9c.1.4.8.2.9-.1C408.1,237.8,407.6,238,407.4,238.2Zm-1.8,1a1.89,1.89,0,0,0,1.3-.7A7.62,7.62,0,0,0,405.6,239.2Zm-3.4,1.4c.4.3.8,0,1.1-.2.6-.4,1.3-.5,1.8-1C404.1,239.8,403.2,240.3,402.2,240.6Zm23.4,1.6c-.2,0-.7.2-.3.4S426.2,242.2,425.6,242.2Zm-26.4,9.7a10.89,10.89,0,0,0,2.5-1A6,6,0,0,0,399.2,251.9Zm-3.5,1.6c.3.1.8-.1.8-.5C396.2,252.9,395.7,253.2,395.7,253.5Zm-10.4-.5c-.7.3.2.6.4.2C386,253,385.5,252.9,385.3,253Zm-2.6,1.4c.6-.4,1.3-.5,1.9-.9C384,253.6,383.1,253.7,382.7,254.4Zm-3.7,2.9c0,.3.6.3.8.2C379.9,257.1,379.2,257.1,379,257.3Zm1.6.8c-.1.4,0,.5.4.4C381.1,258.1,381,258,380.6,258.1Zm-3.6,1.7a1,1,0,0,0-.1-.3c0,.1,0,.3.1.3a1.17,1.17,0,0,1-.7-.2,2.19,2.19,0,0,0,.5.3,1.48,1.48,0,0,1-1.3.2c.1.1.3.2.4.3a4.05,4.05,0,0,0-.9.5,35.18,35.18,0,0,0,4.5-1.8,4.13,4.13,0,0,0,1.1-.7A19.25,19.25,0,0,0,377,259.8Z" transform="translate(0.01 0.1)"/>
        <path class="cls-12" d="M461.3,232.5c.1-.2.2-.3.3-.5v.6a2.57,2.57,0,0,1,1.5-.1l-.4.4v-.5a3,3,0,0,0-1,.2c.1.7.9.7,1.5.9a6,6,0,0,0,1.3-.9h.5c-.1.3,0,.8-.4,1a.35.35,0,0,0,.2.1c.3-.2.6-.1.9-.1-.2.6-.9.7-1.1,1.2-.3,0-.6.1-.9.1-.3.2-.3,1-.9.7v.4a3.33,3.33,0,0,1-.6.3,2.07,2.07,0,0,0,1-.6l.1.4c.2-.3.3-.5.5-.8.6-.2,1.1-.4,1.7-.6a.76.76,0,0,1,.2-.4c.1,0,.4.1.5.1a2.65,2.65,0,0,0-.6.5c1.3,0,2.6-1,3.9-.5a1.85,1.85,0,0,0-.7-.2,1.86,1.86,0,0,0,1.2-1.6,1.79,1.79,0,0,1,.5.7c.2-.2.4-.3.6-.5a4.35,4.35,0,0,0-.4.7h.7c0-.1-.1-.4-.1-.5.3.1.6.3.9.4a10.44,10.44,0,0,1-2.4,1.1,5.46,5.46,0,0,1-1.8.6,1.06,1.06,0,0,0-.5-.2,2.19,2.19,0,0,0,.5.3l-.6.6a2.08,2.08,0,0,0-1.1-.1,2.84,2.84,0,0,1-.9,1c-.1-.1-.3-.2-.4-.3a2.09,2.09,0,0,1-.4.6c-.1,0-.4.1-.5.1a.74.74,0,0,1-.4.9v-.7a3.92,3.92,0,0,1-1,.8,1.21,1.21,0,0,0,.5.5,1.07,1.07,0,0,1,.2-.6c.1.1.3.2.4.3.4-.2.8.1,1.1.4a2,2,0,0,1-.8.4c-.2.1-.4.3-.6.4h.7a.64.64,0,0,1,1-.3c.1.4-.2.8-.3,1.2-.3-.2-.7-.5-1.1-.3v.6a3.09,3.09,0,0,0-.8-.2c0,.6-.7.6-1,.9a9.91,9.91,0,0,1-1.7,1.1v.6a.76.76,0,0,0-.4-.2,2.92,2.92,0,0,1-.9.2l.2.4c-.7-.3-1.2.3-1.7.6.3-.2.7-.4,1-.6.1.2.2.5.3.7,0-.1.1-.4.1-.6a3,3,0,0,1,1.3-.5c-.2.3-.3.5-.5.8a9.93,9.93,0,0,0,3.1-1.2c-.1.1-.2.3-.3.4a10.93,10.93,0,0,0-1.5.8c0,.1-.1.4-.1.5s-.4.1-.5.1.1.3.1.4c-.5-.1-.6.3-.7.7-.9.2-1.9.4-2.3,1.2a3.59,3.59,0,0,1,.2,1.1,5.24,5.24,0,0,1-1.8-.2c-.4-.2-1-.1-.9.4.4.3.8-.2,1.3-.2-.3.3-.6.5-.8.7,0,.1.1.4.1.5a.91.91,0,0,1-.4-.8c-.3,0-.6-.1-.9-.1a1.06,1.06,0,0,1-.2.5,4.39,4.39,0,0,0-2.2.7.88.88,0,0,0-.7-.1c.1.1.4.2.5.3-.4.6-1.1,1.1-1.1,1.9a4.35,4.35,0,0,0-.6.7,2.78,2.78,0,0,0-1.8-.3,1.06,1.06,0,0,0,.2-.5c-.7,0-1.3.3-2,.3,0-.2.1-.5.1-.7a1.06,1.06,0,0,0-.1,1.2c-.1-.1-.4-.2-.5-.3a14.17,14.17,0,0,0-1.8.8c.1.3.5.7.4,1.1a4.82,4.82,0,0,1-1.2,0c.1-.1.2-.4.3-.5.1.1.2.2.3.2v-.2c-.4,0-.6-.1-.7-.5-.5.5-.8,1.3-1.6,1.4a2.92,2.92,0,0,1,.2-.9,1.06,1.06,0,0,1-.5.2,1.45,1.45,0,0,1,.2.7c-.1,0-.4-.1-.5-.1a.76.76,0,0,1-.2-.4A5.59,5.59,0,0,1,438,255l.2-.4c-.4.2-.9-.2-1.2.2s.7.3.9.2a1.37,1.37,0,0,1-1.7.7c0,.1-.1.4-.1.6a1.49,1.49,0,0,1-.6-.1v1l-.5-.5v.7l-.9.3a2.37,2.37,0,0,1-1.5.9l-.3,1.2c-.6,0-1.1-.3-1.7-.2,0,.4.4.6.7.8a1.06,1.06,0,0,0-.2.5,4.87,4.87,0,0,1-2.4,0,.76.76,0,0,1-.5.2c-.1-.3-.2-.5-.3-.8-.1.1-.3.4-.4.5-.1-.1-.2-.3-.3-.4a4.71,4.71,0,0,0-1.7.4c-.1,0-.2-.1-.3-.2a4.88,4.88,0,0,1-.7.3c.1,0,.4.1.5.1a1.37,1.37,0,0,1-.5.8v-.4a4.88,4.88,0,0,0-.7-.3,2.63,2.63,0,0,1-1.4.9,1.21,1.21,0,0,1-1.3.8c0-.7-.6,0-1,0-.6-.5-.9.4-1.3.7h.7c-.1.4-.5.5-.7.8-.2-.2-.5-.4-.7-.6l.4-.4a4.88,4.88,0,0,1-.7-.3h-.6c-.1-.1-.4-.2-.5-.3.1.1.2.4.3.5-.2,0-.6.1-.8.1.1.3.2.7.3,1a3.4,3.4,0,0,0-1,.1c0-.2.1-.6.1-.8a3.07,3.07,0,0,1-2.4,1.3l-.2-.2a6.89,6.89,0,0,0-.8-.3c-.1.4-.3.8-.4,1.1a.6.6,0,0,0,.4-.1h.3a1.06,1.06,0,0,0-.2.5,2.77,2.77,0,0,1,.9-.1c-.1-.4.4-.5.6-.7-.1.3-.3.5-.4.8-.2.1-.4.1-.5.2,0,.5-.4.6-.8.8a1.72,1.72,0,0,1,.2-1.2,3.33,3.33,0,0,0-.6-.3,1.06,1.06,0,0,1-.2.5c.1.2.2.5.3.7a.76.76,0,0,0-.2.4,5.85,5.85,0,0,0-1.3.2c0-.1-.1-.3-.1-.4.2,0,.7.1,1,.1.1-.3.3-.5.4-.8l-.9.3c-.1-.1-.2-.3-.3-.4-.5.8-1.4.9-2.2,1.2-.1.6-.7.6-1.1.7a1.06,1.06,0,0,1-.2-.5c-.4.1-.7.3-1.1.1l.2.5c-.3-.1-.7-.3-1.1-.4.1.3.1.6.2.9a2.77,2.77,0,0,0-.9.1v-.8c-.5,0-.6.5-.7.8,0-.3-.1-.6-.1-.9a1.51,1.51,0,0,0-.8,1.3c.1.1.3.3.3.4.4.2.7,0,1-.2-.6-.4,0-.4.3-.4l-.3.9a4.05,4.05,0,0,0-.9.5c0-.1-.1-.4-.1-.6h-.1v1.3c-.5.1-.4.5.1.5-.1.2-.3.5-.4.7a3.33,3.33,0,0,0-.6-1c.2-.3.7-.3.7-.8a2.1,2.1,0,0,1-1.1.4,1.21,1.21,0,0,1,.2,1.4c-.6.3-1.3.1-2,.3.3-.2.6-.5.4-.9-.2,0-.5-.1-.7-.1a.76.76,0,0,1-.2-.4,1.07,1.07,0,0,0,.2.6c-.4.1-1,.1-1.2.6a2.05,2.05,0,0,0-1.1,0,5.91,5.91,0,0,0-1.4.6,2.56,2.56,0,0,0-1.5,0l-.3-.2a1.91,1.91,0,0,0-.8-.3c-.4,0-.4.5-.6.8-1,.4-1.8,1-2.8,1.3a1.85,1.85,0,0,0-1.3,1.4c-.1-.2-.2-.5-.3-.7-.7.3-1.3,1-2,1.3.2.1.4.3.6.4a1.07,1.07,0,0,1-.6.2c-.1-.1-.3-.2-.4-.3-.4.4-.6,1.1-1.3.8l.5.5c-.4,0-.7-.1-1.1-.1-.6.6-1.5.6-2,1.3s-1.5,0-2.1.6c-.2-.2-.4-.3-.6-.5-1.1.4-2.3.7-3.4,1.1a11.72,11.72,0,0,1,3.1-1.2c-.1-.3-.6-.6-.3-.9a8.75,8.75,0,0,1,2.2-1,4.35,4.35,0,0,1-.6.7,7.05,7.05,0,0,0,.9-.7c.4-.1.7.4,1,.6a8.86,8.86,0,0,1,1.7-.8,1.43,1.43,0,0,0-1-.4,3,3,0,0,0,1.5-.7,2.19,2.19,0,0,0,.5-.3,4.33,4.33,0,0,1,.1.5c.2-.1.3-.3.5-.4a2.85,2.85,0,0,0,1.4-.8,4.4,4.4,0,0,1-1-.2,6.94,6.94,0,0,0,.5-1.3c0,.2.1.5.1.7a1,1,0,0,1,.9,0,1.79,1.79,0,0,1,.7-.5c-.2-.5.9-.6.6-.1a1.06,1.06,0,0,0-.2.5,10.37,10.37,0,0,0,1-.4h-.7l.1-.3c.1,0,.4.1.5.1,0-.3-.5-.6-.1-.9a6.37,6.37,0,0,0-.7-.2c.3-.1.6-.3.9-.4l.4.4a1.06,1.06,0,0,0-.2-.5c.3-.1.5-.2.8-.3.3.1.6.3.9.4a2.09,2.09,0,0,1,.4-.6l1.2-.6-.1.2h1v-.5a.56.56,0,0,1-.9-.1,7,7,0,0,0,2.9-.9c.3-.2.5-.4.8-.6a.91.91,0,0,0-.7.3,5.7,5.7,0,0,1-1.3.1,11.78,11.78,0,0,1,1.9-1.1c-.7,0-1.3.8-2,.5.2-.3.3-.8.8-.6.2-.3.5-.5.7-.8a2.22,2.22,0,0,0,1.1-.5,4.18,4.18,0,0,0-1,.4v-.5c-.4.3-.9.4-1.3.7a3.33,3.33,0,0,0,.6-.3c.1.1.3.2.4.3-.4,0-.7.2-.7.6a1.34,1.34,0,0,0-1.5.7,2.35,2.35,0,0,1-.8-.2,9.38,9.38,0,0,1-1.5.6,2.7,2.7,0,0,1-.7.8l.4-.8a11.92,11.92,0,0,0-2,.8c1-.9,2.4-1.2,3.6-1.9s2.3-1.6,3.7-1.7c0-.1-.1-.3-.1-.4a4.13,4.13,0,0,0,1.1-.7v.5a6,6,0,0,1,.8-.8,3.33,3.33,0,0,1-.6.3c-.2,0-.3-.1-.5-.1-.5.1-1,.2-1.4.3a1.06,1.06,0,0,0,.2.5c-.4-.2-.7-.3-1.1-.5a2.2,2.2,0,0,0,.1.8h-.1c-.1-.2-.3-.4-.4-.6a4.13,4.13,0,0,0-1.1.7h.7c-.2.2-.5.1-.7.1-.7-.1-1.3.5-1.9.5.9-.6,1.9-1,2.8-1.5.4-.1.8-.5,1.2-.2l.6-.3-.1-.3c.1,0,.4.1.6.1l.3-.6v.5c.8,0,1.3-.5,2-.7l-.4-.4,1.2-.6c.4-.2.9-.2,1.1-.7.5,0,1-.2.9-.8a2.07,2.07,0,0,0,.6.2v-.7l.2.1c.4.2.9.4,1.3.6a5.5,5.5,0,0,1,.9-.7c1.2-.6,2.5-1.3,3.7-2a.87.87,0,0,0-.5-.9,4.1,4.1,0,0,0,1.1.1,3.33,3.33,0,0,1-.3.6c.8-.9,2.1-.6,3.1-1.1.6-.2,1.2-.3,1.8-.5-.1.1-.2.4-.3.5h.3V257a1.85,1.85,0,0,1,.7-.2c0,.1-.1.3-.1.4a17.6,17.6,0,0,0,2-.9,3,3,0,0,1,.7-.5c-.3-.1-.5-.2-.8-.3a14,14,0,0,1,1.6-1c-.3-.4-.7-.1-1.1,0,.4-.4,1-.4,1.5-.6,0,.1-.1.4-.1.5l1.5-.6a6.6,6.6,0,0,0-1.4.1c.1-.7-.9-.7-.9-1.4a3.89,3.89,0,0,1,1.5.2c.1-.1.3-.2.4-.3l-.5-.1c.1-.6.7-.3,1.1-.2-.3.4-.9.8-.5,1.4a1.87,1.87,0,0,1,2.4-.4,10.56,10.56,0,0,1,1.9-.6c-.1-.1-.3-.2-.4-.3a6.89,6.89,0,0,0-.3-.8c.4,0,.8-.1,1.2-.1a2.19,2.19,0,0,0,.3.5l-.3-1.2a4.44,4.44,0,0,0,.8-1.1,1.45,1.45,0,0,0,.7-.2h-.6a4.35,4.35,0,0,1,.7-.6.9.9,0,0,1,.6.6c.4-.2,1.2-.4.9-1.1-.1,0-.4-.1-.5-.1a.22.22,0,0,0,.2-.2c.2.1.4.1.6.2a1,1,0,0,0,1.1,1.4.76.76,0,0,1-.2.4c1.3-.4,2.3-1.4,3.6-1.8-.3.3-.5.6-.8.9a3.81,3.81,0,0,0-1,.3c1.1.1,2-.7,2.8-1.2,1.2-.2,2-1.1,3-1.6a.44.44,0,0,0,.2-.7,3,3,0,0,1,.4-.8c.1,0,.3.1.4.1s.3-.2.4-.3a1,1,0,0,0,.5.4c-.1-.2-.1-.4-.2-.6a3.25,3.25,0,0,0,1.3-1c.1-.1.2-.1.3-.2.5.5,1.1.1,1.6-.2a1.21,1.21,0,0,0,.5-.5.91.91,0,0,0-.7.3.76.76,0,0,0-.4.2V243h-.3a9.22,9.22,0,0,0,.5-.8c.3-.5-.5-.4-.8-.2l-.4-.1c.3-.2.7-.3.9-.7-1,.3-1.8.7-2.8,1.1a2.92,2.92,0,0,0-1.2.7,7.42,7.42,0,0,0,2.1-.7,6.07,6.07,0,0,1-1,.7c-.7.2-1.4.6-2.2.8l-.1-.1c.4-.2,1.1-.2,1-.8l-2.1.9a2.38,2.38,0,0,1,1.1-.6c1.6-.7,3.1-1.3,4.7-2a1.69,1.69,0,0,1-.3-1,5,5,0,0,0,.8.7,16.65,16.65,0,0,0,2.3-1.2c0,.2-.1.5-.1.6.8-.3,1.6-.8,2.3-1.1a24,24,0,0,0,2.3-1.1,7.46,7.46,0,0,0,1.5-.9,4.13,4.13,0,0,0-1.5.7l-.3-.3c1.1-.3,2.1-1,3.2-1.2-.2.2-.6.5-.8.7a19.12,19.12,0,0,0,3.2-1.6,9.58,9.58,0,0,0,3.1-1.4c-.1,0-.4-.1-.5-.1.3-.2.5-.3.8-.5h.6a5.09,5.09,0,0,1,2.1-.6,2.07,2.07,0,0,1,.2.6l.6-.6c0,.1-.1.4-.1.5.2-.1.5-.3.7-.4a6,6,0,0,0-.9,1.5,16.29,16.29,0,0,0,1.7-1.1c.5-.1,1,0,1.5-.1C461.8,233.1,461.6,232.8,461.3,232.5Zm-5.3,1.7a1.06,1.06,0,0,0,.5.2,2.65,2.65,0,0,1,.6-.5C456.8,234,456.4,234.1,456,234.2Zm7.7.5c.4.2.7-.4.7-.6C464.1,234,463.5,234.3,463.7,234.7Zm-5.8-.5c.1.1.2.3.3.4-.1.1-.3.2-.4.3s-.4.1-.6.1c-.2.2-.1.6-.2.9.5-.1,0-1,.6-.7,0,.1.1.2.2.3.3-.3.7-.5,1-.8,0-.1-.1-.4-.1-.5A2.13,2.13,0,0,0,457.9,234.2Zm-2,1.5c-.3.2-.3.3,0,.4C456.1,236,456.1,235.9,455.9,235.7Zm5.6,3.2c-.1.2.1.7.4.5C462,239.2,461.7,238.7,461.5,238.9Zm1.6-.1c-.2.1-.2.7.1.7S463.4,238.8,463.1,238.8Zm-1,2a2.54,2.54,0,0,0,1.3-1.2A3.74,3.74,0,0,0,462.1,240.8Zm-18.2-.7a.68.68,0,0,0-.6.4C443.4,241,444.6,240,443.9,240.1Zm.7.3c-.4.3-.9.5-1.3.8h1.2c0-.1-.1-.4-.1-.6.2-.1.5-.3.7-.4A1.69,1.69,0,0,1,444.6,240.4Zm-1.9.3c-.4.1-.3.6.1.4S443.1,240.5,442.7,240.7Zm-1.3.7h-.5l-.5.5c.3.3.5.2.7-.1a2.35,2.35,0,0,0,.8-.2,3,3,0,0,0-.5.7c.2-.1.4-.3.6-.4.6,0,.5-.6.4-1A1.87,1.87,0,0,0,441.4,241.4Zm17.2,1.1c-.3.2-.3.3-.1.4C458.8,242.7,458.8,242.6,458.6,242.5Zm-11.4,3.7q-.15.45.3.3Q447.65,246.05,447.2,246.2Zm-2.1,3.9c.5,0,.5-.5.5-.8l.4-.4C445.3,248.8,445.3,249.6,445.1,250.1Zm.7-.6q-.15.45.3.3C446.2,249.5,446.2,249.4,445.8,249.5Zm3.5.4q-.15.6.3.3Q449.9,249.75,449.3,249.9Zm-15,0c-.1.3,0,.5.4.3C434.8,249.9,434.6,249.8,434.3,249.9Zm5.8,1.8a2.92,2.92,0,0,0-.2.9l.6-.3a1.08,1.08,0,0,0,.7.3c0-.5.1-.9.6-1.1A4.68,4.68,0,0,0,440.1,251.7Zm4.9-.1c0,.3.2.3.5.2C445.4,251.5,445.3,251.4,445,251.6Zm-16.1,1c.7-.3,1.6-.3,1.9-1.1A5.93,5.93,0,0,0,428.9,252.6Zm9.9-.2c-.1.3,0,.5.3.4C439.3,252.4,439.2,252.3,438.8,252.4Zm.2,1.9a.52.52,0,0,0,.8-.2C439.7,253.7,438.8,253.9,439,254.3Zm-21.7,1.4c-.3,0-.4.2-.5.4C416.9,256.7,418,255.7,417.3,255.7Zm14.9.2c.2.4.1.6-.3.8-.1-.2-.2-.5-.3-.7a4.23,4.23,0,0,0-.5.7c-.3,0-.6.1-.8.1.2.3.6.2.9.2,0,.4-.1.8-.1,1.2.6-.1,1-1.4,1.6-.7a.67.67,0,0,0-.7.5,3.58,3.58,0,0,0,1.1-.4,1.76,1.76,0,0,0-.4-.5,2.35,2.35,0,0,0,.5-1c-.3.1-.7.4-1.1.3.1-.1.3-.4.5-.5Zm2,.6c0,.2-.1.5-.1.7.6,0,.7-.6.9-1A6.89,6.89,0,0,1,434.2,256.5Zm-5.5,1.4c.3.2.7-.2.6-.5C429,257.2,428.4,257.6,428.7,257.9Zm-16.8.7c.3,0,.9-.2.9-.5C412.5,257.9,412,258.2,411.9,258.6Zm-1,.4c.3.1.9,0,.8-.3S411,258.7,410.9,259Zm-1.5.5a.7.7,0,0,0-.5.4C409,260.4,410.1,259.4,409.4,259.5Zm13.9.4c0,.2-.1.5-.1.6s-.3-.1-.4-.1c.1.6.6.6,1,.4C423.6,260.5,423.5,260.2,423.3,259.9ZM408,261.4c.1,0,.4-.1.5-.1a3,3,0,0,0,.5-.7A7,7,0,0,0,408,261.4Zm13.5.7c.3.3.8-.2.5-.5S421.2,261.8,421.5,262.1Zm-16.7-.3c-.2.3,0,.5.3.3S405.2,261.7,404.8,261.8Zm-2.7.7c.3.1.7-.2.6-.5C402.5,261.9,402,262.2,402.1,262.5Zm3.1,0a.82.82,0,0,0-.5.5C404.9,263.5,406,262.4,405.2,262.5Zm9.9.9c-.1,0-.2-.1-.3-.1a2.65,2.65,0,0,0-.5.6l.6.3c0-.1-.1-.4-.1-.5a2.24,2.24,0,0,0,1.5-.8C415.8,262.9,415.2,262.8,415.1,263.4Zm-7.1.2a9.3,9.3,0,0,1-1.9,1.1c-.3-.1-.5.2-.6.4a4.87,4.87,0,0,1,1.2.1c.6-.3,1.3-.6,1.5-1.3.1-.1.2-.3.3-.3H408c0-.1.1-.3.1-.4C407.7,262.9,407.4,263.8,408,263.6Zm-6.7.1c-1,.4-2,.8-3,1.3a1.07,1.07,0,0,0-.6-.2c.2.1.4.3.6.4a10.44,10.44,0,0,0,2.4-1.1c.4-.3.8-.2,1.3-.2C401.8,263.7,401.6,263.5,401.3,263.7Zm2.2,2.4a14.17,14.17,0,0,0,1.8-.8C404.7,265.2,404.1,265.7,403.5,266.1Zm-5.3-.7c-.6.3.2.6.4.2C398.9,265.4,398.3,265.3,398.2,265.4Zm2.1,1.4a.76.76,0,0,0-.2.4c.4-.2.9-.4,1.3-.6A4.25,4.25,0,0,0,400.3,266.8Zm-1.9.8c-.1.3-.1.4.3.3Q398.85,267.45,398.4,267.6Zm-1.7,1.4c.2,0,.5.1.7.1-.1-.1-.3-.3-.4-.3.1-.4.6-.3.9-.2v-.5A1.53,1.53,0,0,0,396.7,269Zm4.2,1.5a1.45,1.45,0,0,1-.2.7c0,.1.1.3.2.3h-.5c-.1.6.6.2.9.2a3.33,3.33,0,0,1-.3-.6,2.65,2.65,0,0,0,.5-.6Zm-5.2,1.6c.2.3.3.3.5,0C396,271.8,395.8,271.8,395.7,272.1Zm-5.8,1c.3-.1.6-.1.9-.2l-.2-.2.4-.4C390.5,272.3,390.2,272.8,389.9,273.1Zm-3.1,1.9c.1.4.7.2.6-.1S386.7,274.5,386.8,275Zm-6.9,3.1a3.11,3.11,0,0,0-.4.6c.4.1,1.2.4,1.1-.3A4.88,4.88,0,0,1,379.9,278.1Zm2,.3a.22.22,0,1,0,.1.4C382.3,278.8,382.3,278.2,381.9,278.4Z" transform="translate(0.01 0.1)"/>
        <path class="cls-12" d="M481.6,250.2a5.86,5.86,0,0,1,3.2-1.1,13.53,13.53,0,0,0-3.4,1.7c-1.6.7-3.1,1.6-4.7,2.4a28.5,28.5,0,0,1-3,1.6c-.3.1-.2.4-.2.7,1.3-.1,2.4-.8,3.7-1.1-1.3.7-2.7,1.3-4,2a36.21,36.21,0,0,1-4,1.9c-.1.2-.2.6-.3.8.3-.2.7-.4,1-.6v.3c-.7.3-1.8,1.2-2.3.3a14.79,14.79,0,0,0-3.5,1.9,38.79,38.79,0,0,1,3.6-1.5,4.62,4.62,0,0,1-.7.7,6.63,6.63,0,0,0-1.9.9,12,12,0,0,0-2.3,1.1,8.34,8.34,0,0,0-1.2.8,17.9,17.9,0,0,0-4.5,1.9,12.47,12.47,0,0,0-2.8,1.5c1.5-.4,2.8-1.6,4.4-1.7.6-.9,1.8-.8,2.8-1.1-.1.2-.3.5-.4.7.5-.6.9-1.3,1.7-1.4-.2.3-.3.5-.5.8a.76.76,0,0,1,.4-.2,4.18,4.18,0,0,1,.4-1c.5-.1.9.2,1.4.2a3.92,3.92,0,0,0,1-.8h.6a16.18,16.18,0,0,0,1.8-1,4.33,4.33,0,0,0,.5-.1,5.55,5.55,0,0,0-.8.6c-.5.3-1,.5-1.4.8a1.33,1.33,0,0,1-1,.6l.3.3a1.06,1.06,0,0,0-.5.2,2,2,0,0,1-1.1.2v.3c-.3-.1-.7-.2-.8.2a6,6,0,0,1-.8.8c-.1,0-.2-.1-.3-.1s-.2.1-.3.1c-.3.1-.7.1-1,.2a.76.76,0,0,0-.2.5c-.2.1-.5.3-.7.4,0,.1-.1.2-.1.3a.76.76,0,0,1-.2.4c-.4,0-.8.1-1.3.1.1-.1.3-.4.4-.5a2.19,2.19,0,0,0-.5.3,3.81,3.81,0,0,0-1,.3,12.68,12.68,0,0,0-2.3,1.2c0,.1-.1.3-.1.4a22.45,22.45,0,0,0-2.7,1.3c-.1,0-.3.1-.4.1.2.4-.1.7-.5.9l.4-.8a3.13,3.13,0,0,0-1,.5,4.88,4.88,0,0,0-.7.3c.2,0,.5-.1.7-.1a9.74,9.74,0,0,1-.5,1.1,1.06,1.06,0,0,0,.5-.2,2.22,2.22,0,0,1,.3,1.6c-.1.5-.4.2-.4-.2a1.76,1.76,0,0,0-.4.5,3.51,3.51,0,0,0-.8.5,4.87,4.87,0,0,1-1.2-.1,6.12,6.12,0,0,0-.5-1.2c-.3.2-.5.4-.8.6a1.16,1.16,0,0,0-.7.5c-.2,0-.4.1-.6.1a4.05,4.05,0,0,1-.9.5,35.39,35.39,0,0,0-3.4,1.6c-.5.2-.7.8-1.2.9-1,.3-1.9.5-2.9.8-.8.5-1.7.9-2.5,1.4-.2.5.4,1.3-.2,1.5l-.6-.9c.3-.1.8,0,.8-.5a1.85,1.85,0,0,1-.7.2.91.91,0,0,0-.3-.7c.1-.1.4-.2.5-.3a2.63,2.63,0,0,0-1.5.7c.2-.1.4-.1.6-.2.1.1.3.2.4.3l-1.1.8c-.2-.3-.4-.5-.6-.8a24.16,24.16,0,0,1-7.7,3.4c-.7.1-1.3,1.2-2.1.7a.6.6,0,0,0,.1.4c-.6-.4-.8.6-1.4.4l-.1.1c-.1,0-.2.1-.3.2v.3c-.5-.2-.8.1-1.1.5a6.7,6.7,0,0,0,1.8-.7c.4-.1,1-.2,1.2-.7a11.47,11.47,0,0,0,3.1-1.1c0,.1.1.2.1.3a37.3,37.3,0,0,0-6.3,3.2c-.8.4-1.6.7-2.4,1.1-.6.4-1.2,1-2,.8-.2-.6.6-.6.9-.9.2-.1.5-.3.7-.4a1.7,1.7,0,0,0-.7.1c-.1-.1-.1-.3-.2-.4-.2-.3-.3-.6-.5-.9.9-.5,1.7-1.1,2.6-1.7.1-.1.2-.2.2-.3-.7.6-1.7.7-2.3,1.5-.2-.1-.3-.2-.5-.3a12.37,12.37,0,0,1-3.3,1.5c-.1-.1-.2-.3-.3-.4a3.61,3.61,0,0,1-1.5.8c.1.1.3.4.4.5h-.6a2.09,2.09,0,0,0,.4.6c-.1.2-.2.3-.3.5,0-.2-.1-.5-.1-.7a3.14,3.14,0,0,0-1.6.6h.7c-.2.4-.6.3-1,.5a18.94,18.94,0,0,0-2.1.9,6,6,0,0,1,.8-.8h-.8c-.2.2-.4.3-.6.5-.1,0-.2-.1-.3-.1-.6.6-1.7.4-2.1,1.3a6.89,6.89,0,0,0,.8-.3,5,5,0,0,1,1.2.2,2.19,2.19,0,0,1,.3-.5c.4.1.7.1,1.1.2-.7.2-1.4.8-2.1.3.2.8-.8.7-1.3.9l-.3-.6-.1-.1a1.06,1.06,0,0,0-.5.2l-.9.3a3.33,3.33,0,0,1,.6.3c-.2.1-.5.2-.7.3l-.3-.3a1.94,1.94,0,0,1,1.1-.9c1-.4,1.8-.9,2.8-1.2l.2-.3a20.29,20.29,0,0,0-2.6,1.1c0-.2.1-.5.1-.7a4.25,4.25,0,0,0,1.1-.2c-.5-.5-1.3-.2-1.9-.2a1.85,1.85,0,0,1-.2.7c-.1-.1-.2-.4-.3-.5v.5l-1.5.6a1.69,1.69,0,0,0,.2-.5c-.7,0-1,.6-1.4,1l.4.1c-.4.4-.8.2-1.2-.1a1.83,1.83,0,0,0-1,.7,3,3,0,0,1,1-.2,3.18,3.18,0,0,1-.9.3c.1.4-.2.6-.5.7.1-.1.3-.3.3-.4a1.85,1.85,0,0,0-.2-.7,2,2,0,0,1-1.5.5c.1.1.2.3.3.4a20.71,20.71,0,0,1-2.4,1.7c-1.4.3-2.5,1.4-4,1.6a6.7,6.7,0,0,1,1.8-1.1,10.56,10.56,0,0,0-1.9.6c-1.4.4-2.8.9-4.2,1.3a18.77,18.77,0,0,1,3-1.2c1.1-.5,2.2-.7,3.3-1.3a5.91,5.91,0,0,1,1.4-.6c-.3-.2-.6-.5-.9-.4a3.1,3.1,0,0,0,1.3-.6c.3,0,.5-.1.8-.1a1.42,1.42,0,0,1,.6-.2,11.73,11.73,0,0,0,1.1-.5c-.3-.1-.7-.5-1-.1a.76.76,0,0,1-.2.4h-.1c0-.1-.1-.2-.2-.3l-.1-.2c-.1,0-.3-.1-.4-.1.2-.1.5-.2.7-.3.7.5,1.2-.4,1.9-.3l.1.1c-.2.1-.5.2-.7.3a1.7,1.7,0,0,0,.1.7c.4-.3.7-.7,1.1-1l1.3-.3a4.05,4.05,0,0,0,.9-.5.76.76,0,0,0,.2-.4l.3-.5-.6.3v-.2l2.7-1.5c0-.1.1-.2.2-.3v-.1a9.5,9.5,0,0,0,3.3-1.3,4.8,4.8,0,0,1-1.7.5c-.1-.3-.1-.5-.2-.8,0-.6.8-.7,1.1-1.1h.5a2.18,2.18,0,0,1,.4-.5,2.83,2.83,0,0,0-2.5.6,4.87,4.87,0,0,1,1.2.1.76.76,0,0,1-.4.2,4.18,4.18,0,0,0-1,.4l-.3.1a1.07,1.07,0,0,1,.2-.6c-.3.3-.7.5-1,.8-.1.1-.3.1-.4.2l-1.7.3c1.2-.6,2.5-1.2,3.7-1.9.6-.5,1.5-.4,2.2-.8l-.5-.1,1.2-.6c0,.1.1.3.1.4,0-.1.1-.2.2-.3a11.37,11.37,0,0,0,3-1.3,2.84,2.84,0,0,1,1.2-.4l-.1-.1a14.39,14.39,0,0,0-3.6,1.5l.1-.5a1.58,1.58,0,0,1-.7.7c-.1,0-.3-.1-.3-.2a2.54,2.54,0,0,1-1.2.2c-.1.3-.2.5-.3.8a2.92,2.92,0,0,1-.2-.9,16.32,16.32,0,0,1-1.9.9c.2.1.3.3.5.4-.9-.4-1.6.3-2.4.4,1-.6,2-1,3-1.5a1.72,1.72,0,0,1,1.2-.2.75.75,0,0,1,.7-.4c.1-.1.1-.3.2-.4,0,.1.1.3.1.4.2,0,.5-.1.7-.1s.4-.3.6-.4l-.4-.4c.1-.1.3-.2.4-.3,0,.2.1.5.1.7l.3-.2a.76.76,0,0,1-.2-.4c1.1-.6,2.5-.8,3.2-1.9.8-.5,1.6-.9,2.4-1.3a1.21,1.21,0,0,0-.8,1.2,5.64,5.64,0,0,1,1.2-.4l.3-.3c.6.2.8-.6.9-1,0,.2-.1.6-.1.7.5-.3,1.1-.6,1.6-.9H414c.1-.1.3-.4.4-.5l.5.5c.2-.2.5-.4.7-.6-.2-.2-.4-.5-.6-.7a4.25,4.25,0,0,0,1.1.2c-.1.1-.3.4-.5.5a5.67,5.67,0,0,0,1.3-.8,4.1,4.1,0,0,1,1.1.1l.4-.4a1.16,1.16,0,0,0,1.2-.8c.7.6,1-.6,1.7-.6a7.72,7.72,0,0,0,1.5-.2.76.76,0,0,0-.4-.2,1.06,1.06,0,0,1,.5-.2c0-.4.3-.6.5-.1,0-.3-.1-.6-.1-.9.3,0,.7-.1,1-.1a3.08,3.08,0,0,1,1.2-.5c.1-.3.1-.5.2-.8.3,0,.7.2.9-.2l-.5.2c.1-.3,0-.8.4-1v.6c.3-.1.6-.1.9-.2-.1-.3-.5-.5-.3-.8.1-.1.4-.2.5-.3-.1-.1-.2-.3-.3-.3a1.06,1.06,0,0,0,.5.2.91.91,0,0,1,.3-.7,5.46,5.46,0,0,1,1.8-.6c-.1.1-.4.3-.5.4a1.43,1.43,0,0,1,1.1.3c-.1.2-.1.4-.2.6h.3v-.7a5.94,5.94,0,0,1,.8.4c0,.1-.1.4-.1.5a9.38,9.38,0,0,1,1.2-.9c.5-.2,1-.4,1.6-.6a.76.76,0,0,0-.2-.4c.3-.2.6-.3.9-.5l.6-.3a2.09,2.09,0,0,1-.6-.4,6.12,6.12,0,0,0,1.7-.7,2,2,0,0,1-1.1-.3,4.25,4.25,0,0,1,1.1-.2.76.76,0,0,0-.2-.4,8,8,0,0,0,2.1-.5,1.22,1.22,0,0,0-.9-.4l.9-.3a1,1,0,0,0,1.1.3c-.2-.3-.5-.5-.7-.8a.71.71,0,0,1,.6.3c.2.1.3.3.5.4.2-.1.3-.3.5-.4s.2-.3.3-.5c-.2-.2-.3-.4-.5-.5.1,0,.4-.1.5-.1s.6-.1.8-.1v.8a10.46,10.46,0,0,0,2.3-1.3,1.7,1.7,0,0,0,.7-.1c.6-.3,1.1-.6,1.7-.9-.4.1-.8.2-1.1.3-.1-.3-.1-.5-.2-.8a3,3,0,0,0,.8-.4,2.18,2.18,0,0,1-.5-.8c.4,0,.5.3.4.6.3,0,.7-.1,1-.1a1,1,0,0,0,.1.3c1.1-.8,2.6-1,3.6-2a6.71,6.71,0,0,1-1.5.6c.5-.7,1.6-.7,2.2-1.3a5.9,5.9,0,0,0-1.4.2c.4-.1.9-.3,1.4-.4a.76.76,0,0,0,.4.2c.4-.2.9-.5,1.3-.7a3.17,3.17,0,0,1-.5.6,2.62,2.62,0,0,0,1.3-.6h0l-.2-.3c.2,0,.5-.1.7-.1s.3-.2.4-.3c.1.1.3.2.4.3.9-.5,1.8-.8,2.7-1.3a14.47,14.47,0,0,0,2.5-1c0-.1-.1-.4-.1-.5a.76.76,0,0,0,.5.2c.1-.5.6-.9,1-.6-.2.1-.5.3-.7.4a.84.84,0,0,0,.7-.4,1.58,1.58,0,0,1,1.6-.6c.1,0,.2.1.3.1a6,6,0,0,0-.8.8,1.39,1.39,0,0,0-1.1.2,1.42,1.42,0,0,0,.6.2c.1.3.3.6.4.9-.1.1-.2.4-.3.5a1.34,1.34,0,0,0,.6-.7.76.76,0,0,1,.4.2c.3-.2.6-.5.9-.7a.76.76,0,0,1,.4-.2c.5-.3.9-.6,1.4-.9a3.3,3.3,0,0,0,1.4,0,3.33,3.33,0,0,1-.3-.6.78.78,0,0,1-.2-.8,4.67,4.67,0,0,1,.5,1l.6.3c1,.2,1.6-.9,2.5-1.1-.1.3-.3.6-.4.9a1.09,1.09,0,0,0,1-.7,1.85,1.85,0,0,1-.2.7c.6-.3,1.2-.6,1.9-.9.1-.2.1-.4.2-.6v.5c.9-.4,1.7-.9,2.6-1.3-1.5.9-3.1,1.7-4.6,2.6-.1.1-.2.3-.3.4h.8a3.51,3.51,0,0,0-1.4.6c-.5.5-1.5.3-1.7,1.1a.76.76,0,0,0-.2.4c.2-.2.3-.4.5-.6a18,18,0,0,0,2.2-.6c.5-.7,1.4-.8,2.1-1.1a7.84,7.84,0,0,0-1.5,1c.6.6,1.5-.6,2.3-.2l-.1-.3c.2,0,.5.1.8.1-2,1.2-4.3,2-6.1,3.5-.7-.1-1.3.5-2,.8.6-.3,1.4-.2,2-.6,1.7-1,3.4-1.9,5.1-2.9a41.11,41.11,0,0,0,4.2-2.1c.6-.4,1.4-.5,2-.9a8.65,8.65,0,0,1,1.7-.7c-1.1.5-2.1,1.2-3.3,1.8s-2.2,1.1-3.3,1.8a3.29,3.29,0,0,0,1.6-.7c1.1-.7,2.3-1.1,3.4-1.8C480.2,250.7,481,250.6,481.6,250.2ZM469,252.9c-.3.1-.3.3,0,.4C469.3,253.2,469.3,253,469,252.9Zm-16.9,4.3c-.2,0-.6.3-.3.4S452.7,257.1,452.1,257.2Zm14.5.3c-.3.3.3.4.4.2C467.4,257.4,466.8,257.2,466.6,257.5Zm-17.5,1.6h1.1v-.5c.1-.1.2-.3.3-.4A8,8,0,0,1,449.1,259.1Zm-1.4.2c.3-.1.6-.2,1-.3,0,.1.1.4.1.5v-.9A4.13,4.13,0,0,0,447.7,259.3Zm-2.5.3c.2.1.7-.1.6-.4C445.7,259.2,445.2,259.3,445.2,259.6Zm2,.7c-.1,0-.4-.1-.5-.1-.3.2.2.4.3.7a2.93,2.93,0,0,1-1,.3c0-.2-.1-.5-.1-.7a5.49,5.49,0,0,0-2.1,1.2c.4-.2.8-.3,1.3-.5.2.3,0,.6-.2.9h.5c-.1-.5.1-.8.6-.7l-.2.3a4.34,4.34,0,0,0,1.7-1.2,1.06,1.06,0,0,0,.5-.2h-.8a9.13,9.13,0,0,1,1.3-.8C448,259.6,447.2,259.6,447.2,260.3Zm-6.3,2.3c-.4.1-.3.6.1.4S441.2,262.4,440.9,262.6Zm-.5.7c-.1.4,0,.5.4.4C440.9,263.3,440.7,263.2,440.4,263.3Zm7.7,8.9c.2,0,.5,0,.6.1a.76.76,0,0,1-.2-.4,2.29,2.29,0,0,0,.7-1C448.8,271.4,448.4,271.8,448.1,272.2Zm-24.6-.6q-.15.45.3.3Q423.95,271.45,423.5,271.6Zm-2.9,2.6a3.72,3.72,0,0,0,1.9-.9A3.75,3.75,0,0,0,420.6,274.2Zm-.6.1c-.1.3,0,.5.4.4C420.5,274.3,420.3,274.1,420,274.3Zm-.7.2c-.1.3,0,.5.4.3C419.8,274.5,419.7,274.4,419.3,274.5Zm-1.1.6c-.3.3.3.4.4.2C419,275.1,418.4,274.9,418.2,275.1Zm-5.6,2.7c0,.3.5.3.7.1C413.3,277.7,412.7,277.7,412.6,277.8Zm-3.1.4-.3.3C409.5,279.1,410.4,278,409.5,278.2Zm14.7,1.5c.5-.2,1-.5,1.6-.8C425.2,279.1,424.4,279.1,424.2,279.7Zm-.8.4c.2.1.8-.1.6-.4A.39.39,0,0,0,423.4,280.1Zm-5.6,3.7a3.46,3.46,0,0,0,1.6-.8A3.46,3.46,0,0,0,417.8,283.8Zm-15.5,1a4.72,4.72,0,0,0,2-1C403.6,284.2,402.8,284.3,402.3,284.8Zm16,.6c.3.1.7-.3.5-.5S418,285.1,418.3,285.4Zm-1.3.3c-.1.1-.4.2-.5.3-.2.3.3.2.4.1s.6-.2.6-.4Zm-8.1.8v.6c.4-.2.8-.4.9-.9C409.5,286.4,409.3,286.6,408.9,286.5Zm-7.8-.2c-.3.2-.3.3,0,.4C401.4,286.6,401.4,286.5,401.1,286.3Zm7,.5c0,.1-.1.4-.1.5-.2,0-.4-.1-.6-.1l.1.3a2.38,2.38,0,0,0-2.1.7c.3-.1.7-.3,1-.4.2.1.4.3.6.4.1-.2.3-.4.4-.6.2,0,.5-.1.7-.1A1.63,1.63,0,0,0,408.1,286.8Zm-8.5.4a.46.46,0,0,0-.3.7C399.7,288.1,400,287.3,399.6,287.2Zm3,.3c.1.4,1.1,0,.6-.3A.42.42,0,0,0,402.6,287.5Z" transform="translate(0.01 0.1)"/>
        <path class="cls-12" d="M481.3,272a10.56,10.56,0,0,0,1.9-.6,5.5,5.5,0,0,1-.7.9h-.4a2.35,2.35,0,0,0,.8.2.76.76,0,0,1-.2.4c-.1,0-.4.1-.6.1a.76.76,0,0,0-.4-.2.71.71,0,0,1,.3.6,10.93,10.93,0,0,1,1.5-.8c-.6-.3,0-.5.3-.6a2,2,0,0,0,1.3-.1c-.4.5-1.2.5-1.4,1.1-.6.3-1.3.5-1.9.8a2.09,2.09,0,0,1-.4.6c-.2,0-.5.1-.7.1-.2.2,0,.5.1.8a1.07,1.07,0,0,0-.2-.6c.4,0,.6.3.7.7.2,0,.5-.1.7-.1v.2c-.2,0-.5,0-.6-.1l-1.1.8c0-.3-.1-.5-.1-.8-.8-.3-1.5.3-2.2.7a2.54,2.54,0,0,0,1.2-.2,2.85,2.85,0,0,0-.8,1.4c-.2.2-.3.4-.5.6h-.7a3.36,3.36,0,0,1-.9,1.5c0,.2.1.4.1.6-.1-.1-.3-.2-.4-.3-.6-.1-1.6.2-1.8-.6-1.4.4-2.6,1.2-4,1.5-.4.2-.9.3-1.1.7-.3.1-.7.3-1,.4a1.85,1.85,0,0,0-.7-.2c0,.3-.1.6-.1.8a2.1,2.1,0,0,1-1.1-.4c-.9.7-2,1.2-2.9,1.9a2.7,2.7,0,0,0-1.1.5c-1,.8-2.4.9-3.5,1.5l.4.2a6.72,6.72,0,0,0-1.2.6,1.33,1.33,0,0,1-.6,1,1.78,1.78,0,0,0,1,.4c.1-.1.3-.3.3-.4a3.55,3.55,0,0,0,1-.2c0-.2-.1-.5-.1-.7.2,0,.4-.1.6-.1s.5-.2.7-.3a2.18,2.18,0,0,0,.4.5c-.3.1-.6.4-.9.2-.6-.3-.7.5-.8.8a3.35,3.35,0,0,1-1,0v.7c-.2,0-.5.1-.6.1-.2-.2-.4-.5-.6-.7-.3.1-.6.3-.9.4.1.1.3.2.4.3-.1.1-.2.3-.3.4a9.7,9.7,0,0,1-1.7-.1c0,.3-.1.6-.1.9l-.5-.5a5,5,0,0,1-.7.8,1.44,1.44,0,0,1-.2-.3c-.3,0-.8.4-.8-.1l.4.2.5-.5c-.6-.8-1.3.2-1.8.4.2.1.4.3.6.4-.2.1-.5.3-.7.4,0-.2.1-.5.1-.6a1.09,1.09,0,0,0-.8.8c.1.1.4.2.5.3-.3,0-.6-.1-.9-.1a3,3,0,0,0-.5,1.3c-.2.1-.3.2-.5.3h.6v.5c.1,0,.3-.1.4-.1-.1-.2-.4-.5-.5-.7.4.1,1.1.4.7.9-.1.3-.3.5-.4.8a3.17,3.17,0,0,0,.6.5c-.5.2-.7-.4-1.1-.6-.3,0-.4.1-.3.4a1.07,1.07,0,0,1,.6.2c.1.3.1.5.2.8-.5,0-1,.1-1.5.1.2.5-.3.6-.6.7a2.07,2.07,0,0,0-.2-.6l.3-.6a1.33,1.33,0,0,1-.5.3,1.7,1.7,0,0,1-.1-.7,6.6,6.6,0,0,1,.1-1.4h-.8l.2.4h-1.3c.1.1.3.2.4.3,0,.3-.1.5-.1.8a1,1,0,0,1-.7-.7.91.91,0,0,0,.1,1.1c-.2.1-.5.2-.7.3-.1-.1-.3-.2-.4-.3a1.44,1.44,0,0,1-.3.2c-.4-.1-.1-.4-.1-.7-.2.2-.5.4-.6.7.4.1.9.2,1.4.3l.3.9c-.4,0-.8.1-1.2.1v-.4h-.3c.1.3.2.7.3,1.1-.6.3-.7,1-1.1,1.4-.3.1-.6.1-.8.2l-.1-.4a5.58,5.58,0,0,0-.8.5,5.5,5.5,0,0,0-.9-.7c-.1-.3-.4-.4-.6-.6a5.73,5.73,0,0,0-1.9,1c-.2-.2-.3-.4-.5-.6l.4-.4a2.18,2.18,0,0,1-.4-.5h.7a2.35,2.35,0,0,1,.2-.8c.4-.1.9-.1,1-.6a5.26,5.26,0,0,0-1.7.4c0,.4.2.9-.4.8a2.77,2.77,0,0,1-.1.9c-.4-.2-.8-.3-1.2-.5.2.2.4.3.6.5-.5.2-1,.6-1.5.5-.1.3-.7.4-.6,0V298H433l.4.4a2.19,2.19,0,0,1-.5.3c.2.2.4.5.6.7-.4,0-.8.1-1.2.1.1.1.2.3.3.4-.2.7-1,.6-1.3,1.1.2,0,.6-.1.8-.1a2.18,2.18,0,0,0-.8.5c-.2-.1-.3-.2-.5-.3v.3h.5c0,.2-.1.6-.1.8a3.55,3.55,0,0,0,1,.2c.2.2.3.4.5.5a3.51,3.51,0,0,0,.8-.5l.6.3c-.2,0-.5.1-.7.1a12,12,0,0,0-1.1,1.2c.1.3.1.6.2.9-.2-.1-.4-.3-.6-.4-.2.2-.4.3-.6.5-.4-.3-.4-.8-.5-1.2.2-.1.5-.1.8-.2-.2-.1-.3-.2-.5-.3-.2.1-.3.3-.5.4-.2-.9.7-.8,1.2-.6V303a2.25,2.25,0,0,0-2.1.3v.6c-.1.1-.3.3-.3.4h-.6l.1-.3h-.5c-.1.4.2,1-.3,1.2l.1-.3.2-.3c-.4-.4-.8-.2-1.2.1a1.06,1.06,0,0,1,.5.2l.2.1c-.4.7-1.2.2-1.5-.3a3.58,3.58,0,0,1-1.1-.4.78.78,0,0,0-.8-.2,4.33,4.33,0,0,1,.1.5l.1.3c-.5-.1-1-.1-1.4-.2a6.89,6.89,0,0,1,.8-.3.76.76,0,0,0-.9-.3l.3-.6c-.1,0-.4.2-.5.2s-.3-.2-.4-.3a1.63,1.63,0,0,1-1.3,1.1.76.76,0,0,1-.2-.4,2.72,2.72,0,0,1-1.6.8h.8a1.26,1.26,0,0,1-.3,1.3c-.1-.2-.2-.6-.3-.8h-.6a2.34,2.34,0,0,0,.7.7,1.27,1.27,0,0,0,.1.6c-.3.1-.6.3-.9.4a3.33,3.33,0,0,1-.6,1c-.1-.1-.4-.2-.5-.3-.6.3-.1,1-.3,1.5-.2.2-.4.3-.6.5s-.2.5-.5.6c.1-.2.4-.5.5-.7a13.4,13.4,0,0,0-2,.1,1.76,1.76,0,0,0-.4-.5c-.2.2-.5.4-.7.6a2.77,2.77,0,0,0-1.3.3v.4H412c-.1.3-.1.7-.5.7-.7-.7-1.7-.6-2.6-.7s-1.8.6-2.7.2c0,.1-.1.4-.1.6h-.8v-1.1a2.38,2.38,0,0,1-1.1.6c-1.8.7-3.5,1.6-5.3,2.3.8-.7,2-.8,2.5-1.9-.8.4-1.7.8-2.5,1.2-1.2.7-2.6,1-3.9,1.6-.3-.1-.5-.1-.8-.2,1.3-.5,2.7-.6,3.8-1.4.5-.3,1-.5,1.5-.8l-.1-.1a2.35,2.35,0,0,0-.8.2,3.55,3.55,0,0,1,.9-.4c.3-.2.7-.8,1-.4a1.06,1.06,0,0,1-.2.5c.3-.4.5-.8,1-1a.6.6,0,0,0,.1.4v-.3c.6-.1,1.6-.2,1.7-1a13.06,13.06,0,0,0-2.1.8c-1.5.5-2.9,1.2-4.4,1.6a14.58,14.58,0,0,1-1.9.7,58.77,58.77,0,0,1,6.2-2.9c1-.6,2.3-.8,3.3-1.4a.76.76,0,0,0,.2-.4,1.06,1.06,0,0,0,.5.2v-.5c1,.4,1.9-.5,2.8-.8.4-.4,1.2-.6,1.1-1.4h.3a.76.76,0,0,1-.2-.4c.2-.1.4-.3.6-.4-.5,0-1.3.3-1.4-.4a5.51,5.51,0,0,0-2.5,1c-.5.3-.9.9-1.6.8a1.61,1.61,0,0,1,.7-.4l-.5-.5c.1-.2.2-.5.3-.7.2.3.4.5.6.8a6.37,6.37,0,0,1-.2-.7,2.65,2.65,0,0,1-.5-.6v-.5a13.07,13.07,0,0,0,1.1-1.2v1l.6.3a1.06,1.06,0,0,0-.2-.5l-.2.1a2.2,2.2,0,0,0-.1-.8,3.17,3.17,0,0,0,.6.5c.2,0,.3-.1.5-.1,0-.1-.1-.3-.1-.4a.76.76,0,0,0,.4-.2c.4.1.9.3,1-.2h.1c.1,0,.3.1.4.1a4.35,4.35,0,0,1,.7-.4l-.4-.4c.1-.2.3-.3.4-.5v.5h.2c.2,0,.6-.1.7-.1s.3.3.4.3a3.11,3.11,0,0,0-.4-.6c.2-.1.7-.2,1-.3,0,.1.1.4.1.6l.3-1.2.6-.3c.2,0,.5,0,.6-.1-.1-.1-.4-.3-.5-.4a.67.67,0,0,1,.8.3,3.33,3.33,0,0,1,.1-1.4,1.85,1.85,0,0,0,1.2-.7.37.37,0,0,1,.3.1c.2-.1.4-.3.6-.4a12.75,12.75,0,0,0,2.7-1.1,2.1,2.1,0,0,0,1.1-.4v.6l.4-.4c.1.1.2.2.2.3a.83.83,0,0,1,1-.5c-.1-.1-.4-.2-.5-.3a.84.84,0,0,1,1.4-.1l.2-.2a3.09,3.09,0,0,0-.8-.2c.1-.1.3-.4.4-.5.3,0,.6.1.9.1a6.91,6.91,0,0,1,2.5-1l-.3-.3a2.07,2.07,0,0,1,.2-.6c-.3.1-.5.3-.8.2l-.3.1c.2-.4.7-.5,1.1-.7l.1.4a6.75,6.75,0,0,1,1.4-.2,9,9,0,0,0,.9-1c-.2,0-.6-.1-.8-.1.1-.1.2-.2.3-.2a1.23,1.23,0,0,0,.1-1.3,1.34,1.34,0,0,1-.7.6c.1.1.4.2.5.3a4.18,4.18,0,0,1-1-.4,8.65,8.65,0,0,1,1-.7,2.09,2.09,0,0,1,.6.4c.2-.1.4-.3.6-.4l.5-.5a1.14,1.14,0,0,0-.3.6c.4,0,.7-.1,1.1-.1h.2l-.3.3,1-.3c.4-.1.8-.3,1.2-.4l-.6.9c.3-.1.5-.1.8-.2a.37.37,0,0,1,.1-.3l.4-.4c-.1.6.5.8.9.8.1-.3-.1-.5-.2-.8-.2,0-.5-.1-.6-.1.2-.1.5-.2.7-.3.1.3.1.7.2,1a6.89,6.89,0,0,0,.3-.8c.3,0,.6.1.9.1.1.2.1.5.2.7h.5a1.06,1.06,0,0,0-.5-.2l.3-.6c.1.1.3.2.4.3a3,3,0,0,1,.7-.5l-.9-.6c0,.2-.1.5-.1.6-.3-.1-.6-.2-.7-.5.3-.1.7-.2,1.1-.3a.76.76,0,0,0-.2-.4l.3-.1v.5l.5-.1c-.2-.3-.8-.7-.5-1.1a16,16,0,0,0,2.3-1,2,2,0,0,1,1.3-.2,4.35,4.35,0,0,1,.7-.6c.1.3.1.5.2.8a14.62,14.62,0,0,1,2,.5c.2-.1.3-.2.5-.2a5.08,5.08,0,0,1-1.7-.3c0-.2.1-.4.1-.7h.5a1,1,0,0,1,.5-.6l.4.4h-.5l1.2.3c-.1-.1-.3-.2-.4-.3a4.35,4.35,0,0,0-.4-.7c.7-.2.8.6,1.1,1a.9.9,0,0,0,.1-1h.4c0,.1-.1.3-.1.4.2,0,.6-.1.8-.1a1.06,1.06,0,0,1-.2-.5c.4.4,1,.1,1.4,0l.3.2c0-.1.1-.3.1-.4.3.1.7,0,1,.3.1,0,.3-.1.4-.1-.1-.1-.1-.3-.2-.4.2,0,.5.1.7.1a3.11,3.11,0,0,0-.4-.6,2.41,2.41,0,0,1,.8.6c.2-.1.3-.1.5-.2-.4.1-.5-.3-.6-.6l.9-.3c-.1-.2-.3-.3-.4-.5.4.1.6.1.8-.3l.4.1a2.07,2.07,0,0,0-.2-.6c1,0,1.5-.8,2.2-1.4.1,0,.3-.1.4-.1a2.09,2.09,0,0,1-.4.6,3.3,3.3,0,0,1,0,1.4c-.7-.2-.1-.7,0-1.1-.3.1-.5.1-.8.2.2.3.4.7.6,1a14.93,14.93,0,0,0-1.4,1.2,1.78,1.78,0,0,1,1-.4.76.76,0,0,1,.2-.4l.4-.4c.8-.1.5-.9.4-1.5a8.6,8.6,0,0,0,1.6-.1,2.07,2.07,0,0,1-.2.6h.2a5,5,0,0,0,.2-1.2c.2.1.3.1.5.2-.1.2-.1.4-.2.6a1.06,1.06,0,0,1,.5-.2,1.06,1.06,0,0,0,.2.5c.1.4-.4.4-.7.6l1-.3c.1.1.3.3.4.3a4.88,4.88,0,0,1-.3-.7,3.18,3.18,0,0,1,.3-.9c.3.1.5.2.6.5h.9a1,1,0,0,0-.7-.4,3.59,3.59,0,0,1,1-.7v-.6c.1,0,.4.1.5.1a10.59,10.59,0,0,0,1.2-1c.1,0,.2.1.3.1a1,1,0,0,1,.9-.2c-.1.7-.8.5-1.3.5a1.69,1.69,0,0,1,.5.2c.4-.2,1.2-.1,1.2-.7l1.8-.3v.3a5,5,0,0,1,1.3-.5c.1-.2.1-.4.2-.6a1.49,1.49,0,0,0,.1.6c.7-.2,1.1-.9,1.9-1.1a2.09,2.09,0,0,1,1.3-.7.93.93,0,0,0,.3-1.2h.4a1.21,1.21,0,0,0,.5.5,3,3,0,0,1-.4-1c.3.3.6,0,.8-.2a4.1,4.1,0,0,1-1.1-.1,6.1,6.1,0,0,0,1.5-1.3.91.91,0,0,1,.4.8,3.75,3.75,0,0,1-1-.1c.1.1.2.4.3.5,0,.3-.1.6-.1.9h.5c-.3.3-.6.5-.9.8a4.71,4.71,0,0,0,1.6.4,2.07,2.07,0,0,0,.2.6,7.49,7.49,0,0,1-1.6-.4,1.58,1.58,0,0,1-.7.7,1.42,1.42,0,0,0,.6.2c.2.1.3.2.5.3,0-.2-.1-.6-.1-.8l.6.1a1.07,1.07,0,0,0-.2.6,1.05,1.05,0,0,1,.9-.5c0,.2-.1.5-.1.6l.2-.2c.1-.3.2-.5.3-.8a3.08,3.08,0,0,0,1,.1c0,.1.1.2.1.3a5.91,5.91,0,0,0,1.4-.6l-.3-.6c.4,0,.3.3.3.6a8.8,8.8,0,0,0,1.5-.5c1.1-.7,2.5-.9,3.7-1.5.3-.2.5-.5.8-.7a2.35,2.35,0,0,0-.2.8h.8a5.57,5.57,0,0,1,.9-1.9C480.5,272.4,480.9,272,481.3,272Zm-15.7,4.8h.9c0,.4-.3.6-.6.9.1.2.1.4.2.6a1.67,1.67,0,0,0,1.1-.9,1.33,1.33,0,0,1-.5.3,3.18,3.18,0,0,1-.2-1.4A1.93,1.93,0,0,0,465.6,276.8Zm11.7-.3c-.1.4,0,.5.4.4C477.8,276.5,477.7,276.4,477.3,276.5Zm-9.4,4.9a2.2,2.2,0,0,0,.8-.1c.1-.3.1-.6.2-.9A2,2,0,0,0,467.9,281.4Zm-8.8,3.2a6.75,6.75,0,0,0,1.4-.2.76.76,0,0,0,.2-.4C460.1,284.2,459.6,284.4,459.1,284.6ZM436.3,287c-.5.2.5.9.6.4C436.8,287.1,436.5,286.9,436.3,287Zm16.9,1.5v.3c.6.1,1.6.1,1.8-.7A1.92,1.92,0,0,1,453.2,288.5Zm-20.1.8c-.2.2-.1.8.3.6S433.4,289.1,433.1,289.3Zm-4.9.6q-.15.45.3.3Q428.65,289.6,428.2,289.9Zm6.3,1.3a2.93,2.93,0,0,0,1-.3l.3.3c-.1-.2-.3-.4-.4-.6C435.1,290.7,434.6,290.8,434.5,291.2Zm14.8,1.8c-.1.3,0,.4.3.4C449.7,293,449.6,292.9,449.3,293Zm-28.2,2.8q-.15.45.3.3Q421.55,295.65,421.1,295.8Zm-1.6.9a1.5,1.5,0,0,0,1.5-.6A4,4,0,0,0,419.5,296.7Zm-5,2.9a5,5,0,0,0,1.2-.8A2.33,2.33,0,0,0,414.5,299.6Zm16,2.2c-.3.1-.6.4-.5.7C430.3,302.7,431.2,301.7,430.5,301.8Zm-6.1,1.1h-.6a2.2,2.2,0,0,0,.1.8,8.53,8.53,0,0,0,1.6,0c-.2-.1-.3-.3-.5-.4a1.56,1.56,0,0,1,.8-.6c0-.1-.1-.2-.1-.3A1.23,1.23,0,0,0,424.4,302.9Zm-3.7.9c.4,0,1-.1,1.1-.6A10.91,10.91,0,0,0,420.7,303.8Zm-11.4.6c.2,0,.5-.1.7-.1a2.72,2.72,0,0,0,0,.9c0,.3.4.2.7.3l.3-.3c0-.4.1-.7.5-.8-.4.1-.8.2-1.1.3-.3-.5.6-.7.4-1.2C410,302.7,409.2,303.8,409.3,304.4Zm2.1-.7c-.3.1-.3.3,0,.4C411.7,304,411.7,303.8,411.4,303.7Zm-2.1,1.6c.3.1.4,0,.4-.3C409.4,304.9,409.2,305,409.3,305.3Zm8,1.1c0,.2,0,.5.1.6h-.5c0-.1.1-.4.1-.5a1.06,1.06,0,0,0-.5.2c.3.7,1.1.4,1.7.5v-.1h-.6a3.33,3.33,0,0,0,.3-.6,2.06,2.06,0,0,0,1.5-.3,2.35,2.35,0,0,0-.8.2v-.3A7.89,7.89,0,0,1,417.3,306.4Zm-9,.5q-.15.45.3.3C408.8,306.9,408.6,306.8,408.3,306.9Zm-2.5,1.5a1.39,1.39,0,0,0,1.2-1A2.34,2.34,0,0,0,405.8,308.4Zm8.1.4c.3.4.9.2,1.3.1.1-.2.3-.5.4-.7C415.1,308.5,414.6,309,413.9,308.8Zm-10.1-.2c-.3.2-.6.3-.9.5a1,1,0,0,0,.1.3c.4-.1.8-.1,1.2-.2C404.1,309,403.9,308.8,403.8,308.6Zm3.7.2q-.15.45.3.3Q407.95,308.65,407.5,308.8Zm5.9.2q-.15.45.3.3Q413.85,308.85,413.4,309Zm-8,1.7a10,10,0,0,0,1-1.1C405.8,309.6,405.1,310,405.4,310.7Zm1.3-.6c.3.1.4,0,.4-.3C406.8,309.7,406.7,309.8,406.7,310.1Zm-4,.3c.2,0,.5-.1.7-.1v.5a2.92,2.92,0,0,0,.2-.9A4.05,4.05,0,0,0,402.7,310.4Z" transform="translate(0.01 0.1)"/>
      </g>
    </g>
    <g id="Buttons_BG" data-name="Buttons BG">
      <circle class="cls-13" cx="765.11" cy="348.6" r="37.3"/>
      <circle class="cls-13" cx="709.31" cy="280.2" r="37.3"/>
      <circle class="cls-13" cx="634.41" cy="336.7" r="37.3"/>
      <circle class="cls-13" cx="802.51" cy="270.4" r="37.3"/>
      <circle class="cls-13" cx="858.41" cy="338.4" r="37.3"/>
      <circle class="cls-13" cx="690.91" cy="404.8" r="37.3"/>
      <circle class="cls-13" cx="420.61" cy="445.1" r="32.1"/>
    </g>
    <g id="Buttons">
      <g>
        <g>
          <g>
            <path class="cls-14" d="M765.8,381.4A32.91,32.91,0,1,1,798,347.8,32.93,32.93,0,0,1,765.8,381.4Z" transform="translate(0.01 0.1)"/>
            <path class="cls-14" d="M764.5,316.9a31.66,31.66,0,1,1-31,32.3,31.63,31.63,0,0,1,31-32.3m-.1-2.5a34.16,34.16,0,1,0,34.9,33.4,34.24,34.24,0,0,0-34.9-33.4Z" transform="translate(0.01 0.1)"/>
          </g>
          <path class="cls-15" d="M764.6,324.8A23.71,23.71,0,1,0,788.8,348,23.69,23.69,0,0,0,764.6,324.8Zm1,43.8a20.1,20.1,0,1,1,19.7-20.5A20.11,20.11,0,0,1,765.6,368.6Z" transform="translate(0.01 0.1)"/>
        </g>
        <g>
          <g>
            <path class="cls-14" d="M691.6,437.6A32.91,32.91,0,1,1,723.8,404,32.93,32.93,0,0,1,691.6,437.6Z" transform="translate(0.01 0.1)"/>
            <path class="cls-14" d="M690.2,373.1a31.66,31.66,0,1,1-31,32.3,31.63,31.63,0,0,1,31-32.3m-.1-2.5A34.16,34.16,0,1,0,725,404a34.24,34.24,0,0,0-34.9-33.4Z" transform="translate(0.01 0.1)"/>
          </g>
          <polygon class="cls-16" points="708.51 388.9 705.91 386.5 690.81 402.3 675.01 387.1 672.51 389.7 688.31 404.9 673.21 420.7 675.81 423.2 690.91 407.3 706.71 422.5 709.21 419.9 693.41 404.8 708.51 388.9"/>
        </g>
        <g>
          <g>
            <path class="cls-14" d="M635.2,369.5a32.91,32.91,0,1,1,32.2-33.6A32.93,32.93,0,0,1,635.2,369.5Z" transform="translate(0.01 0.1)"/>
            <path class="cls-14" d="M633.8,305a31.66,31.66,0,1,1-31,32.3,31.63,31.63,0,0,1,31-32.3m-.1-2.5a34.16,34.16,0,1,0,34.9,33.4,34.24,34.24,0,0,0-34.9-33.4Z" transform="translate(0.01 0.1)"/>
          </g>
          <path class="cls-17" d="M648.5,318.3l-28.9.6-3.6.1.1,3.6.6,28.9.1,3.6,3.6-.1,28.9-.6,3.6-.1-.1-3.6-.6-28.9-.1-3.6Zm.7,32.4-28.9.6-.6-28.9,28.9-.6Z" transform="translate(0.01 0.1)"/>
        </g>
        <g>
          <g>
            <path class="cls-14" d="M710,313a32.91,32.91,0,1,1,32.2-33.6A32.93,32.93,0,0,1,710,313Z" transform="translate(0.01 0.1)"/>
            <path class="cls-14" d="M708.6,248.4a31.66,31.66,0,1,1-31,32.3,31.63,31.63,0,0,1,31-32.3m-.1-2.5a34.16,34.16,0,1,0,34.9,33.4,34.24,34.24,0,0,0-34.9-33.4Z" transform="translate(0.01 0.1)"/>
          </g>
          <path class="cls-18" d="M729.5,289.7l-20.7-34.2-19.3,35.1-2,3.6,4.1-.1,17.9-.4,17.9-.4,4.1-.1Zm-20,.4-15.9.3,15.3-27.8,16.5,27.1Z" transform="translate(0.01 0.1)"/>
        </g>
        <g>
          <g>
            <path class="cls-14" d="M803.2,303.2a32.91,32.91,0,1,1,32.2-33.6A32.93,32.93,0,0,1,803.2,303.2Z" transform="translate(0.01 0.1)"/>
            <path class="cls-14" d="M801.8,238.6a31.66,31.66,0,1,1-31,32.3,31.63,31.63,0,0,1,31-32.3m-.1-2.5a34.16,34.16,0,1,0,34.9,33.4,34.24,34.24,0,0,0-34.9-33.4Z" transform="translate(0.01 0.1)"/>
          </g>
          <g>
            <path class="cls-19" d="M783,285.9l-.6-29.7,13.2-.3a17,17,0,0,1,6.1.7,6.57,6.57,0,0,1,3.4,2.8,7.68,7.68,0,0,1,1.3,4.5,7.93,7.93,0,0,1-1.9,5.4c-1.3,1.5-3.4,2.4-6.3,2.9a11.68,11.68,0,0,1,2.4,1.4,16.17,16.17,0,0,1,3.3,3.9l5.3,8-4.9.1-4.1-6.1c-1.2-1.8-2.2-3.1-2.9-4a8.4,8.4,0,0,0-2-1.9,7.1,7.1,0,0,0-1.8-.8,12.22,12.22,0,0,0-2.2-.1l-4.6.1L787,286Zm3.6-16.6,8.4-.2a14.45,14.45,0,0,0,4.2-.6,4.67,4.67,0,0,0,2.3-1.8,4.23,4.23,0,0,0,.7-2.7,4.42,4.42,0,0,0-1.6-3.4c-1-.9-2.7-1.3-4.9-1.3l-9.4.2Z" transform="translate(0.01 0.1)"/>
            <path class="cls-19" d="M825.2,285l-3.6.1-.5-23.2a20.07,20.07,0,0,1-3.4,2.6,28.55,28.55,0,0,1-3.8,2l-.1-3.5a22.47,22.47,0,0,0,5.3-3.6,15.55,15.55,0,0,0,3.2-4l2.4-.1Z" transform="translate(0.01 0.1)"/>
          </g>
        </g>
        <g>
          <g>
            <path class="cls-14" d="M859.1,371.2a32.91,32.91,0,1,1,32.2-33.6A32.93,32.93,0,0,1,859.1,371.2Z" transform="translate(0.01 0.1)"/>
            <path class="cls-14" d="M857.7,306.6a31.66,31.66,0,1,1-31,32.3,31.63,31.63,0,0,1,31-32.3m0-2.5a34.16,34.16,0,1,0,34.9,33.4,34.24,34.24,0,0,0-34.9-33.4Z" transform="translate(0.01 0.1)"/>
          </g>
          <g>
            <path class="cls-19" d="M836.1,351.4l-.6-29.7,13.2-.3a17,17,0,0,1,6.1.7,6.57,6.57,0,0,1,3.4,2.8,7.68,7.68,0,0,1,1.3,4.5,7.93,7.93,0,0,1-1.9,5.4c-1.3,1.5-3.4,2.4-6.3,2.9a11.68,11.68,0,0,1,2.4,1.4A16.17,16.17,0,0,1,857,343l5.3,8-4.9.1-4.1-6.1c-1.2-1.8-2.2-3.1-2.9-4a6.88,6.88,0,0,0-2-1.9,7.1,7.1,0,0,0-1.8-.8,12.22,12.22,0,0,0-2.2-.1l-4.6.1.3,13.2Zm3.6-16.7,8.4-.2a14.45,14.45,0,0,0,4.2-.6,4.67,4.67,0,0,0,2.3-1.8,4.23,4.23,0,0,0,.7-2.7,4.42,4.42,0,0,0-1.6-3.4c-1-.9-2.7-1.3-4.9-1.3l-9.4.2Z" transform="translate(0.01 0.1)"/>
            <path class="cls-19" d="M883.6,346.9l.1,3.5-19.6.4a6.9,6.9,0,0,1,.4-2.5,13.71,13.71,0,0,1,2.3-4,34.49,34.49,0,0,1,4.7-4.6,41.43,41.43,0,0,0,6.4-6.4,7.69,7.69,0,0,0,1.6-4.4,4.84,4.84,0,0,0-1.6-3.6,6,6,0,0,0-4.1-1.4,5.57,5.57,0,0,0-4.2,1.7,6.18,6.18,0,0,0-1.5,4.4l-3.8-.3a9.15,9.15,0,0,1,2.8-6.5,9.55,9.55,0,0,1,6.7-2.3,9.32,9.32,0,0,1,6.8,2.2,7.52,7.52,0,0,1,2.6,5.8,8.42,8.42,0,0,1-.7,3.5,13.87,13.87,0,0,1-2.3,3.7,48.2,48.2,0,0,1-5.5,5.3c-2.1,1.9-3.5,3.2-4.1,3.8a13,13,0,0,0-1.5,2Z" transform="translate(0.01 0.1)"/>
          </g>
        </g>
      </g>
    </g>
    <g id="Stick_BG" data-name="Stick BG">
      <g>
        <path class="cls-14" d="M271.9,510.6a68,68,0,0,1-1.4-135.9H272a68,68,0,0,1,1.4,135.9Z" transform="translate(0.01 0.1)"/>
        <path class="cls-20" d="M271.9,375.2a67.46,67.46,0,0,1,1.4,134.9h-1.5a67.46,67.46,0,0,1-1.4-134.9h1.5m0-1h-1.5a68.46,68.46,0,0,0,1.4,136.9h1.5a68.46,68.46,0,0,0-1.4-136.9Z" transform="translate(0.01 0.1)"/>
      </g>
      <g class="cls-21">
        <path class="cls-22" d="M300.5,417l20.4-20.6a67.42,67.42,0,0,0-116.3,40.8l23.9.7.1.9,33.5-2.7-4.9,6.4c15.2-.4,30.6-2.9,45.9-4.3Z" transform="translate(0.01 0.1)"/>
      </g>
      <g class="cls-23">
        <path class="cls-22" d="M305.4,457l-2.3-18.8c-15.2,1.3-30.6,3.8-45.9,4.3l-4.3,5.6L206,457.5a67.42,67.42,0,0,0,56.8,52.1l3.4-29.1,25,1.8L300,504a67.38,67.38,0,0,0,34.9-37.2Z" transform="translate(0.01 0.1)"/>
      </g>
      <circle cx="271.91" cy="442.8" r="45.5"/>
    </g>
    <g id="D-Pad">
      <g>
        <g>
          <path class="cls-24" d="M145.6,394.8a77.65,77.65,0,0,1,.6-155.3h.6a77.65,77.65,0,0,1-.6,155.3Z" transform="translate(0.01 0.1)"/>
          <path class="cls-25" d="M146.1,240.4h.5a76.65,76.65,0,0,1-.6,153.3h-.5a76.65,76.65,0,0,1,.6-153.3m0-2h0a78.65,78.65,0,0,0-.5,157.3h.6a78.65,78.65,0,0,0,.5-157.3Z" transform="translate(0.01 0.1)"/>
        </g>
        <circle class="cls-5" cx="146.11" cy="317.2" r="76.7"/>
        <circle class="cls-1" cx="146.11" cy="317.2" r="72.6"/>
      </g>
      <g>
        <path class="cls-26" d="M198.1,330.6c-.1,0-.1,0-.2-.1a.35.35,0,0,1-.1-.2l.2-25.2a.32.32,0,0,1,.3-.3c.1,0,.1,0,.2.1l10.4,12.7a.19.19,0,0,1,0,.3l-10.6,12.5C198.2,330.6,198.2,330.6,198.1,330.6Z" transform="translate(0.01 0.1)"/>
        <path class="cls-27" d="M198.5,305.8l9.9,12-10,11.9.1-23.9m-.2-1.4a.79.79,0,0,0-.8.8l-.2,25.2a.79.79,0,0,0,.8.8.86.86,0,0,0,.6-.3l10.6-12.5a.91.91,0,0,0,0-1l-10.4-12.7a.86.86,0,0,0-.6-.3Z" transform="translate(0.01 0.1)"/>
      </g>
      <g>
        <path class="cls-26" d="M134.1,265.2c-.2,0-.2-.1-.2-.2a.37.37,0,0,1,.1-.3l12.7-10.4c.1,0,.1-.1.2-.1s.1,0,.2.1l12.5,10.6a.37.37,0,0,1,.1.3.22.22,0,0,1-.2.2Z" transform="translate(0.01 0.1)"/>
        <path class="cls-27" d="M146.8,254.8l11.9,10-23.9-.2,12-9.8m0-1c-.2,0-.3.1-.5.2l-12.7,10.4a.73.73,0,0,0,.5,1.3l25.2.2h0a.75.75,0,0,0,.5-1.3L147.3,254c-.1-.2-.3-.2-.5-.2Z" transform="translate(0.01 0.1)"/>
      </g>
      <g>
        <path class="cls-26" d="M93.9,329.3c-.1,0-.1,0-.2-.1L83.3,316.5a.19.19,0,0,1,0-.3l10.6-12.5c.1-.1.1-.1.2-.1s.1,0,.2.1a.35.35,0,0,1,.1.2L94.2,329C94.2,329.2,93.9,329.3,93.9,329.3Z" transform="translate(0.01 0.1)"/>
        <path class="cls-27" d="M93.9,304.5l-.2,23.9-9.9-12,10.1-11.9m.2-1.4a.86.86,0,0,0-.6.3L83,315.9a.91.91,0,0,0,0,1l10.4,12.7a.86.86,0,0,0,.6.3.79.79,0,0,0,.8-.8l.2-25.2a1,1,0,0,0-.9-.8Z" transform="translate(0.01 0.1)"/>
      </g>
      <g>
        <path class="cls-26" d="M145.4,379.9a.31.31,0,0,1-.2-.1l-12.5-10.6a.37.37,0,0,1-.1-.3.22.22,0,0,1,.2-.2l25.2.3c.2,0,.2.1.2.2a.37.37,0,0,1-.1.3l-12.7,10.4Z" transform="translate(0.01 0.1)"/>
        <path class="cls-27" d="M133.5,369.3l23.9.2-12,9.9-11.9-10.1m-.7-1a.75.75,0,0,0-.5,1.3l12.5,10.6a.76.76,0,0,0,.5.2c.2,0,.3-.1.5-.2l12.7-10.4a.73.73,0,0,0-.5-1.3l-25.2-.2Z" transform="translate(0.01 0.1)"/>
      </g>
    </g>
    <g id="PS_Button" data-name="PS Button">
      <g id="PS_Button-2" data-name="PS Button">
        <circle class="cls-28" cx="420.61" cy="445.1" r="27.5"/>
        <g>
          <path class="cls-29" d="M422.1,454V436.6a2.06,2.06,0,0,1,.3-1.3.76.76,0,0,1,.9-.3c.8.2,1.2,1,1.3,2.3v9.4a6.48,6.48,0,0,0,2.9.7,3.23,3.23,0,0,0,2.2-.7c1.4-1,2-2.7,2-5.1,0-2.7-.6-4.6-1.7-5.8a11.14,11.14,0,0,0-5.5-3.5c-1.8-.6-3.4-1-4.9-1.4s-2.8-.7-3.9-.9v16.6h0v3.6h0v2.3h0v3.4h0V458l6.4,2v-4.9h0Z" transform="translate(0.01 0.1)"/>
          <path class="cls-29" d="M415.2,452.7l-2.3.8-1.3.6-2.1.4-2.1-.2c-.4-.3-.5-.5-.3-.8.1-.1.3-.2.4-.3s.3-.2.5-.3l1.4-.5,5.6-2v-3.7l-2.3.7-7.5,2.7-1.3.5c-2,.9-3,1.7-2.9,2.5.1,1.1,1.4,2,3.7,2.6a15,15,0,0,0,2.9.6,28.25,28.25,0,0,0,2.9.2,24.77,24.77,0,0,0,4.5-.5Z" transform="translate(0.01 0.1)"/>
          <path class="cls-29" d="M436.8,449.4a22.07,22.07,0,0,0-3.5-.8c-1.1-.1-2.3-.2-3.4-.2a24.73,24.73,0,0,0-3.8.5,20.65,20.65,0,0,0-3.6,1.1v3.8l5.4-1.9,2.2-.8,1.4-.4h1.9a1.25,1.25,0,0,1,.9.5c0,.3-.3.6-1.1.8l-1.9.8-8.9,3.2v3.7l4.8-1.7,8.8-3.1,1-.5c2.1-.7,3-1.6,2.9-2.7C440,450.9,438.9,450.1,436.8,449.4Z" transform="translate(0.01 0.1)"/>
        </g>
      </g>
    </g>
    <g id="Start_Select" data-name="Start Select">
      <g>
        <path class="cls-30" d="M482.4,550c-5.2,0-3.1,3.5-3.1,3.5s16.3,35.3,17.2,37.3,2.6,1.5,2.6,1.5h61.2l-17.6-42.2Z" transform="translate(0.01 0.1)"/>
        <path class="cls-30" d="M623.5,589.8s-12.3-30.4-14.2-35.4a6.22,6.22,0,0,0-6.7-4.2l-59.9-.1,17.6,42.2h61.4C624.1,592.2,623.5,589.8,623.5,589.8Z" transform="translate(0.01 0.1)"/>
      </g>
      <g>
        <g id="Start">
          <path class="cls-31" d="M623.5,589.8s-12.3-30.4-14.2-35.4a6.22,6.22,0,0,0-6.7-4.2l-59.4-.1,17.6,42.2h60.8A1.91,1.91,0,0,0,623.5,589.8Z" transform="translate(0.01 0.1)"/>
          <g>
            <path class="cls-32" d="M553.6,558.7a1.62,1.62,0,0,1,.1-2,3.29,3.29,0,0,1,2.4-.7,7.61,7.61,0,0,1,2.1.3,5.08,5.08,0,0,1,1.8.9,3.34,3.34,0,0,1,1.1,1.3,2.4,2.4,0,0,1,.2,1.4,1.34,1.34,0,0,1-.9.9,4.84,4.84,0,0,1-1.8.3,8.33,8.33,0,0,1-2.2-.3,5.08,5.08,0,0,1-1.8-.9A3.78,3.78,0,0,1,553.6,558.7Zm1.1,0a2.94,2.94,0,0,0,1.5,1.4,5.45,5.45,0,0,0,2.2.5,2.46,2.46,0,0,0,1.7-.5,1.19,1.19,0,0,0,0-1.5,4.44,4.44,0,0,0-.8-1.1,5.39,5.39,0,0,0-1.3-.7,3.89,3.89,0,0,0-1.5-.2,2.86,2.86,0,0,0-1.7.5C554.3,557.4,554.3,558,554.7,558.7Z" transform="translate(0.01 0.1)"/>
            <path class="cls-32" d="M563.7,561.1l-2.4-5h4.2a3.59,3.59,0,0,1,1.1.2,4.05,4.05,0,0,1,.9.5,2,2,0,0,1,.6.7.9.9,0,0,1-.1,1.1,3.16,3.16,0,0,1-2.1.5h-2l1,2Zm-.2-2.6h2a3.09,3.09,0,0,0,1.3-.2.59.59,0,0,0,.1-.7,1.21,1.21,0,0,0-.5-.5,6.89,6.89,0,0,0-.8-.3h-3Z" transform="translate(0.01 0.1)"/>
            <path class="cls-32" d="M573.1,561.1l-2.1-4.4h-2.6l-.3-.6h6.3l.3.6h-2.6l2.1,4.4Z" transform="translate(0.01 0.1)"/>
            <path class="cls-32" d="M578,561l-2.4-5h1l2.4,5Z" transform="translate(0.01 0.1)"/>
            <path class="cls-32" d="M579.4,558.6a1.62,1.62,0,0,1,.1-2,3.29,3.29,0,0,1,2.4-.7,7.61,7.61,0,0,1,2.1.3,5.08,5.08,0,0,1,1.8.9,3.34,3.34,0,0,1,1.1,1.3,2.4,2.4,0,0,1,.2,1.4,1.34,1.34,0,0,1-.9.9,4.84,4.84,0,0,1-1.8.3,8.33,8.33,0,0,1-2.2-.3,5.08,5.08,0,0,1-1.8-.9A5.3,5.3,0,0,1,579.4,558.6Zm1.1,0A2.94,2.94,0,0,0,582,560a5.45,5.45,0,0,0,2.2.5,2.46,2.46,0,0,0,1.7-.5,1.19,1.19,0,0,0,0-1.5,4.44,4.44,0,0,0-.8-1.1,5.39,5.39,0,0,0-1.3-.7,3.89,3.89,0,0,0-1.5-.2,2.86,2.86,0,0,0-1.7.5C580.1,557.3,580.1,557.8,580.5,558.6Z" transform="translate(0.01 0.1)"/>
            <path class="cls-32" d="M589.5,561l-2.4-5h1.1l6,3.9-1.9-3.9h1l2.4,5h-1.1l-6-3.9,1.9,3.9Z" transform="translate(0.01 0.1)"/>
            <path class="cls-32" d="M596.4,559.3l1-.1a1.7,1.7,0,0,0,.6.6,2.32,2.32,0,0,0,1,.4,5.28,5.28,0,0,0,1.3.1,3.08,3.08,0,0,0,1-.1,1.07,1.07,0,0,0,.5-.3.3.3,0,0,0,0-.4.78.78,0,0,0-.4-.4,4.65,4.65,0,0,0-.9-.3,8.81,8.81,0,0,0-1.5-.2,13.88,13.88,0,0,1-1.7-.3,3.7,3.7,0,0,1-1.1-.5,1.7,1.7,0,0,1-.6-.6.85.85,0,0,1,0-.7,1.23,1.23,0,0,1,.8-.5,5.21,5.21,0,0,1,1.4-.2,7.77,7.77,0,0,1,1.6.2,5,5,0,0,1,1.3.5,2,2,0,0,1,.8.8l-1,.1a1.6,1.6,0,0,0-.9-.7,3.42,3.42,0,0,0-1.5-.2,3.47,3.47,0,0,0-1.3.2.37.37,0,0,0-.2.5,1,1,0,0,0,.5.4,8.89,8.89,0,0,0,1.8.3,15.25,15.25,0,0,1,1.9.3,5,5,0,0,1,1.3.5,2.34,2.34,0,0,1,.7.7,1.1,1.1,0,0,1,0,.8,1.83,1.83,0,0,1-.8.6,5.9,5.9,0,0,1-1.4.2,11.08,11.08,0,0,1-1.9-.2,3.51,3.51,0,0,1-1.4-.6A1.91,1.91,0,0,1,596.4,559.3Z" transform="translate(0.01 0.1)"/>
          </g>
          <g>
            <path class="cls-22" d="M565.4,567.6l.9-.1a1,1,0,0,0,.5.6,1.88,1.88,0,0,0,.9.4,4.87,4.87,0,0,0,1.2.1,3.08,3.08,0,0,0,1-.1,1.63,1.63,0,0,0,.6-.3.6.6,0,0,0,.1-.4.78.78,0,0,0-.4-.4,6.89,6.89,0,0,0-.8-.3,8.81,8.81,0,0,0-1.5-.2,9.11,9.11,0,0,1-1.6-.3,3.13,3.13,0,0,1-1-.5,2.65,2.65,0,0,1-.5-.6.59.59,0,0,1,.1-.7,1.23,1.23,0,0,1,.8-.5,5.21,5.21,0,0,1,1.4-.2,4.14,4.14,0,0,1,1.6.2,3.34,3.34,0,0,1,1.2.5,2.7,2.7,0,0,1,.7.8l-1,.1a1.39,1.39,0,0,0-.8-.7,3,3,0,0,0-1.4-.2,3.92,3.92,0,0,0-1.3.2.37.37,0,0,0-.2.5.7.7,0,0,0,.5.4,7.46,7.46,0,0,0,1.7.3,10.61,10.61,0,0,1,1.8.3,3.34,3.34,0,0,1,1.2.5,1.34,1.34,0,0,1,.6.7.78.78,0,0,1-.1.8,2.76,2.76,0,0,1-.8.6,5.9,5.9,0,0,1-1.4.2,9,9,0,0,1-1.8-.2,2.62,2.62,0,0,1-1.3-.6A1.34,1.34,0,0,1,565.4,567.6Z" transform="translate(0.01 0.1)"/>
            <path class="cls-22" d="M575.5,569.1l-1.6-4.4h-2.6l-.2-.6,6.1-.1.2.6h-2.6l1.6,4.4Z" transform="translate(0.01 0.1)"/>
            <path class="cls-22" d="M578.5,569.1l1.2-5h1.1l5,5h-1.2l-1.5-1.5h-3.2l-.3,1.5ZM580,567h2.6l-1.3-1.4c-.4-.4-.7-.8-.9-1a3.75,3.75,0,0,1-.1,1Z" transform="translate(0.01 0.1)"/>
            <path class="cls-22" d="M586.6,569l-1.8-5h3.4a7.12,7.12,0,0,1,1.6.1,1.91,1.91,0,0,1,1,.5,1.56,1.56,0,0,1,.6.8c.1.4.1.7-.2.9a3.71,3.71,0,0,1-1.5.5,2.54,2.54,0,0,0,.7.2,6.73,6.73,0,0,1,1.1.7l1.8,1.3H592l-1.4-1c-.4-.3-.7-.5-1-.7a1.55,1.55,0,0,0-.6-.3.9.9,0,0,0-.5-.1h-1.8l.8,2.2Zm0-2.8h2.2a3.42,3.42,0,0,0,1.1-.1,2.19,2.19,0,0,0,.5-.3.45.45,0,0,0,0-.5,1.7,1.7,0,0,0-.6-.6,2.55,2.55,0,0,0-1.3-.2H586Z" transform="translate(0.01 0.1)"/>
            <path class="cls-22" d="M596.1,568.9l-1.6-4.4h-2.6l-.2-.6,6.1-.1.2.6h-2.6l1.6,4.4Z" transform="translate(0.01 0.1)"/>
          </g>
        </g>
        <g id="Select">
          <path class="cls-31" d="M482.4,550c-5.2,0-3.1,3.5-3.1,3.5s16.3,35.3,17.2,37.3,2.6,1.5,2.6,1.5h60.2l-17.5-42.2Z" transform="translate(0.01 0.1)"/>
          <g>
            <path class="cls-32" d="M494.8,568.3l.9-.1a1.7,1.7,0,0,0,.6.6,3.92,3.92,0,0,0,.9.4,4.87,4.87,0,0,0,1.2.1,2.22,2.22,0,0,0,.9-.1,2.19,2.19,0,0,0,.5-.3.3.3,0,0,0,0-.4.78.78,0,0,0-.4-.4,3.39,3.39,0,0,0-.8-.3,8.79,8.79,0,0,0-1.4-.2,9.59,9.59,0,0,1-1.5-.3,3.13,3.13,0,0,1-1-.5,1.33,1.33,0,0,1-.5-.6.85.85,0,0,1,0-.7,1,1,0,0,1,.7-.5,3.73,3.73,0,0,1,1.2-.2,7.72,7.72,0,0,1,1.5.2,3.34,3.34,0,0,1,1.2.5,1.78,1.78,0,0,1,.7.8h-.9a1.78,1.78,0,0,0-.8-.7,3,3,0,0,0-1.4-.2,2,2,0,0,0-1.1.2c-.2.1-.2.3-.1.5a.7.7,0,0,0,.5.4c.2.1.8.2,1.6.4a10.93,10.93,0,0,1,1.7.3,3.34,3.34,0,0,1,1.2.5,1.34,1.34,0,0,1,.6.7,1.1,1.1,0,0,1,0,.8,1.44,1.44,0,0,1-.7.6,4.44,4.44,0,0,1-1.3.2,8.81,8.81,0,0,1-1.7-.2,3.1,3.1,0,0,1-1.3-.6A3,3,0,0,1,494.8,568.3Z" transform="translate(0.01 0.1)"/>
            <path class="cls-32" d="M502.6,569.9l-2.4-5h5.2l.3.6h-4.2l.7,1.5h4l.3.6h-4l.8,1.7h4.4l.3.6Z" transform="translate(0.01 0.1)"/>
            <path class="cls-32" d="M509.2,569.9l-2.4-5h.9l2.1,4.4h3.5l.3.6Z" transform="translate(0.01 0.1)"/>
            <path class="cls-32" d="M514.8,569.9l-2.4-5h5.2l.3.6h-4.2l.7,1.5h4l.3.6h-4l.8,1.7h4.4l.3.6Z" transform="translate(0.01 0.1)"/>
            <path class="cls-32" d="M525.7,568.1l1,.2a1.3,1.3,0,0,1-.5,1.3,2.67,2.67,0,0,1-1.7.4,6,6,0,0,1-2-.3,3.91,3.91,0,0,1-1.6-1,5.67,5.67,0,0,1-1-1.3,2.4,2.4,0,0,1-.2-1.4,1.42,1.42,0,0,1,.8-.9,3.81,3.81,0,0,1,1.6-.3,4.48,4.48,0,0,1,2,.4,4.18,4.18,0,0,1,1.5,1.1l-.9.2a2.84,2.84,0,0,0-1.1-.8,2.74,2.74,0,0,0-1.3-.2,1.92,1.92,0,0,0-1.2.3.75.75,0,0,0-.4.7,2.78,2.78,0,0,0,1,2.1,2.4,2.4,0,0,0,1.2.7,3,3,0,0,0,1.3.2,2.13,2.13,0,0,0,1.2-.3A2.28,2.28,0,0,0,525.7,568.1Z" transform="translate(0.01 0.1)"/>
            <path class="cls-32" d="M530.4,569.8l-2.1-4.4h-2.4l-.3-.6h5.7l.3.6h-2.4l2.1,4.4Z" transform="translate(0.01 0.1)"/>
          </g>
          <g>
            <path class="cls-32" d="M492.2,560.7l.9-.1a4.35,4.35,0,0,0,.6.7,2.32,2.32,0,0,0,1,.4,5,5,0,0,0,1.2.2,2.22,2.22,0,0,0,.9-.1,2.19,2.19,0,0,0,.5-.3.45.45,0,0,0,0-.5,1.76,1.76,0,0,0-.4-.5,6.89,6.89,0,0,0-.8-.3c-.2-.1-.7-.1-1.5-.3a11.6,11.6,0,0,1-1.6-.3,2.34,2.34,0,0,1-1-.5,1.34,1.34,0,0,1-.6-.7,1.13,1.13,0,0,1-.1-.8,1.44,1.44,0,0,1,.7-.6,4.44,4.44,0,0,1,1.3-.2,7.77,7.77,0,0,1,1.6.2,3.1,3.1,0,0,1,1.3.6,2.28,2.28,0,0,1,.8.9l-.9.1a1.76,1.76,0,0,0-.9-.8,3.19,3.19,0,0,0-1.4-.3,2.87,2.87,0,0,0-1.2.2.47.47,0,0,0-.1.6,1.21,1.21,0,0,0,.5.5,7,7,0,0,0,1.7.4,10.61,10.61,0,0,1,1.8.3,2.28,2.28,0,0,1,1.2.6c.3.3.6.5.7.8a1.18,1.18,0,0,1,.1.8.88.88,0,0,1-.7.6,5.07,5.07,0,0,1-1.3.2,9,9,0,0,1-1.8-.2,3.69,3.69,0,0,1-1.4-.7C492.6,561.4,492.3,561.1,492.2,560.7Z" transform="translate(0.01 0.1)"/>
            <path class="cls-32" d="M500.3,562.5l-2.7-5.6h1l1.1,2.3h3.9l-1.1-2.3h1l2.7,5.6h-1l-1.3-2.6H500l1.3,2.6Z" transform="translate(0.01 0.1)"/>
            <path class="cls-32" d="M507,562.4l.1-5.6h1.1l5.8,5.5h-1.1l-1.7-1.7h-3.1v1.7Zm1-2.3h2.5l-1.5-1.5a11.09,11.09,0,0,0-1.1-1.1,4.1,4.1,0,0,1,.1,1.1Z" transform="translate(0.01 0.1)"/>
            <path class="cls-32" d="M514.7,562.4l-2.7-5.6h3.3a7.12,7.12,0,0,1,1.6.1,3.7,3.7,0,0,1,1.1.5c.3.3.6.5.7.8a.9.9,0,0,1,0,1c-.2.3-.6.4-1.3.5a4.88,4.88,0,0,1,.7.3,7.46,7.46,0,0,1,1.2.7l2,1.5h-1.2l-1.6-1.2c-.5-.3-.8-.6-1.1-.8a5.74,5.74,0,0,0-.7-.4,1.09,1.09,0,0,0-.5-.1h-1.7l1.2,2.5Zm-.6-3.1h2.1a2.79,2.79,0,0,0,1-.1c.2-.1.4-.2.4-.3s0-.3,0-.5a1.06,1.06,0,0,0-.7-.6,2.5,2.5,0,0,0-1.3-.3h-2.3Z" transform="translate(0.01 0.1)"/>
            <path class="cls-32" d="M522.2,562.4l-2.7-5.6h5.4l.3.7h-4.4l.8,1.7h4.1l.3.7h-4.1l.9,1.9h4.6l.3.7Z" transform="translate(0.01 0.1)"/>
          </g>
        </g>
      </g>
    </g>
    <g>
      <text class="cls-33" transform="matrix(1.17, 0.01, -0.7, 0.72, 265.18, 578.73)">PS3</text>
      <text class="cls-33" transform="matrix(1.17, 0.01, -0.7, 0.72, 299.68, 579.08)">PS4</text>
      <g>
        <path class="cls-34" d="M286.3,548.3l49.5.5s5.8-.8,3.1,3.2-9.5,13.9-9.5,13.9-1.2,2.3-3.2,2.3l-50.5.1s-4.8-.3-3.4-2.3,9.6-14.6,9.6-14.6S283.7,548.2,286.3,548.3Z" transform="translate(0.01 0.1)"/>
        <path class="cls-35" d="M329.2,563.3l-54.8-.6c-1,1.5-1.8,2.7-2.1,3.2-1.4,2,3.4,2.3,3.4,2.3s48.4,0,50.5-.1h0Z" transform="translate(0.01 0.1)"/>
        <g>
          <path class="cls-36" d="M292.2,548.4l-8.9,13.5s.6,1.7,1.6,1.8,8.1-.2,8.1-.2h2.5l7.6,4.7,1.2,1.7,7.6-.2,1.7-2.9,2-1.8,4.4-1.2,9.2-.6,9-14.5Z" transform="translate(0.01 0.1)"/>
          <polygon class="cls-37" points="303.91 569.7 314.31 551.7 321.81 551.6 311.81 569.9 304.11 570.1 303.91 569.7"/>
          <polygon class="cls-38" points="310.51 548.7 314.31 551.7 303.91 569.7 303.01 568.4 300.01 566.5 310.51 548.7"/>
          <path class="cls-37" d="M292.2,548.4l-8.9,13.5s.6,1.7,1.6,1.8l9.9-15.3Z" transform="translate(0.01 0.1)"/>
          <polygon class="cls-39" points="310.51 548.7 314.31 551.7 321.81 551.6 324.31 548.8 310.51 548.7"/>
          <polygon class="cls-40" points="315.51 565.2 319.91 564 322.41 563.8 330.61 548.8 324.31 548.8 321.81 551.6 311.81 569.9 313.51 567 315.51 565.2"/>
          <polygon class="cls-41" points="304.31 548.6 304.31 548.6 295.41 563.6 300.01 566.5 310.51 548.7 304.31 548.6"/>
        </g>
        <path class="cls-42" d="M338.1,548.8h0l-11.9,19.3c2,0,3.2-2.3,3.2-2.3s6.8-9.9,9.5-13.9C340.4,549.8,339.4,549.1,338.1,548.8Z" transform="translate(0.01 0.1)"/>
      </g>
    </g>
    <g>
      <text class="cls-33" transform="matrix(1.17, 0.01, -0.7, 0.72, 344.19, 579.34)">LS</text>
      <text class="cls-33" transform="matrix(1.17, 0.01, -0.7, 0.72, 375.88, 579.64)">RS</text>
      <g>
        <path class="cls-34" d="M364.1,548.3l49.5.5s5.8-.8,3.1,3.2-9.5,13.9-9.5,13.9-1.2,2.3-3.2,2.3l-50.5.1s-4.8-.3-3.4-2.3,9.6-14.6,9.6-14.6S361.5,548.3,364.1,548.3Z" transform="translate(0.01 0.1)"/>
        <path class="cls-35" d="M407,563.4l-54.8-.6c-1,1.5-1.8,2.7-2.1,3.2-1.4,2,3.4,2.3,3.4,2.3s48.4,0,50.5-.1h0Z" transform="translate(0.01 0.1)"/>
        <path class="cls-42" d="M416,548.9h0l-11.9,19.3c2,0,3.2-2.3,3.2-2.3s6.8-9.9,9.5-13.9C418.2,549.9,417.2,549.1,416,548.9Z" transform="translate(0.01 0.1)"/>
      </g>
    </g>
    <g>
      <g>
        <g>
          <path class="cls-43" d="M871.5,190.8H871c-.9-.3-22.3-7.6-24.8-8.6a34,34,0,0,0-7.1-1.5c-1.2-.2-122.9-16.6-126.4-17.1-3.8-.5-48.5-4.6-51.2-4.7a3.62,3.62,0,0,1-3.8-3.4c0-.6.8-13.6,1.1-16,.3-2.7,3.1-3.4,3.2-3.5.5-.2,56.7-19.1,58.6-19.6a9.78,9.78,0,0,1,2.6-.3,14.54,14.54,0,0,1,2.3.2c1.2.2,120.3,16.5,127.1,17.9,7,1.4,11.6,11.1,11.8,11.5,4.2,8.5,12.2,24.6,12.5,25.2a2,2,0,0,1,.2,1.8s-1.4,12.9-1.7,15.5c-.3,2.4-3,2.6-3.9,2.6Z" transform="translate(0.01 0.1)"/>
          <path class="cls-14" d="M723.1,116.5a12.54,12.54,0,0,1,2.2.2s120.3,16.5,127.1,17.9,11.4,11.2,11.4,11.2S876,170.3,876.3,171a2.24,2.24,0,0,1,.2,1.5s-1.4,12.9-1.7,15.5c-.2,2.1-2.5,2.3-3.4,2.3h-.3s-22.3-7.6-24.8-8.6a38.84,38.84,0,0,0-7.2-1.6S716.3,163.5,712.7,163s-48.1-4.6-51.3-4.7a3.32,3.32,0,0,1-3.4-2.9s.8-13.5,1.1-15.9a4,4,0,0,1,2.8-3.1s56.8-19,58.7-19.7a22.86,22.86,0,0,1,2.5-.2m0-1a7,7,0,0,0-2.7.4c-1.9.6-56.1,18.8-58.7,19.7a4.74,4.74,0,0,0-3.5,3.9c-.3,2.4-1,15.4-1.1,15.9v.2a4.3,4.3,0,0,0,4.3,3.9c2.7.1,47.4,4.2,51.2,4.7,3.5.5,125.2,16.9,126.4,17.1a32.27,32.27,0,0,1,7,1.5c2.5,1,23.9,8.3,24.9,8.6h.6c2.5,0,4.1-1.2,4.4-3.2.3-2.5,1.6-14.6,1.7-15.5a2.85,2.85,0,0,0-.3-2.1c-.3-.6-9.2-18.4-12.5-25.2-.2-.4-4.9-10.3-12.1-11.7-6.7-1.3-122.2-17.2-127.1-17.9a7.7,7.7,0,0,0-2.5-.3Z" transform="translate(0.01 0.1)"/>
        </g>
        <path class="cls-2" d="M662.5,138.6s-3.3.9-3.4,2.5h0c2.5.2,54.6,5.1,54.6,5.1l.9.1.3-2.1-.5-22.1Z" transform="translate(0.01 0.1)"/>
        <path class="cls-7" d="M839.8,163.9,713.7,146.2l-54.6-5.1c-.3,4.3-.9,14.3-.9,14.3a3.25,3.25,0,0,0,3.4,2.9c3.2.2,47.7,4.2,51.3,4.7s126.4,17.1,126.4,17.1,1.7.2,3.5.6l2.7-15.6C842,164.3,839.8,163.9,839.8,163.9Z" transform="translate(0.01 0.1)"/>
        <path class="cls-44" d="M876.2,175.8s-16.9-6.6-24.1-8.8c-2.5-.8-4.8-1.4-6.6-1.9l-2.7,15.6a32.92,32.92,0,0,1,3.7,1c2.6,1,24.8,8.6,24.8,8.6s3.4.3,3.7-2.3C875.1,186.3,875.8,179.8,876.2,175.8Z" transform="translate(0.01 0.1)"/>
        <g class="cls-21">
          <path class="cls-22" d="M771.3,137l7.6.9a3.18,3.18,0,0,1,3,3.7,3,3,0,0,1-2.4,2.8h0c1.1.3,1.6,1.4,1.5,2.8-.2,2.3-.2,2.9.2,3.4l-1.9-.2c-.2-.4-.2-.9-.1-2.4.1-2.2-.5-3-2-3.2l-4.8-.6-.6,5.2-1.8-.2Zm6.3,6.3a2,2,0,0,0,2.5-1.7,1.91,1.91,0,0,0-1.9-2.2l-5.1-.6-.5,3.9Z" transform="translate(0.01 0.1)"/>
          <path class="cls-22" d="M788.3,142.7l-3.6-.4.2-1.3.4.1c3.1.4,3.7-1,3.8-1.8l1.4.2L789,151.8l-1.8-.2Z" transform="translate(0.01 0.1)"/>
        </g>
      </g>
      <g>
        <g>
          <path class="cls-43" d="M71.6,190.8c-.8,0-3.6-.2-3.9-2.8S66,172.5,66,172.5a2.76,2.76,0,0,1,.3-1.8c.3-.5,8.3-16.7,12.5-25.2.2-.4,4.8-10.1,11.8-11.5,6.7-1.3,125.9-17.7,127.1-17.9a14.54,14.54,0,0,1,2.3-.2,9.78,9.78,0,0,1,2.6.3c1.9.6,58.1,19.5,58.7,19.7a4.5,4.5,0,0,1,3.2,3.5c.3,2.3,1,15.3,1.1,15.9a3.86,3.86,0,0,1-3.8,3.5c-2.7.1-47.4,4.2-51.2,4.7-3.5.5-125.2,16.9-126.4,17.1a42.61,42.61,0,0,0-7.1,1.5c-2.5,1-23.9,8.3-24.8,8.6h-.2A.75.75,0,0,1,71.6,190.8Z" transform="translate(0.01 0.1)"/>
          <path class="cls-14" d="M220,116.5a9.28,9.28,0,0,1,2.4.3c1.9.6,58.7,19.7,58.7,19.7a4,4,0,0,1,2.8,3.1c.3,2.4,1.1,15.9,1.1,15.9a3.25,3.25,0,0,1-3.4,2.9c-3.2.2-47.7,4.2-51.3,4.7s-126.4,17.1-126.4,17.1a31.7,31.7,0,0,0-7.2,1.6c-2.5,1-24.8,8.6-24.8,8.6h-.3c-.8,0-3.1-.2-3.4-2.3-.3-2.6-1.7-15.5-1.7-15.5a2.24,2.24,0,0,1,.2-1.5c.4-.7,12.5-25.2,12.5-25.2s4.6-9.9,11.4-11.2,127.1-17.9,127.1-17.9a9.88,9.88,0,0,1,2.3-.3m0-1h0a15,15,0,0,0-2.4.2c-4.9.7-120.3,16.5-127.1,17.9-7.2,1.4-11.9,11.3-12.1,11.8-3.4,6.8-12.2,24.5-12.5,25.1a2.88,2.88,0,0,0-.3,2.1c.1.8,1.4,13,1.7,15.5.2,2,1.9,3.2,4.4,3.2h.6c.9-.3,22.3-7.6,24.9-8.6a32.27,32.27,0,0,1,7-1.5c1.2-.2,122.9-16.6,126.4-17.1,3.8-.5,48.5-4.6,51.2-4.7a4.3,4.3,0,0,0,4.3-3.9v-.2c0-.6-.8-13.6-1.1-15.9a5,5,0,0,0-3.5-3.9c-2.6-.9-56.8-19.1-58.7-19.7a20,20,0,0,0-2.8-.3Z" transform="translate(0.01 0.1)"/>
        </g>
        <path class="cls-2" d="M280.7,138.6s3.3.9,3.4,2.5h0c-2.5.2-54.6,5.1-54.6,5.1l-.9.1-.3-2.1.5-22.1Z" transform="translate(0.01 0.1)"/>
        <path class="cls-7" d="M103.4,163.9l126.1-17.7,54.6-5.1c.3,4.3.9,14.3.9,14.3a3.25,3.25,0,0,1-3.4,2.9c-3.2.2-47.7,4.2-51.3,4.7s-126.4,17.1-126.4,17.1-1.7.2-3.5.6l-2.7-15.6C101.2,164.3,103.4,163.9,103.4,163.9Z" transform="translate(0.01 0.1)"/>
        <path class="cls-44" d="M66.9,175.8S83.8,169.2,91,167c2.5-.8,4.8-1.4,6.6-1.9l2.7,15.6a32.92,32.92,0,0,0-3.7,1c-2.6,1-24.8,8.6-24.8,8.6s-3.4.3-3.7-2.3C68.1,186.3,67.4,179.8,66.9,175.8Z" transform="translate(0.01 0.1)"/>
        <g class="cls-21">
          <path class="cls-22" d="M151.1,139.5l1.8-.2,1.3,10.7,7.4-.9.2,1.6-9.3,1.2Z" transform="translate(0.01 0.1)"/>
          <path class="cls-22" d="M166.7,141.2l-3.6.4-.2-1.3.4-.1c3.1-.4,3.3-1.9,3.3-2.7l1.4-.2,1.5,12.3-1.8.2Z" transform="translate(0.01 0.1)"/>
        </g>
      </g>
    </g>
    <g>
      <g>
        <path class="cls-45" d="M737.5,100.2s.2,2.7,7.1,2.3,12.5-.9,12.5-.9,3.7-.2,5.9-.1,58.4.4,58.4.4,6.6,1.3,2.9-7.3-19.2-48-19.2-48-9.8-32.1-10.4-37.1S788.5.7,783.6.7,739.3.4,739.3.4s-8.2,1.6-7.9,8l1.9,49.1,1.4,12.9Z" transform="translate(0.01 0.1)"/>
        <path class="cls-46" d="M819.3,97.7s-53.2-.5-56.6-.6-5.3,0-5.3,0l-19.9,3.1s.2,2.7,7.1,2.3,12.5-.9,12.5-.9,3.7-.2,5.9-.1,58.4.4,58.4.4.5-2.7-.1-3.6C821.1,97.9,819.3,97.7,819.3,97.7Z" transform="translate(0.01 0.1)"/>
        <path class="cls-11" d="M759.4,97h0l-3.2-40.7-2.1-53H740.3s-8.9-.3-8.6,7.2h0l1.8,47.1,1.4,12.9,2.7,29.7,19.9-3.1C757.4,97,758.1,97,759.4,97Z" transform="translate(0.01 0.1)"/>
        <path class="cls-47" d="M756.2,56.3l-2.1-53,30.4.4s5.7-.4,7.6,8,13,43,13,43Z" transform="translate(0.01 0.1)"/>
        <g class="cls-21">
          <path class="cls-22" d="M764.5,29.9h7.3A2.9,2.9,0,0,1,775,33a2.76,2.76,0,0,1-2,2.9h0c1.1.1,1.7,1.1,1.7,2.5.1,2.2.2,2.8.6,3.2h-1.8c-.3-.3-.3-.8-.4-2.2-.1-2.1-.8-2.8-2.3-2.8h-4.6v5h-1.7Zm6.6,5.2c1.7,0,2.1-1,2.1-1.9a1.85,1.85,0,0,0-2.1-1.9h-4.9V35h4.9Z" transform="translate(0.01 0.1)"/>
          <path class="cls-22" d="M776.4,34.1c0-2.4,1.4-4.1,4.5-4.1s4.3,1.6,4.3,3.7c0,4-5.6,3.9-6.9,6.5h6.9v1.5h-9.1c.3-5.4,7.3-4.7,7.3-8.1,0-1.7-1.1-2.3-2.5-2.3a2.68,2.68,0,0,0-3,2.8Z" transform="translate(0.01 0.1)"/>
        </g>
      </g>
      <g>
        <path class="cls-45" d="M232.4,100.2s-.2,2.7-7.1,2.3-12.5-.9-12.5-.9-3.7-.2-5.9-.1-58.4.4-58.4.4-6.6,1.3-2.9-7.3,19.2-48,19.2-48,9.8-32.1,10.4-37.1S181.4.7,186.3.7,230.6.4,230.6.4s8.2,1.6,7.9,8l-1.9,49.1-1.6,13Z" transform="translate(0.01 0.1)"/>
        <path class="cls-46" d="M150.5,97.7s53.2-.5,56.6-.6,5.3,0,5.3,0l19.9,3.1s-.2,2.7-7.1,2.3-12.5-.9-12.5-.9-3.7-.2-5.9-.1-58.4.4-58.4.4-.5-2.7.1-3.6C148.8,97.9,150.5,97.7,150.5,97.7Z" transform="translate(0.01 0.1)"/>
        <path class="cls-11" d="M210.5,97h0l3.2-40.7,2.1-53h13.8s8.9-.3,8.6,7.2h0l-1.8,47.1L235,70.5l-2.7,29.7-19.9-3.1A14.88,14.88,0,0,0,210.5,97Z" transform="translate(0.01 0.1)"/>
        <path class="cls-47" d="M213.7,56.3l2.1-53-30.4.4s-5.7-.4-7.6,8-13,43-13,43Z" transform="translate(0.01 0.1)"/>
        <g class="cls-21">
          <path class="cls-22" d="M184.5,29.9h1.7V40.2h7.2v1.5h-8.9Z" transform="translate(0.01 0.1)"/>
          <path class="cls-22" d="M194.3,34.1c0-2.4,1.4-4.1,4.5-4.1s4.3,1.6,4.3,3.7c0,4-5.6,3.9-6.9,6.5h6.9v1.5H194c.3-5.4,7.3-4.7,7.3-8.1,0-1.7-1.1-2.3-2.5-2.3a2.68,2.68,0,0,0-3,2.8Z" transform="translate(0.01 0.1)"/>
        </g>
      </g>
    </g>
  </g>
</svg>
