<svg id="Layer_1" data-name="Layer 1" xmlns="http://www.w3.org/2000/svg" width="443.06" height="75.8" viewBox="0 0 443.06 75.8">
  <defs>
    <style>
      .cls-1 {
        fill: #dcdcdc;
      }

      .cls-2 {
        fill: #e5e5e5;
      }

      .cls-3, .cls-4, .cls-5 {
        isolation: isolate;
      }

      .cls-3 {
        opacity: 0.07;
      }

      .cls-4 {
        opacity: 0.05;
      }

      .cls-5 {
        opacity: 0.01;
      }

      .cls-6 {
        opacity: 0.06;
      }
    </style>
  </defs>
  <g>
    <g>
      <path class="cls-1" d="M436.9,75.3h-.5c-.9-.3-22.3-7.6-24.8-8.6a34,34,0,0,0-7.1-1.5c-1.2-.2-122.9-16.6-126.4-17.1-3.8-.5-48.5-4.6-51.2-4.7a3.62,3.62,0,0,1-3.8-3.4c0-.6.8-13.6,1.1-16,.3-2.7,3.1-3.4,3.2-3.5.5-.2,56.7-19.1,58.6-19.6a9.78,9.78,0,0,1,2.6-.3,13,13,0,0,1,2.3.2C292.1,1,411.2,17.3,418,18.7c7,1.4,11.6,11.1,11.8,11.5,4.2,8.5,12.2,24.6,12.5,25.2a2,2,0,0,1,.2,1.8s-1.4,12.9-1.7,15.5c-.4,2.4-3.1,2.6-3.9,2.6Z" transform="translate(-0.02)"/>
      <path class="cls-2" d="M288.5,1a12.54,12.54,0,0,1,2.2.2S411,17.7,417.8,19s11.4,11.2,11.4,11.2,12.2,24.5,12.5,25.2a2.24,2.24,0,0,1,.2,1.5s-1.4,12.9-1.7,15.5c-.2,2.1-2.5,2.3-3.4,2.3h-.3s-22.3-7.6-24.8-8.6a38.84,38.84,0,0,0-7.2-1.6S281.7,48.1,278.1,47.6,230,43,226.8,42.9a3.32,3.32,0,0,1-3.4-2.9s.8-13.5,1.1-15.9a4,4,0,0,1,2.8-3.1S284.1,2,286,1.3a10.68,10.68,0,0,1,2.5-.3m0-1a7,7,0,0,0-2.7.4c-2,.6-56.1,18.7-58.7,19.6a4.74,4.74,0,0,0-3.5,3.9c-.3,2.4-1,15.4-1.1,15.9V40a4.3,4.3,0,0,0,4.3,3.9c2.7.1,47.4,4.2,51.2,4.7,3.5.5,125.2,16.9,126.4,17.1a32.27,32.27,0,0,1,7,1.5c2.5,1,23.9,8.3,24.9,8.6h.6c2.5,0,4.1-1.2,4.4-3.2.3-2.5,1.6-14.6,1.7-15.5a2.85,2.85,0,0,0-.3-2.1c-.3-.6-9.2-18.4-12.5-25.2-.2-.4-4.9-10.3-12.1-11.7C411.4,16.8,295.9.9,291,.2a21.35,21.35,0,0,0-2.5-.2Z" transform="translate(-0.02)"/>
    </g>
    <path class="cls-3" d="M227.8,23s-3.3.9-3.4,2.5h0c2.5.2,54.6,5.1,54.6,5.1l.9.1.3-2.1-.5-22.1Z" transform="translate(-0.02)"/>
    <path class="cls-4" d="M405.1,48.4,279,30.6l-54.6-5.1c-.3,4.3-.9,14.3-.9,14.3a3.25,3.25,0,0,0,3.4,2.9c3.2.2,47.7,4.2,51.3,4.7S404.6,64.5,404.6,64.5s1.7.2,3.5.6l2.7-15.6C407.3,48.7,405.1,48.4,405.1,48.4Z" transform="translate(-0.02)"/>
    <path class="cls-5" d="M441.5,60.3s-16.9-6.6-24.1-8.8c-2.5-.8-4.8-1.4-6.6-1.9l-2.7,15.6a32.92,32.92,0,0,1,3.7,1c2.6,1,24.8,8.6,24.8,8.6s3.4.3,3.7-2.3C440.4,70.7,441.1,64.3,441.5,60.3Z" transform="translate(-0.02)"/>
    <g class="cls-6">
      <path d="M336.7,21.4l7.6.9a3.18,3.18,0,0,1,3,3.7,3,3,0,0,1-2.4,2.8h0c1.1.3,1.6,1.4,1.5,2.8-.2,2.3-.2,2.9.2,3.4l-1.9-.2c-.2-.4-.2-.9-.1-2.4.1-2.2-.5-3-2-3.2l-4.8-.6-.6,5.2-1.8-.2Zm6.2,6.3a2,2,0,0,0,2.5-1.7,1.91,1.91,0,0,0-1.9-2.2l-5.1-.6-.5,3.9Z" transform="translate(-0.02)"/>
      <path d="M353.6,27.1l-3.6-.4.2-1.3.4.1c3.1.4,3.7-1,3.8-1.8l1.4.2L354.3,36l-1.8-.2Z" transform="translate(-0.02)"/>
    </g>
  </g>
  <g>
    <g>
      <path class="cls-1" d="M6.1,75.3c-.8,0-3.6-.2-3.9-2.8S.5,57,.5,57a2.76,2.76,0,0,1,.3-1.8c.3-.5,8.3-16.7,12.5-25.2.2-.4,4.8-10.1,11.8-11.5C31.8,17.2,151,.8,152.2.7a14.54,14.54,0,0,1,2.3-.2,9.78,9.78,0,0,1,2.6.3c1.9.6,58.1,19.5,58.7,19.7A4.5,4.5,0,0,1,219,24c.3,2.3,1,15.3,1.1,15.9a3.86,3.86,0,0,1-3.8,3.5c-2.7.1-47.4,4.2-51.2,4.7S39.7,65,38.5,65.1a42.61,42.61,0,0,0-7.1,1.5c-2.5,1-23.9,8.3-24.8,8.6H6.4C6.4,75.3,6.3,75.3,6.1,75.3Z" transform="translate(-0.02)"/>
      <path class="cls-2" d="M154.5,1a9.28,9.28,0,0,1,2.4.3c1.9.6,58.7,19.7,58.7,19.7a4,4,0,0,1,2.8,3.1c.3,2.4,1.1,15.9,1.1,15.9a3.25,3.25,0,0,1-3.4,2.9c-3.2.2-47.7,4.2-51.3,4.7S38.4,64.7,38.4,64.7a31.7,31.7,0,0,0-7.2,1.6c-2.5,1-24.8,8.6-24.8,8.6H6.1c-.8,0-3.1-.2-3.4-2.3C2.4,69.9,1,56.9,1,56.9a2.24,2.24,0,0,1,.2-1.5c.4-.7,12.5-25.2,12.5-25.2S18.3,20.3,25.1,19,152.2,1.2,152.2,1.2a14.54,14.54,0,0,1,2.3-.2m0-1h0a15,15,0,0,0-2.4.2C147.2.9,31.7,16.7,25,18.1c-7.2,1.4-11.9,11.3-12.1,11.8C9.5,36.6.7,54.3.4,55a2.88,2.88,0,0,0-.3,2.1c.1.8,1.4,13,1.7,15.5.2,2,1.9,3.2,4.4,3.2h.6c.9-.3,22.3-7.6,24.9-8.6a32.27,32.27,0,0,1,7-1.5c1.2-.2,122.9-16.6,126.4-17.1,3.8-.5,48.5-4.6,51.2-4.7a4.3,4.3,0,0,0,4.3-3.9v-.2c0-.6-.8-13.6-1.1-15.9A5,5,0,0,0,216,20C213.4,19.1,159.2.9,157.3.3a11.43,11.43,0,0,0-2.8-.3Z" transform="translate(-0.02)"/>
    </g>
    <path class="cls-3" d="M215.1,23s3.3.9,3.4,2.5h0c-2.5.2-54.6,5.1-54.6,5.1l-.9.1-.3-2.1.5-22.1Z" transform="translate(-0.02)"/>
    <path class="cls-4" d="M37.9,48.4,164,30.6l54.6-5.1c.3,4.3.9,14.3.9,14.3a3.25,3.25,0,0,1-3.4,2.9c-3.2.2-47.7,4.2-51.3,4.7S38.4,64.5,38.4,64.5s-1.7.2-3.5.6L32.2,49.5C35.6,48.7,37.9,48.4,37.9,48.4Z" transform="translate(-0.02)"/>
    <path class="cls-5" d="M1.4,60.3s16.9-6.6,24.1-8.8c2.5-.8,4.8-1.4,6.6-1.9l2.7,15.6a32.92,32.92,0,0,0-3.7,1c-2.6,1-24.8,8.6-24.8,8.6s-3.3.3-3.6-2.3C2.5,70.7,1.8,64.3,1.4,60.3Z" transform="translate(-0.02)"/>
    <g class="cls-6">
      <path d="M85.6,24l1.8-.2,1.3,10.7,7.4-.9.2,1.6L87,36.4Z" transform="translate(-0.02)"/>
      <path d="M101.2,25.7l-3.6.4-.2-1.3.4-.1c3.1-.4,3.3-1.9,3.3-2.7l1.4-.2L104,34.1l-1.8.2Z" transform="translate(-0.02)"/>
    </g>
  </g>
</svg>
