<svg id="Layer_1" data-name="Layer 1" xmlns="http://www.w3.org/2000/svg" width="419.92" height="68.32" viewBox="0 0 419.92 68.32">
  <defs>
    <style>
      .cls-1 {
        fill: #e6e6e6;
      }

      .cls-2 {
        fill: #099;
      }

      .cls-3 {
        fill: #834d17;
      }

      .cls-4 {
        fill: #009607;
      }

      .cls-5 {
        fill: #bf1d5f;
      }

      .cls-6 {
        fill: #636260;
      }
    </style>
  </defs>
  <g>
    <g>
      <path class="cls-1" d="M105.2,67.1a32.91,32.91,0,1,1,32.2-33.6A33,33,0,0,1,105.2,67.1Z" transform="translate(0.01 0.01)"/>
      <path class="cls-1" d="M103.8,2.5a31.66,31.66,0,1,1-31,32.3,31.63,31.63,0,0,1,31-32.3M103.7,0a34.16,34.16,0,1,0,34.9,33.4A34.24,34.24,0,0,0,103.7,0Z" transform="translate(0.01 0.01)"/>
    </g>
    <path class="cls-2" d="M104,10.5a23.71,23.71,0,1,0,24.2,23.2A23.69,23.69,0,0,0,104,10.5Zm.9,43.8a20.16,20.16,0,1,1,19.6-20.6A20.11,20.11,0,0,1,104.9,54.3Z" transform="translate(0.01 0.01)"/>
  </g>
  <g>
    <g>
      <path class="cls-1" d="M34.9,67.1A32.91,32.91,0,1,1,67.1,33.5,33,33,0,0,1,34.9,67.1Z" transform="translate(0.01 0.01)"/>
      <path class="cls-1" d="M33.5,2.5a31.66,31.66,0,1,1-31,32.3,31.63,31.63,0,0,1,31-32.3M33.4,0A34.16,34.16,0,1,0,68.3,33.4,34.24,34.24,0,0,0,33.4,0Z" transform="translate(0.01 0.01)"/>
    </g>
    <polygon class="cls-3" points="51.81 18.31 49.31 15.81 34.11 31.61 18.31 16.51 15.81 19.11 31.61 34.21 16.51 50.01 19.11 52.51 34.21 36.71 50.01 51.81 52.51 49.31 36.71 34.11 51.81 18.31"/>
  </g>
  <g>
    <g>
      <path class="cls-1" d="M175.5,67.1a32.91,32.91,0,1,1,32.2-33.6A32.93,32.93,0,0,1,175.5,67.1Z" transform="translate(0.01 0.01)"/>
      <path class="cls-1" d="M174.1,2.5a31.66,31.66,0,1,1-31,32.3,31.63,31.63,0,0,1,31-32.3m0-2.5A34.16,34.16,0,1,0,209,33.4,34.24,34.24,0,0,0,174.1,0Z" transform="translate(0.01 0.01)"/>
    </g>
    <path class="cls-4" d="M188.8,15.8l-28.8.7-3.6.1.1,3.6.6,28.9.1,3.6,3.6-.1,28.9-.6,3.6-.1-.1-3.6-.6-28.9-.1-3.6Zm.7,32.5-28.9.6L160,20l28.9-.6Z" transform="translate(0.01 0.01)"/>
  </g>
  <g>
    <g>
      <path class="cls-1" d="M245.8,67.1A32.91,32.91,0,1,1,278,33.5,32.93,32.93,0,0,1,245.8,67.1Z" transform="translate(0.01 0.01)"/>
      <path class="cls-1" d="M244.4,2.5a31.66,31.66,0,1,1-31,32.3,31.63,31.63,0,0,1,31-32.3m0-2.5a34.16,34.16,0,1,0,34.9,33.4A34.24,34.24,0,0,0,244.4,0Z" transform="translate(0.01 0.01)"/>
    </g>
    <path class="cls-5" d="M265.3,43.8,244.6,9.5,225.3,44.6l-2,3.6,4.1-.1,17.9-.4,17.9-.4,4.1-.1Zm-20,.4-15.9.3,15.3-27.8,16.5,27.1Z" transform="translate(0.01 0.01)"/>
  </g>
  <g>
    <g>
      <path class="cls-1" d="M316.1,67.1a32.91,32.91,0,1,1,32.2-33.6A32.93,32.93,0,0,1,316.1,67.1Z" transform="translate(0.01 0.01)"/>
      <path class="cls-1" d="M314.7,2.5a31.66,31.66,0,1,1-31,32.3,31.63,31.63,0,0,1,31-32.3m0-2.5a34.16,34.16,0,1,0,34.9,33.4A34.24,34.24,0,0,0,314.7,0Z" transform="translate(0.01 0.01)"/>
    </g>
    <g>
      <path class="cls-6" d="M295.9,49.8l-.6-29.7,13.2-.3a17,17,0,0,1,6.1.7,6.57,6.57,0,0,1,3.4,2.8,7.89,7.89,0,0,1,1.3,4.5,7.93,7.93,0,0,1-1.9,5.4c-1.3,1.5-3.4,2.4-6.3,2.9a11.68,11.68,0,0,1,2.4,1.4,16.17,16.17,0,0,1,3.3,3.9l5.3,8-4.9.1-4.1-6.1c-1.2-1.8-2.2-3.1-2.9-4a6.88,6.88,0,0,0-2-1.9,7.1,7.1,0,0,0-1.8-.8,12.22,12.22,0,0,0-2.2-.1l-4.6.1.3,13.2Zm3.6-16.7L308,33a14.45,14.45,0,0,0,4.2-.6,4.67,4.67,0,0,0,2.3-1.8,4.23,4.23,0,0,0,.7-2.7,4.42,4.42,0,0,0-1.6-3.4c-1-.9-2.7-1.3-4.9-1.3l-9.4.2Z" transform="translate(0.01 0.01)"/>
      <path class="cls-6" d="M338.1,48.9l-3.6.1L334,25.8a20.07,20.07,0,0,1-3.4,2.6,28.55,28.55,0,0,1-3.8,2l-.1-3.5a22.47,22.47,0,0,0,5.3-3.6,15.55,15.55,0,0,0,3.2-4l2.4-.1Z" transform="translate(0.01 0.01)"/>
    </g>
  </g>
  <g>
    <g>
      <path class="cls-1" d="M386.4,67.1a32.91,32.91,0,1,1,32.2-33.6A32.93,32.93,0,0,1,386.4,67.1Z" transform="translate(0.01 0.01)"/>
      <path class="cls-1" d="M385.1,2.5a31.66,31.66,0,1,1-31,32.3,31.63,31.63,0,0,1,31-32.3M385,0a34.16,34.16,0,1,0,34.9,33.4A34.24,34.24,0,0,0,385,0Z" transform="translate(0.01 0.01)"/>
    </g>
    <g>
      <path class="cls-6" d="M363.4,47.3l-.6-29.7,13.2-.3a17,17,0,0,1,6.1.7,6.57,6.57,0,0,1,3.4,2.8,7.68,7.68,0,0,1,1.3,4.5,7.93,7.93,0,0,1-1.9,5.4c-1.3,1.5-3.4,2.4-6.3,2.9A11.68,11.68,0,0,1,381,35a16.17,16.17,0,0,1,3.3,3.9l5.3,8-4.9.1-4.1-6.1c-1.2-1.8-2.2-3.1-2.9-4a8.4,8.4,0,0,0-2-1.9,7.1,7.1,0,0,0-1.8-.8,12.22,12.22,0,0,0-2.2-.1L367,34l.3,13.2ZM367,30.6l8.4-.2a14.45,14.45,0,0,0,4.2-.6,4.18,4.18,0,0,0,2.3-1.8,4.23,4.23,0,0,0,.7-2.7,4.42,4.42,0,0,0-1.6-3.4c-1-.9-2.7-1.3-4.9-1.3l-9.4.2Z" transform="translate(0.01 0.01)"/>
      <path class="cls-6" d="M410.9,42.8l.1,3.5-19.6.4a6.9,6.9,0,0,1,.4-2.5,13.71,13.71,0,0,1,2.3-4,34.49,34.49,0,0,1,4.7-4.6,41.43,41.43,0,0,0,6.4-6.4,7.46,7.46,0,0,0,1.6-4.4,4.84,4.84,0,0,0-1.6-3.6,6,6,0,0,0-4.1-1.4,5.57,5.57,0,0,0-4.2,1.7,6.18,6.18,0,0,0-1.5,4.4l-3.8-.3a9.15,9.15,0,0,1,2.8-6.5,9.55,9.55,0,0,1,6.7-2.3,9.32,9.32,0,0,1,6.8,2.2,7.52,7.52,0,0,1,2.6,5.8,8.42,8.42,0,0,1-.7,3.5,15.63,15.63,0,0,1-2.3,3.7,48.2,48.2,0,0,1-5.5,5.3c-2.1,1.9-3.5,3.2-4.1,3.8a13,13,0,0,0-1.5,2Z" transform="translate(0.01 0.01)"/>
    </g>
  </g>
</svg>
