<svg id="Layer_1" data-name="Layer 1" xmlns="http://www.w3.org/2000/svg" width="380.3" height="109.7" viewBox="0 0 380.3 109.7">
  <defs>
    <style>
      .cls-1 {
        fill: #f2f2f2;
      }

      .cls-2 {
        fill: none;
      }

      .cls-3 {
        isolation: isolate;
        opacity: 0.1;
      }

      .cls-4 {
        fill: #e6e6e6;
      }

      .cls-5 {
        fill: #ebebeb;
      }

      .cls-6 {
        fill: #f0f0f0;
      }
    </style>
  </defs>
  <g id="Left">
    <path class="cls-1" d="M245.7,0a77.62,77.62,0,0,0-.1,109,4.62,4.62,0,0,1,.7.7l54.5-55.1Z"/>
    <path class="cls-2" d="M246.3.6a76.65,76.65,0,0,0,.5,108.4l53.9-54.5Z"/>
    <path class="cls-3" d="M246.3.6a76.65,76.65,0,0,0,.5,108.4l53.9-54.5Z"/>
    <path class="cls-4" d="M249.2,3.4a72.55,72.55,0,0,0,.6,102.7l51.1-51.6Z"/>
    <g>
      <path class="cls-5" d="M248.6,66.7c-.1,0-.1,0-.2-.1L238,54a.19.19,0,0,1,0-.3l10.6-12.5c.1-.1.1-.1.2-.1s.1,0,.2.1a.35.35,0,0,1,.1.2l-.2,25.2c0,.1-.1.1-.3.1Z"/>
      <path class="cls-6" d="M248.6,41.9l-.2,23.9-9.9-12,10.1-11.9m.2-1.4a.86.86,0,0,0-.6.3L237.6,53.3a.91.91,0,0,0,0,1L248.1,67a.86.86,0,0,0,.6.3.79.79,0,0,0,.8-.8l.2-25.2a1,1,0,0,0-.9-.8Z"/>
    </g>
  </g>
  <g id="Right">
    <path class="cls-1" d="M358,.7a4.62,4.62,0,0,1-.7-.7L302.8,55.1l55.1,54.5a77,77,0,0,0,22.4-54A76.28,76.28,0,0,0,358,.7Z"/>
    <path class="cls-2" d="M356.7.6,302.8,55.1,357.3,109A76.53,76.53,0,0,0,356.7.6Z"/>
    <path class="cls-3" d="M356.7.6,302.8,55.1,357.3,109A76.53,76.53,0,0,0,356.7.6Z"/>
    <path class="cls-4" d="M353.9,3.5,302.8,55.1l51.6,51.1a72.67,72.67,0,0,0-.5-102.7Z"/>
    <g>
      <path class="cls-5" d="M354.8,68.6c-.1,0-.1,0-.2-.1a.35.35,0,0,1-.1-.2l.2-25.2a.32.32,0,0,1,.3-.3c.1,0,.1,0,.2.1l10.4,12.7a.19.19,0,0,1,0,.3L355,68.5C354.9,68.6,354.9,68.6,354.8,68.6Z"/>
      <path class="cls-6" d="M355.2,43.8l9.9,12-10,11.9.1-23.9m-.2-1.4a.79.79,0,0,0-.8.8L354,68.3a.79.79,0,0,0,.8.8.86.86,0,0,0,.6-.3L366,56.3a.91.91,0,0,0,0-1L355.6,42.6a1.42,1.42,0,0,0-.6-.2Z"/>
    </g>
  </g>
  <g id="Down">
    <path class="cls-1" d="M111.6,55.1a77,77,0,0,0,54,22.4h1a76.84,76.84,0,0,0,54.3-22.6,1.38,1.38,0,0,0,.3-.4L166.2,0Z"/>
    <path class="cls-2" d="M112.2,54.5a76.64,76.64,0,0,0,53.4,22.2h1A76.68,76.68,0,0,0,220.7,54L166.2,0Z"/>
    <path class="cls-3" d="M112.2,54.5a76.64,76.64,0,0,0,53.4,22.2,76.79,76.79,0,0,0,55-22.7L166.2,0Z"/>
    <path class="cls-4" d="M115.1,51.6a72,72,0,0,0,50.6,21A72.23,72.23,0,0,0,217.8,51L166.2,0Z"/>
    <g>
      <path class="cls-5" d="M165.4,62.8c-.1,0-.1,0-.2-.1L152.7,52.1a.37.37,0,0,1-.1-.3.22.22,0,0,1,.2-.2l25.2.2c.2,0,.2.1.2.2a.37.37,0,0,1-.1.3L165.4,62.7C165.5,62.8,165.5,62.8,165.4,62.8Z"/>
      <path class="cls-6" d="M153.6,52.2l23.9.2-12,9.9L153.6,52.2m-.7-1a.75.75,0,0,0-.5,1.3l12.5,10.6a.76.76,0,0,0,.5.2c.2,0,.3-.1.5-.2l12.7-10.4a.73.73,0,0,0-.5-1.3l-25.2-.2Z"/>
    </g>
  </g>
  <g id="Up">
    <g>
      <g>
        <path class="cls-1" d="M109.6,22.4A76.79,76.79,0,0,0,55.6,0h-1A77.62,77.62,0,0,0,.3,22.6,1.38,1.38,0,0,1,0,23L55.1,77.5Z"/>
        <path class="cls-2" d="M109,23A76.37,76.37,0,0,0,55.6.9h-1A76.62,76.62,0,0,0,.6,23.6L55.1,77.5Z"/>
      </g>
      <path class="cls-3" d="M109,23A76.77,76.77,0,0,0,.6,23.6L55.1,77.5Z"/>
      <path class="cls-4" d="M106.2,25.9a72.55,72.55,0,0,0-102.7.6L55.1,77.6Z"/>
    </g>
    <g>
      <path class="cls-5" d="M43.2,25.6c-.2,0-.2-.1-.2-.2a.37.37,0,0,1,.1-.3L55.8,14.7c.1,0,.1-.1.2-.1s.1,0,.2.1L68.7,25.3a.37.37,0,0,1,.1.3.22.22,0,0,1-.2.2Z"/>
      <path class="cls-6" d="M55.8,15.3l11.9,10-23.9-.2,12-9.8m0-1.1c-.2,0-.3.1-.5.2L42.7,24.8a.73.73,0,0,0,.5,1.3l25.2.2h0a.75.75,0,0,0,.5-1.3L56.3,14.4a.76.76,0,0,0-.5-.2Z"/>
    </g>
  </g>
</svg>
