<svg id="Layer_1" data-name="Layer 1" xmlns="http://www.w3.org/2000/svg" width="626.3" height="45.1" viewBox="0 0 626.3 45.1">
  <defs>
    <style>
      .cls-1 {
        fill: #ccc;
      }

      .cls-2 {
        fill: #e6e6e6;
      }

      .cls-3 {
        fill: #39b54a;
        isolation: isolate;
        opacity: 0.66;
      }
    </style>
  </defs>
  <g>
    <g>
      <g>
        <path class="cls-1" d="M15.8,44.7H14.3V35a9.73,9.73,0,0,1-1.5,1.1,7.93,7.93,0,0,1-1.6.8V35.4a7.12,7.12,0,0,0,2.2-1.5,7,7,0,0,0,1.4-1.7h1Z"/>
        <path class="cls-1" d="M58.3,43.2v1.5H50.1a2.15,2.15,0,0,1,.2-1.1,5,5,0,0,1,1-1.7,19.2,19.2,0,0,1,2-1.9A13.47,13.47,0,0,0,56,37.4a2.94,2.94,0,0,0,.7-1.8,2,2,0,0,0-.6-1.5,2.35,2.35,0,0,0-1.7-.6,2.41,2.41,0,0,0-1.8.7,2.67,2.67,0,0,0-.7,1.8l-1.6-.2a3.8,3.8,0,0,1,1.2-2.7,4.1,4.1,0,0,1,2.8-.9,3.71,3.71,0,0,1,2.8,1,3.32,3.32,0,0,1,1,2.5,4,4,0,0,1-.3,1.5,4.37,4.37,0,0,1-1,1.5,31.12,31.12,0,0,1-2.4,2.2c-.9.8-1.5,1.3-1.8,1.6a3.28,3.28,0,0,0-.6.8Z"/>
        <path class="cls-1" d="M90.9,41.4l1.5-.2a3.74,3.74,0,0,0,.9,1.9,2,2,0,0,0,1.5.6,2.41,2.41,0,0,0,1.8-.7,2.49,2.49,0,0,0,.7-1.9,2.06,2.06,0,0,0-.7-1.7,2.27,2.27,0,0,0-1.8-.7,6.53,6.53,0,0,0-1.1.2l.2-1.3h.2a3.74,3.74,0,0,0,1.8-.5,2,2,0,0,0,.2-3,2.18,2.18,0,0,0-3,0,2.72,2.72,0,0,0-.8,1.7l-1.5-.3a4.06,4.06,0,0,1,1.3-2.4,3.59,3.59,0,0,1,2.5-.8,4.06,4.06,0,0,1,1.9.4,3.34,3.34,0,0,1,1.8,2.8,2.82,2.82,0,0,1-.4,1.5,3.61,3.61,0,0,1-1.3,1.1,2.83,2.83,0,0,1,1.7,1.1,3.17,3.17,0,0,1,.6,2A3.78,3.78,0,0,1,97.7,44a4,4,0,0,1-3,1.1,3.62,3.62,0,0,1-2.7-1A5.36,5.36,0,0,1,90.9,41.4Z"/>
        <path class="cls-1" d="M135.5,44.7v-3h-5.4V40.3l5.7-8.1H137v8.1h1.7v1.4H137v3Zm0-4.4V34.7l-3.9,5.6Z"/>
      </g>
      <g>
        <path class="cls-2" d="M12.9,25.5A12.5,12.5,0,0,1,13,.5l129.1.9a12.17,12.17,0,0,1,8.8,3.7,12.72,12.72,0,0,1,3.6,8.9A12.55,12.55,0,0,1,142,26.4Z"/>
        <path d="M13,1h0l129.1.9a12,12,0,0,1-.1,24h-.1L12.9,25A12.1,12.1,0,0,1,1,12.9,12,12,0,0,1,13,1m0-1h0A13,13,0,0,0,3.7,22.1,13.11,13.11,0,0,0,12.9,26l129.1.9h.1a13,13,0,0,0,.1-26L13,0Z"/>
      </g>
    </g>
    <circle class="cls-3" cx="14.8" cy="13.5" r="7.2"/>
  </g>
  <g>
    <g>
      <g>
        <path class="cls-1" d="M172.9,44.7h-1.5V35a9.73,9.73,0,0,1-1.5,1.1,7.93,7.93,0,0,1-1.6.8V35.4a7.12,7.12,0,0,0,2.2-1.5,7,7,0,0,0,1.4-1.7h1Z"/>
        <path class="cls-1" d="M215.4,43.2v1.5h-8.2a2.15,2.15,0,0,1,.2-1.1,5,5,0,0,1,1-1.7,19.2,19.2,0,0,1,2-1.9,13.47,13.47,0,0,0,2.7-2.6,2.94,2.94,0,0,0,.7-1.8,1.8,1.8,0,0,0-.7-1.5,2.35,2.35,0,0,0-1.7-.6,2.41,2.41,0,0,0-1.8.7,2.67,2.67,0,0,0-.7,1.8l-1.6-.2a3.8,3.8,0,0,1,1.2-2.7,4.1,4.1,0,0,1,2.8-.9,3.71,3.71,0,0,1,2.8,1,3.32,3.32,0,0,1,1,2.5,4,4,0,0,1-.3,1.5,4.37,4.37,0,0,1-1,1.5,31.12,31.12,0,0,1-2.4,2.2c-.9.8-1.5,1.3-1.8,1.6a3.28,3.28,0,0,0-.6.8Z"/>
        <path class="cls-1" d="M248,41.4l1.5-.2a3.74,3.74,0,0,0,.9,1.9,2,2,0,0,0,1.5.6,2.41,2.41,0,0,0,1.8-.7,2.49,2.49,0,0,0,.7-1.9,2.06,2.06,0,0,0-.7-1.7,2.27,2.27,0,0,0-1.8-.7,6.53,6.53,0,0,0-1.1.2l.2-1.3h.2a3.74,3.74,0,0,0,1.8-.5,2,2,0,0,0,.2-3,2.18,2.18,0,0,0-3,0,2.72,2.72,0,0,0-.8,1.7l-1.5-.3a4.06,4.06,0,0,1,1.3-2.4,3.59,3.59,0,0,1,2.5-.8,4.06,4.06,0,0,1,1.9.4,3.34,3.34,0,0,1,1.8,2.8A2.82,2.82,0,0,1,255,37a3.61,3.61,0,0,1-1.3,1.1,2.83,2.83,0,0,1,1.7,1.1,3.17,3.17,0,0,1,.6,2,3.78,3.78,0,0,1-1.2,2.8,4,4,0,0,1-3,1.1,3.62,3.62,0,0,1-2.7-1A5.36,5.36,0,0,1,248,41.4Z"/>
        <path class="cls-1" d="M292.6,44.7v-3h-5.4V40.3l5.7-8.1h1.2v8.1h1.7v1.4h-1.7v3Zm0-4.4V34.7l-3.9,5.6Z"/>
      </g>
      <g>
        <path class="cls-2" d="M170,25.5a12.5,12.5,0,0,1,.1-25l129.1.9A12.17,12.17,0,0,1,308,5.1a12.72,12.72,0,0,1,3.6,8.9,12.55,12.55,0,0,1-12.5,12.4Z"/>
        <path d="M170.1,1h0l129.1.9a12,12,0,0,1-.1,24H299L170,25a12,12,0,0,1,.1-24m0-1h0a13,13,0,0,0-9.3,22.1A13.11,13.11,0,0,0,170,26l129,.9h.1a13,13,0,0,0,.1-26L170.1,0Z"/>
      </g>
    </g>
    <circle class="cls-3" cx="211.2" cy="13.5" r="7.2"/>
  </g>
  <g>
    <g>
      <g>
        <path class="cls-1" d="M330,44.7h-1.5V35a9.73,9.73,0,0,1-1.5,1.1,7.93,7.93,0,0,1-1.6.8V35.4a7.12,7.12,0,0,0,2.2-1.5,7,7,0,0,0,1.4-1.7h1Z"/>
        <path class="cls-1" d="M372.4,43.2v1.5h-8.2a2.15,2.15,0,0,1,.2-1.1,5,5,0,0,1,1-1.7,19.2,19.2,0,0,1,2-1.9,13.47,13.47,0,0,0,2.7-2.6,2.94,2.94,0,0,0,.7-1.8,2,2,0,0,0-.6-1.5,2.35,2.35,0,0,0-1.7-.6,2.41,2.41,0,0,0-1.8.7A2.67,2.67,0,0,0,366,36l-1.6-.2a3.8,3.8,0,0,1,1.2-2.7,4.1,4.1,0,0,1,2.8-.9,3.71,3.71,0,0,1,2.8,1,3.32,3.32,0,0,1,1,2.5,4,4,0,0,1-.3,1.5,4.37,4.37,0,0,1-1,1.5,31.12,31.12,0,0,1-2.4,2.2c-.9.8-1.5,1.3-1.8,1.6a3.28,3.28,0,0,0-.6.8Z"/>
        <path class="cls-1" d="M405,41.4l1.5-.2a3.74,3.74,0,0,0,.9,1.9,2,2,0,0,0,1.5.6,2.41,2.41,0,0,0,1.8-.7,2.49,2.49,0,0,0,.7-1.9,2.06,2.06,0,0,0-.7-1.7,2.27,2.27,0,0,0-1.8-.7,6.53,6.53,0,0,0-1.1.2l.2-1.3h.2a3.74,3.74,0,0,0,1.8-.5,2,2,0,0,0,.2-3,2.18,2.18,0,0,0-3,0,2.72,2.72,0,0,0-.8,1.7l-1.5-.3a4.06,4.06,0,0,1,1.3-2.4,3.59,3.59,0,0,1,2.5-.8,4.06,4.06,0,0,1,1.9.4,3.34,3.34,0,0,1,1.8,2.8A2.82,2.82,0,0,1,412,37a3.61,3.61,0,0,1-1.3,1.1,2.83,2.83,0,0,1,1.7,1.1,3.17,3.17,0,0,1,.6,2,3.78,3.78,0,0,1-1.2,2.8,4,4,0,0,1-3,1.1,3.62,3.62,0,0,1-2.7-1A4.36,4.36,0,0,1,405,41.4Z"/>
        <path class="cls-1" d="M449.6,44.7v-3h-5.4V40.3l5.7-8.1h1.2v8.1h1.7v1.4h-1.7v3Zm0-4.4V34.7l-3.9,5.6Z"/>
      </g>
      <g>
        <path class="cls-2" d="M327,25.5a12.5,12.5,0,0,1,.1-25l129.1.9A12.17,12.17,0,0,1,465,5.1a12.72,12.72,0,0,1,3.6,8.9,12.55,12.55,0,0,1-12.5,12.4Z"/>
        <path d="M327.1,1h0l129.1.9a12,12,0,0,1-.1,24H456L327,25a12,12,0,0,1,.1-24m0-1h0a13,13,0,0,0-9.3,22.1A13.11,13.11,0,0,0,327,26l129.1.9h.1a13,13,0,0,0,.1-26L327.1,0Z"/>
      </g>
    </g>
    <circle class="cls-3" cx="409.1" cy="13.5" r="7.2"/>
  </g>
  <g>
    <g>
      <g>
        <path class="cls-1" d="M487,44.7h-1.5V35a9.73,9.73,0,0,1-1.5,1.1,7.93,7.93,0,0,1-1.6.8V35.4a7.12,7.12,0,0,0,2.2-1.5,7,7,0,0,0,1.4-1.7h1Z"/>
        <path class="cls-1" d="M529.5,43.2v1.5h-8.2a2.15,2.15,0,0,1,.2-1.1,5,5,0,0,1,1-1.7,19.2,19.2,0,0,1,2-1.9,13.47,13.47,0,0,0,2.7-2.6,2.94,2.94,0,0,0,.7-1.8,1.8,1.8,0,0,0-.7-1.5,2.35,2.35,0,0,0-1.7-.6,2.41,2.41,0,0,0-1.8.7A2.67,2.67,0,0,0,523,36l-1.6-.2a3.8,3.8,0,0,1,1.2-2.7,4.1,4.1,0,0,1,2.8-.9,3.71,3.71,0,0,1,2.8,1,3.32,3.32,0,0,1,1,2.5,4,4,0,0,1-.3,1.5,4.37,4.37,0,0,1-1,1.5,31.12,31.12,0,0,1-2.4,2.2c-.9.8-1.5,1.3-1.8,1.6a3.28,3.28,0,0,0-.6.8Z"/>
        <path class="cls-1" d="M562.1,41.4l1.5-.2a3.74,3.74,0,0,0,.9,1.9,2,2,0,0,0,1.5.6,2.41,2.41,0,0,0,1.8-.7,2.49,2.49,0,0,0,.7-1.9,2.06,2.06,0,0,0-.7-1.7,2.27,2.27,0,0,0-1.8-.7,6.53,6.53,0,0,0-1.1.2l.2-1.3h.2a3.74,3.74,0,0,0,1.8-.5,2,2,0,0,0,.2-3,2.18,2.18,0,0,0-3,0,2.72,2.72,0,0,0-.8,1.7l-1.5-.3a4.06,4.06,0,0,1,1.3-2.4,3.59,3.59,0,0,1,2.5-.8,4.06,4.06,0,0,1,1.9.4,3.34,3.34,0,0,1,1.8,2.8,2.82,2.82,0,0,1-.4,1.5,3.61,3.61,0,0,1-1.3,1.1,2.83,2.83,0,0,1,1.7,1.1,3.17,3.17,0,0,1,.6,2,3.78,3.78,0,0,1-1.2,2.8,4,4,0,0,1-3,1.1,3.62,3.62,0,0,1-2.7-1A5.36,5.36,0,0,1,562.1,41.4Z"/>
        <path class="cls-1" d="M606.7,44.7v-3h-5.4V40.3l5.7-8.1h1.2v8.1h1.7v1.4h-1.7v3Zm0-4.4V34.7l-3.9,5.6Z"/>
      </g>
      <g>
        <path class="cls-2" d="M484.1,25.5a12.5,12.5,0,0,1,.1-25l129.1.9a12.17,12.17,0,0,1,8.8,3.7,12.72,12.72,0,0,1,3.6,8.9,12.55,12.55,0,0,1-12.5,12.4Z"/>
        <path d="M484.2,1h0l129.1.9a12,12,0,0,1-.1,24h-.1l-129-.9a12,12,0,0,1,.1-24m0-1h0a13,13,0,0,0-9.3,22.1,13.11,13.11,0,0,0,9.2,3.9l129.1.9h.1a13,13,0,0,0,.1-26L484.2,0Z"/>
      </g>
    </g>
    <circle class="cls-3" cx="605.6" cy="13.5" r="7.2"/>
  </g>
</svg>
