<svg id="Layer_1" data-name="Layer 1" xmlns="http://www.w3.org/2000/svg" width="342.03" height="112.8" viewBox="0 0 342.03 112.8">
  <defs>
    <style>
      .cls-1 {
        fill: #dedede;
      }

      .cls-2 {
        fill: #e8e8e8;
      }

      .cls-3 {
        fill: #e3e3e3;
      }

      .cls-4 {
        fill: #d9d9d9;
      }

      .cls-5 {
        fill: #1a1a1a;
      }

      .cls-6 {
        fill: #212121;
      }

      .cls-7 {
        fill: #171717;
      }

      .cls-8 {
        fill: #191919;
      }

      .cls-9 {
        fill: #262626;
      }
    </style>
  </defs>
  <g>
    <g>
      <path class="cls-1" d="M285.7,112.2a55.79,55.79,0,0,1-40.3-94.4A55.21,55.21,0,0,1,284.5.6h1.2a55.81,55.81,0,0,1,1.2,111.6Z" transform="translate(0.01)"/>
      <path class="cls-2" d="M285.7,1a55.36,55.36,0,0,1,1.2,110.7h-1.2A55.36,55.36,0,0,1,284.5,1h1.2m0-1h-1.2a56.35,56.35,0,0,0-55.1,57.6,56.35,56.35,0,0,0,56.3,55.2h1.2A56.35,56.35,0,0,0,342,55.2,56.35,56.35,0,0,0,285.7,0Z" transform="translate(0.01)"/>
    </g>
    <circle class="cls-3" cx="285.71" cy="57.5" r="46.1"/>
    <circle class="cls-4" cx="285.71" cy="57.5" r="39.5"/>
    <circle class="cls-3" cx="285.71" cy="57.5" r="34"/>
    <g>
      <path class="cls-5" d="M267.2,68.8v-23h10.2a14.49,14.49,0,0,1,4.7.6,5,5,0,0,1,2.6,2.2,6.82,6.82,0,0,1,1,3.5,5.58,5.58,0,0,1-1.6,4.1,8.25,8.25,0,0,1-4.9,2.1,11.82,11.82,0,0,1,1.8,1.1,13.52,13.52,0,0,1,2.5,3.1l4,6.2h-3.8l-3-4.8c-.9-1.4-1.6-2.4-2.2-3.2a10.4,10.4,0,0,0-1.5-1.5,4.24,4.24,0,0,0-1.4-.6,7.16,7.16,0,0,0-1.7-.1h-3.5V68.7h-3.2ZM270.3,56h6.5a9.87,9.87,0,0,0,3.3-.4,3.19,3.19,0,0,0,1.8-1.4,3.7,3.7,0,0,0,.6-2.1,3.42,3.42,0,0,0-1.2-2.7,5.46,5.46,0,0,0-3.7-1h-7.3V56Z" transform="translate(0.01)"/>
      <path class="cls-5" d="M289.2,62.8l2.8-.4a6.41,6.41,0,0,0,1.7,3.5,4.11,4.11,0,0,0,2.8,1.1,4.94,4.94,0,0,0,3.4-1.4,4.76,4.76,0,0,0,1.4-3.4A4.08,4.08,0,0,0,300,59a4.45,4.45,0,0,0-3.2-1.3,8.79,8.79,0,0,0-2,.3l.3-2.5h.5a5.71,5.71,0,0,0,3.2-.9,3.09,3.09,0,0,0,1.4-2.9,4,4,0,0,0-1-2.6,4.14,4.14,0,0,0-5.4,0,5.28,5.28,0,0,0-1.4,3.1l-2.8-.5a6.68,6.68,0,0,1,6.9-6,8.17,8.17,0,0,1,3.5.8,5.67,5.67,0,0,1,3.2,5.2,5,5,0,0,1-.8,2.7,4.67,4.67,0,0,1-2.4,1.9,5.76,5.76,0,0,1,3.2,1.9,5.62,5.62,0,0,1,1.1,3.7,6.67,6.67,0,0,1-2.2,5.1,7.71,7.71,0,0,1-5.5,2.1,7.14,7.14,0,0,1-5-1.8A6.31,6.31,0,0,1,289.2,62.8Z" transform="translate(0.01)"/>
    </g>
  </g>
  <g>
    <g>
      <path class="cls-1" d="M171,112.2a55.79,55.79,0,0,1-40.3-94.4A54.9,54.9,0,0,1,169.8.5H171a55.81,55.81,0,0,1,1.2,111.6A4.87,4.87,0,0,1,171,112.2Z" transform="translate(0.01)"/>
      <path class="cls-2" d="M171.1,1a55.36,55.36,0,0,1,1.2,110.7h-1.2A55.36,55.36,0,0,1,169.8,1h1.3m0-1h-1.2a56.35,56.35,0,0,0-55.1,57.6,56.35,56.35,0,0,0,56.3,55.2h1.2a56.35,56.35,0,0,0,55.1-57.6A56.35,56.35,0,0,0,171.1,0Z" transform="translate(0.01)"/>
    </g>
    <circle class="cls-3" cx="171.11" cy="57.5" r="46.1"/>
    <circle class="cls-4" cx="171.11" cy="57.5" r="39.5"/>
    <circle class="cls-3" cx="171.11" cy="57.5" r="34"/>
    <g>
      <path class="cls-5" d="M155.1,68.8v-23h3V66.1h11.3v2.7Z" transform="translate(0.01)"/>
      <path class="cls-5" d="M172,62.8l2.8-.4a6.41,6.41,0,0,0,1.7,3.5,4.11,4.11,0,0,0,2.8,1.1,4.94,4.94,0,0,0,3.4-1.4,4.76,4.76,0,0,0,1.4-3.4,4.08,4.08,0,0,0-1.3-3.2,4.45,4.45,0,0,0-3.2-1.3,8.79,8.79,0,0,0-2,.3l.3-2.5h.5a5.71,5.71,0,0,0,3.2-.9,3.09,3.09,0,0,0,1.4-2.9,4,4,0,0,0-1-2.6,4.14,4.14,0,0,0-5.4,0,5.28,5.28,0,0,0-1.4,3.1l-2.8-.5a6.68,6.68,0,0,1,6.9-6,8.17,8.17,0,0,1,3.5.8,5.67,5.67,0,0,1,3.2,5.2,5,5,0,0,1-.8,2.7,4.67,4.67,0,0,1-2.4,1.9,5.76,5.76,0,0,1,3.2,1.9,5.62,5.62,0,0,1,1.1,3.7,6.67,6.67,0,0,1-2.2,5.1,7.71,7.71,0,0,1-5.5,2.1,7.14,7.14,0,0,1-5-1.8A5.68,5.68,0,0,1,172,62.8Z" transform="translate(0.01)"/>
    </g>
  </g>
  <g>
    <g>
      <path class="cls-6" d="M56.3,112.2A55.87,55.87,0,0,1,16,17.7,55.21,55.21,0,0,1,55.1.5h1.2a55.81,55.81,0,0,1,1.2,111.6A4.87,4.87,0,0,1,56.3,112.2Z" transform="translate(0.01)"/>
      <path class="cls-7" d="M56.4,1a55.36,55.36,0,0,1,1.2,110.7H56.4A55.36,55.36,0,0,1,55.2,1h1.2m0-1H55.2A56.47,56.47,0,0,0,0,57.6a55.37,55.37,0,0,0,17,39,55.94,55.94,0,0,0,39.4,16.1h1.2A56.36,56.36,0,0,0,56.4,0Z" transform="translate(0.01)"/>
    </g>
    <circle class="cls-8" cx="56.41" cy="57.5" r="46.1"/>
    <circle class="cls-9" cx="56.41" cy="57.5" r="39.5"/>
    <circle class="cls-8" cx="56.41" cy="57.5" r="34"/>
  </g>
</svg>
