<svg id="Layer_1" data-name="Layer 1" xmlns="http://www.w3.org/2000/svg" width="192.17" height="103.1" viewBox="0 0 192.17 103.1">
  <defs>
    <style>
      .cls-1 {
        fill: #dcdcdc;
      }

      .cls-2 {
        fill: #e5e5e5;
      }

      .cls-3, .cls-4, .cls-5 {
        isolation: isolate;
      }

      .cls-3, .cls-6 {
        opacity: 0.06;
      }

      .cls-4 {
        opacity: 0.04;
      }

      .cls-5 {
        opacity: 0.02;
      }
    </style>
  </defs>
  <g>
    <g>
      <path class="cls-1" d="M103.4,100.2s.2,2.7,7.1,2.3,12.5-.9,12.5-.9,3.7-.2,5.9-.1,58.4.4,58.4.4,6.6,1.3,2.9-7.3-19.2-48-19.2-48-9.8-32.1-10.4-37.1S154.4.7,149.5.7,105.2.4,105.2.4,97,2,97.3,8.4l1.9,49.1,1.4,12.9Z" transform="translate(0.11)"/>
      <path class="cls-2" d="M109.3,103c-5.9,0-6.3-2.5-6.4-2.8l-2.7-29.7L98.8,57.6,97,8.5c-.3-6.8,8.2-8.5,8.3-8.5h0c1.2,0,39.6.3,44.4.3h.1c5,0,10.9,3.9,11.5,9.2.5,4.9,10.3,36.7,10.4,37s15.5,39.4,19.2,48c1.4,3.2,1.5,5.6.5,6.9-1.3,1.6-3.8,1.1-3.9,1.1-2.2,0-56.1-.3-58.4-.4s-5.9.1-5.9.1-5.8.5-12.5.9A7.6,7.6,0,0,0,109.3,103Zm-5.4-2.9c0,.1.5,2.2,6.5,1.9,6.7-.3,12.5-.9,12.5-.9.2,0,3.8-.2,6-.1s57.9.4,58.4.4c.1,0,2.1.4,3-.7s.6-3-.6-5.9c-3.7-8.6-19-47.7-19.2-48-.4-1.3-9.9-32.2-10.4-37.2-.5-4.8-5.9-8.3-10.5-8.3h-.1c-4.6,0-43.8-.3-44.2-.3-.2,0-7.6,1.5-7.3,7.4l1.9,49.1,1.4,12.8Z" transform="translate(0.11)"/>
    </g>
    <path class="cls-3" d="M185.2,97.6s-53.2-.5-56.6-.6-5.3,0-5.3,0l-19.9,3.1s.2,2.7,7.1,2.3,12.5-.9,12.5-.9,3.7-.2,5.9-.1,58.4.4,58.4.4.5-2.7-.1-3.6C187,97.8,185.2,97.6,185.2,97.6Z" transform="translate(0.11)"/>
    <path class="cls-4" d="M125.3,97h0L122,56.3l-2.1-53H106.1s-8.9-.3-8.6,7.2h0l1.8,47.1,1.4,12.9,2.7,29.7,19.9-3.1A6.26,6.26,0,0,1,125.3,97Z" transform="translate(0.11)"/>
    <path class="cls-5" d="M122,56.3l-2.1-53,30.4.4s5.7-.4,7.6,8,13,43,13,43Z" transform="translate(0.11)"/>
    <g class="cls-6">
      <path d="M130.4,29.8h7.3a2.9,2.9,0,0,1,3.2,3.1,2.76,2.76,0,0,1-2,2.9h0c1.1.1,1.7,1.1,1.7,2.5.1,2.2.2,2.8.6,3.2h-1.8c-.3-.3-.3-.8-.4-2.2-.1-2.1-.8-2.8-2.3-2.8h-4.6v5h-1.7Zm6.6,5.3c1.7,0,2.1-1,2.1-1.9a1.85,1.85,0,0,0-2.1-1.9h-4.9V35H137Z" transform="translate(0.11)"/>
      <path d="M142.3,34.1c0-2.4,1.4-4.1,4.5-4.1s4.3,1.6,4.3,3.7c0,4-5.6,3.9-6.9,6.5h6.9v1.5H142c.3-5.4,7.3-4.7,7.3-8.1,0-1.7-1.1-2.3-2.5-2.3a2.68,2.68,0,0,0-3,2.8Z" transform="translate(0.11)"/>
    </g>
  </g>
  <g>
    <g>
      <path class="cls-1" d="M88.5,100.2s-.2,2.7-7.1,2.3-12.5-.9-12.5-.9-3.7-.2-5.9-.1-58.4.4-58.4.4-6.6,1.3-2.9-7.3,19.2-48,19.2-48S30.7,14.5,31.3,9.5,37.5.7,42.4.7,86.7.4,86.7.4s8.2,1.6,7.9,8L92.7,57.5,91.3,70.4Z" transform="translate(0.11)"/>
      <path class="cls-2" d="M82.6,103H81.4c-6.8-.3-12.5-.9-12.6-.9s-3.7-.2-5.9-.1-56.2.4-58.5.4c0,0-2.5.5-3.8-1.1-1.1-1.3-.9-3.7.5-6.9,3.7-8.5,19-47.6,19.2-48S30.1,14.3,30.6,9.5C31.2,4.2,37.2.3,42.2.3S86.2,0,86.6,0c.2,0,8.7,1.7,8.4,8.5L93.1,57.6,91.7,70.5,89,100.2C89,100.5,88.6,103,82.6,103Zm-18.3-2c2.1,0,4.5.1,4.7.1s5.8.5,12.5.9c6.1.3,6.5-1.8,6.5-1.9l2.7-29.7,1.4-12.9L94,8.4C94.3,2.5,86.8,1,86.5.9s-39.4.3-44.2.3h-.1c-4.5,0-10,3.5-10.5,8.3-.5,5-10,35.9-10.4,37.2-.2.5-15.5,39.6-19.2,48.1-1.2,2.8-1.4,4.9-.6,5.9a3.05,3.05,0,0,0,2.9.7c.7,0,56.3-.4,58.5-.4Z" transform="translate(0.11)"/>
    </g>
    <path class="cls-3" d="M6.7,97.7s53.2-.5,56.6-.6,5.3,0,5.3,0l19.9,3.1s-.2,2.7-7.1,2.3-12.5-.9-12.5-.9-3.7-.2-5.9-.1-58.4.4-58.4.4-.6-2.6,0-3.6C4.9,97.9,6.7,97.7,6.7,97.7Z" transform="translate(0.11)"/>
    <path class="cls-4" d="M66.6,97h0l3.2-40.7,2.1-53H85.7s8.9-.3,8.6,7.2h0L92.5,57.6,91.1,70.5l-2.7,29.7L68.5,97.1A11.44,11.44,0,0,0,66.6,97Z" transform="translate(0.11)"/>
    <path class="cls-5" d="M69.9,56.3,72,3.3l-30.4.4s-5.7-.4-7.6,8-13,43-13,43Z" transform="translate(0.11)"/>
    <g class="cls-6">
      <path d="M40.6,29.9h1.7V40.2h7.2v1.5H40.6Z" transform="translate(0.11)"/>
      <path d="M50.5,34.1c0-2.4,1.4-4.1,4.5-4.1s4.3,1.6,4.3,3.7c0,4-5.6,3.9-6.9,6.5h6.9v1.5H50.2c.3-5.4,7.3-4.7,7.3-8.1,0-1.7-1.1-2.3-2.5-2.3a2.68,2.68,0,0,0-3,2.8Z" transform="translate(0.11)"/>
    </g>
  </g>
</svg>
