<svg id="Layer_1" data-name="Layer 1" xmlns="http://www.w3.org/2000/svg" width="810.05" height="850.78" viewBox="0 0 810.05 850.78">
  <defs>
    <style>
      .cls-1 {
        fill: #c9cacc;
      }

      .cls-18, .cls-19, .cls-2, .cls-20, .cls-21, .cls-22, .cls-23, .cls-24, .cls-35, .cls-4 {
        isolation: isolate;
      }

      .cls-10, .cls-2, .cls-4 {
        opacity: 0.2;
      }

      .cls-3 {
        fill: #363533;
      }

      .cls-12, .cls-19, .cls-20, .cls-21, .cls-22, .cls-23, .cls-24, .cls-4 {
        fill: #fff;
      }

      .cls-5 {
        fill: #8f8e94;
      }

      .cls-22, .cls-6 {
        opacity: 0.05;
      }

      .cls-7 {
        fill: #99979c;
      }

      .cls-8 {
        opacity: 0.46;
      }

      .cls-9 {
        opacity: 0.1;
      }

      .cls-11 {
        opacity: 0.15;
      }

      .cls-13 {
        opacity: 0.07;
      }

      .cls-14 {
        fill: #88868a;
      }

      .cls-15 {
        opacity: 0.55;
      }

      .cls-16 {
        opacity: 0.7;
      }

      .cls-17 {
        fill: #424147;
      }

      .cls-18 {
        opacity: 0.4;
      }

      .cls-19 {
        opacity: 0.03;
      }

      .cls-20 {
        opacity: 0.01;
      }

      .cls-21 {
        opacity: 0.02;
      }

      .cls-23 {
        opacity: 0.04;
      }

      .cls-24 {
        opacity: 0.06;
      }

      .cls-25 {
        fill: #383538;
      }

      .cls-26 {
        fill: #3dcdd8;
      }

      .cls-27 {
        opacity: 0.25;
      }

      .cls-28 {
        fill: #c23227;
      }

      .cls-29 {
        fill: #dc78c0;
      }

      .cls-30 {
        fill: #23873f;
      }

      .cls-31 {
        fill: #d6dc48;
      }

      .cls-32 {
        fill: #2923b7;
      }

      .cls-33 {
        fill: #5c575d;
      }

      .cls-34, .cls-35 {
        opacity: 0.08;
      }

      .cls-35 {
        stroke: #000;
        stroke-miterlimit: 10;
        stroke-width: 0.99px;
      }

      .cls-36 {
        fill: #fcc827;
      }

      .cls-37 {
        fill: #333;
      }

      .cls-38 {
        opacity: 0.3;
      }
    </style>
  </defs>
  <g id="Right_Bumper" data-name="Right Bumper">
    <g id="Left_Bumper_Pressed" data-name="Left Bumper Pressed">
      <path class="cls-1" d="M145.6,172.4c51-6.9,79.1-10.3,79.1-10.3s6.9-.6,11.5-4c2.1-1.6,5.9-10,10-17.7L139.3,157s-45.9,9.8-65.7,29.5a4.38,4.38,0,0,0-1.3,3.2v18.5h0C89.8,193.4,113.5,180.8,145.6,172.4Z" transform="translate(0.01 0.07)"/>
      <path class="cls-2" d="M73.6,186.5c19.7-19.7,65.7-29.5,65.7-29.5l107.1-16.6-.1,1.7-107,16.6s-45.9,9.8-65.7,29.5a4.38,4.38,0,0,0-1.3,3.2v-1.7A3.89,3.89,0,0,1,73.6,186.5Z" transform="translate(0.01 0.07)"/>
    </g>
    <g id="Left_Bumper" data-name="Left Bumper">
      <path class="cls-3" d="M145.6,172.4c51-6.9,79.1-10.3,79.1-10.3s6.9-.6,11.5-4c2.1-1.6,5.9-10,10-17.7L139.3,157s-45.9,9.8-65.7,29.5a4.38,4.38,0,0,0-1.3,3.2v18.5h0C89.8,193.4,113.5,180.8,145.6,172.4Z" transform="translate(0.01 0.07)"/>
      <path class="cls-4" d="M73.6,186.5c19.7-19.7,65.7-29.5,65.7-29.5l107.1-16.6-.1,1.7-107,16.6s-45.9,9.8-65.7,29.5a4.38,4.38,0,0,0-1.3,3.2v-1.7A3.89,3.89,0,0,1,73.6,186.5Z" transform="translate(0.01 0.07)"/>
    </g>
  </g>
  <g id="Left_Bumper-2" data-name="Left Bumper">
    <g id="Right_Bumper_Pressed" data-name="Right Bumper Pressed">
      <path class="cls-1" d="M574.1,158.1c4.6,3.4,11.5,4,11.5,4s28.1,3.4,79.1,10.3c32.1,8.3,55.8,21,73.3,35.8h0V189.7a4.63,4.63,0,0,0-1.3-3.2C717,166.8,671,157,671,157L564,140.4C568.2,148.1,572,156.5,574.1,158.1Z" transform="translate(0.01 0.07)"/>
      <path class="cls-2" d="M736.6,186.5c-19.7-19.7-65.7-29.5-65.7-29.5L563.8,140.4l.1,1.7,107,16.6s45.9,9.8,65.7,29.5a4.38,4.38,0,0,1,1.3,3.2v-1.7A4.63,4.63,0,0,0,736.6,186.5Z" transform="translate(0.01 0.07)"/>
    </g>
    <g id="Right_Bumper-2" data-name="Right Bumper">
      <path class="cls-3" d="M574.1,158.1c4.6,3.4,11.5,4,11.5,4s28.1,3.4,79.1,10.3c32.1,8.3,55.8,21,73.3,35.8h0V189.7a4.63,4.63,0,0,0-1.3-3.2C717,166.8,671,157,671,157L564,140.4C568.2,148.1,572,156.5,574.1,158.1Z" transform="translate(0.01 0.07)"/>
      <path class="cls-4" d="M736.6,186.5c-19.7-19.7-65.7-29.5-65.7-29.5L563.8,140.4l.1,1.7,107,16.6s45.9,9.8,65.7,29.5a4.38,4.38,0,0,1,1.3,3.2v-1.7A4.63,4.63,0,0,0,736.6,186.5Z" transform="translate(0.01 0.07)"/>
    </g>
  </g>
  <g>
    <g id="Right_Handle" data-name="Right Handle">
      <path class="cls-5" d="M789.7,323.1s.3,22.3,1.4,27.5S814,445.7,809.4,507s-10.9,123.7-28.6,146.7S741.3,672,741.3,672s-22.9-2.9-34.4-23.5-50.4-144.9-51.6-150.7-5.9-15.4-17-21.2S789.7,323.1,789.7,323.1Z" transform="translate(0.01 0.07)"/>
    </g>
    <g id="Right_Handle_Shadow" data-name="Right Handle Shadow" class="cls-6">
      <path d="M639.9,477.4c.2.1.5.3.7.4a.76.76,0,0,0,.4.2c.2.1.4.3.6.4s.3.2.4.3.4.3.6.4.3.2.4.3.4.3.6.4a1.38,1.38,0,0,0,.4.3c.2.1.4.3.6.4l.3.3c.2.2.4.3.6.5s.2.1.2.2c.3.2.5.5.8.7,17.1-3.3,60.1-5.4,101.9-46.3,25-24.4,39.8-55.1,44.6-78.4-.9-3.8-1.4-6.2-1.6-6.9-1.1-5.2-1.4-27.5-1.4-27.5a2.22,2.22,0,0,0-.5.4c.1.8.1,1.6.2,2.4,2.9,39-16,82.5-49.3,113.4s-91.1,35.5-91.1,35.5l-10.7,1.7c.4.2.7.4,1.1.6C639.6,477.3,639.7,477.3,639.9,477.4Z" transform="translate(0.01 0.07)"/>
    </g>
    <g id="Left_Handle" data-name="Left Handle">
      <path class="cls-5" d="M20.4,323.1s-.3,22.3-1.4,27.5S-3.9,445.7.6,507,11.5,630.7,29.2,653.7,68.7,672,68.7,672s22.9-2.9,34.4-23.5,50.4-144.9,51.6-150.7,5.9-15.4,17-21.2S20.4,323.1,20.4,323.1Z" transform="translate(0.01 0.07)"/>
    </g>
    <g id="Base">
      <path class="cls-7" d="M789.5,325.9c-2.9-39-10.3-123.7-124.9-153.5-51-6.9-79.1-10.3-79.1-10.3s-6.9-.6-11.5-4c-3.6-2.7-12-25.2-18.9-30.4S490.4,99.1,405,99.1s-143.1,23.5-150,28.6-15.3,27.7-18.9,30.4c-4.6,3.4-11.5,4-11.5,4s-28.1,3.4-79.1,10.3C31,202.2,23.5,287,20.7,325.9s16,82.5,49.3,113.4,91.1,35.5,91.1,35.5L242.4,488a97.28,97.28,0,0,1,29.8,17.8c14.3,12.6,16.6,35.5,16.6,35.5s14.3,88.2,30.9,171.3,40.7,118.6,52.1,124.9,24.6,9.2,33.2,9.2,21.8-2.9,33.2-9.2,35.5-41.8,52.1-124.9,30.9-171.3,30.9-171.3,2.3-22.9,16.6-35.5A97.28,97.28,0,0,1,567.6,488l81.3-13.2s57.9-4.6,91.1-35.5C773.4,408.4,792.3,364.9,789.5,325.9Z" transform="translate(0.01 0.07)"/>
    </g>
    <g class="cls-8">
      <rect x="583.66" y="378.2" width="7.3" height="28.4" transform="translate(-105.43 530.3) rotate(-45)"/>
    </g>
    <g id="Start_Indent" data-name="Start Indent" class="cls-9">
      <circle cx="405.11" cy="371.87" r="37.8"/>
    </g>
    <g id="C_Group" data-name="C Group">
      <g id="C_Area" data-name="C Area" class="cls-8">
        <path d="M677.2,258.3a56.1,56.1,0,1,1-56.1,56.1,56.08,56.08,0,0,1,56.1-56.1m0-2.8a59,59,0,1,0,59,59,59.11,59.11,0,0,0-59-59Z" transform="translate(0.01 0.07)"/>
      </g>
      <g class="cls-10">
        <path d="M677.8,323.4a1.42,1.42,0,0,1-1.6,1.4,1.6,1.6,0,0,1-1.3-1.5V306.9a1.5,1.5,0,0,1,1.3-1.5,1.42,1.42,0,0,1,1.6,1.4v2.6h5.7c0-5.2,0-8-6.9-8-6,0-7.2,3.9-7.4,4.9v18.2c.2,1,1.4,4.9,7.4,4.9,6.9,0,6.9-4.6,6.9-9.7h-5.7Z" transform="translate(0.01 0.07)"/>
      </g>
    </g>
    <g id="DPad_Area" data-name="DPad Area">
      <g id="Dpad_Area-2" data-name="Dpad Area" class="cls-11">
        <circle cx="160.11" cy="345.47" r="86.5"/>
      </g>
      <g class="cls-9">
        <path class="cls-12" d="M160.1,258.9a86.5,86.5,0,1,1-86.5,86.5,86.46,86.46,0,0,1,86.5-86.5m0-1.8a88.2,88.2,0,1,0,88.2,88.2,88.34,88.34,0,0,0-88.2-88.2Z" transform="translate(0.01 0.07)"/>
      </g>
    </g>
    <g id="Right_Shadow" data-name="Right Shadow" class="cls-13">
      <path d="M574.1,162.1c-3.2-2.4-10.1-20.1-16.4-27.9L538.5,307l36.9-144C575,162.7,574.5,162.4,574.1,162.1Z" transform="translate(0.01 0.07)"/>
    </g>
    <g id="Left_Handle_Shadow" data-name="Left Handle Shadow" class="cls-6">
      <path d="M170.3,477.4c-.2.1-.5.3-.7.4a.76.76,0,0,1-.4.2c-.2.1-.4.3-.6.4s-.3.2-.4.3-.4.3-.6.4-.3.2-.4.3-.4.3-.6.4a1.38,1.38,0,0,1-.4.3c-.2.1-.4.3-.6.4l-.3.3c-.2.2-.4.3-.6.5s-.2.1-.2.2c-.3.2-.5.5-.8.7-17.1-3.3-60.1-5.4-101.9-46.3-25-24.4-39.8-55.1-44.6-78.4.9-3.8,1.4-6.2,1.6-6.9,1.1-5.2,1.4-27.5,1.4-27.5a2.22,2.22,0,0,1,.5.4c-.1.8-.1,1.6-.2,2.4-2.9,39,16,82.5,49.3,113.4s91.1,35.5,91.1,35.5l10.7,1.7c-.4.2-.7.4-1.1.6C170.5,477.3,170.4,477.3,170.3,477.4Z" transform="translate(0.01 0.07)"/>
    </g>
    <g id="Left_Shadow" data-name="Left Shadow" class="cls-13">
      <path d="M236.1,162.1c3.2-2.4,10.1-20.1,16.4-27.9L271.6,307,234.7,163C235.2,162.7,235.6,162.4,236.1,162.1Z" transform="translate(0.01 0.07)"/>
    </g>
    <g id="Base_Over_Highlight" data-name="Base Over Highlight" class="cls-11">
      <path class="cls-12" d="M789.5,325.9c-2.9-39-10.3-123.7-124.9-153.5-51-6.9-79.1-10.3-79.1-10.3s-6.9-.6-11.5-4c-3.6-2.7-12-25.2-18.9-30.4S490.4,99.1,405,99.1s-143.1,23.5-150,28.6-15.3,27.7-18.9,30.4c-4.6,3.4-11.5,4-11.5,4s-28.1,3.4-79.1,10.3C31,202.2,23.5,287,20.7,325.9c-.2,3.2-.3,6.5-.3,9.7h0c0-1.9.1-3.8.2-5.7,2.9-39,10.3-123.7,124.9-153.5,51-6.9,79.1-10.3,79.1-10.3s6.9-.6,11.5-4c3.6-2.7,12-25.2,18.9-30.4s64.7-28.6,150.1-28.6,143.2,23.5,150.1,28.6,15.3,27.7,18.9,30.4c4.6,3.4,11.5,4,11.5,4s28.1,3.4,79.1,10.3c114.6,29.8,122,114.6,124.9,153.5.1,1.9.2,3.8.2,5.7h0C789.8,332.4,789.7,329.2,789.5,325.9Z" transform="translate(0.01 0.07)"/>
    </g>
    <g id="Base_Under_Shadow" data-name="Base Under Shadow">
      <path class="cls-14" d="M789.7,335.8c-.7,36.3-19.1,75.2-49.5,103.5-33.2,30.9-91.1,35.5-91.1,35.5L567.8,488A97.28,97.28,0,0,0,538,505.8c-14.3,12.6-16.6,35.5-16.6,35.5s-14.3,88.2-30.9,171.3-40.7,118.6-52.1,124.9-24.6,9.2-33.2,9.2-21.8-2.9-33.2-9.2-35.5-41.8-52.1-124.9S289,541.3,289,541.3s-2.3-22.9-16.6-35.5A97.28,97.28,0,0,0,242.6,488L161,474.9s-57.9-4.6-91.1-35.5C39.5,411,21.1,372.1,20.4,335.8c-.7,37.4,18,78.2,49.5,107.5,33.2,30.9,91.1,35.5,91.1,35.5L242.3,492a97.28,97.28,0,0,1,29.8,17.8c14.3,12.6,16.6,35.5,16.6,35.5s14.3,88.2,30.9,171.3,40.7,118.6,52.1,124.9,24.6,9.2,33.2,9.2,21.8-2.9,33.2-9.2,35.5-41.8,52.1-124.9,30.9-171.3,30.9-171.3,2.3-22.9,16.6-35.5A97.28,97.28,0,0,1,567.5,492l81.3-13.2s57.9-4.6,91.1-35.5C771.8,414,790.4,373.2,789.7,335.8Z" transform="translate(0.01 0.07)"/>
    </g>
    <g id="Nintendo_Logo" data-name="Nintendo Logo" class="cls-15">
      <path d="M471.6,218.3H337a21.9,21.9,0,1,1,0-43.8H471.5a21.9,21.9,0,0,1,.1,43.8ZM337,179.5a16.9,16.9,0,1,0,0,33.8H471.5a16.9,16.9,0,0,0,0-33.8Z" transform="translate(0.01 0.07)"/>
      <path d="M354.3,206.6V186.3h-6.1v14.2l-9-14.2h-6.6v20.3h6.1V191.9l9.5,14.7Z" transform="translate(0.01 0.07)"/>
      <path d="M364.3,206.6V192.8h-6.1v13.8Z" transform="translate(0.01 0.07)"/>
      <path d="M364.3,189.9v-3.7h-6.1v3.7Z" transform="translate(0.01 0.07)"/>
      <g id="_3162" data-name="3162">
        <path d="M385.7,206.6v-9.5c0-2-3.8-4.7-5.8-4.7H378c-1.4,0-2.9,1.2-4.3,1.8v-1.4h-6.1v13.8h6.1v-9.5c0-.9,2.1-2,3.1-2s2.6,1.1,2.6,2v9.5Z" transform="translate(0.01 0.07)"/>
      </g>
      <g id="_3162-2" data-name="3162">
        <path d="M436.7,206.6v-9.5c0-2-3.8-4.7-5.8-4.7H429c-1.4,0-2.9,1.2-4.3,1.8v-1.4h-6.1v13.8h6.1v-9.5c0-.9,2.1-2,3.1-2s2.6,1.1,2.6,2v9.5Z" transform="translate(0.01 0.07)"/>
      </g>
      <path d="M395.6,206.6V192.8h3.2V191h-3.2v-2.9h-6.3V191h-3.2v1.8h3.2v13.8Z" transform="translate(0.01 0.07)"/>
      <path d="M407.4,192.4c-4.9,0-9,3.4-9,7.5,0,4.3,4.1,7.6,9,7.6,4.3,0,7.8-2.4,8.7-5.7h-6.3v1.8c0,1.5-1.1,2-2.4,2s-2.3-.5-2.3-2v-3.8h11.3C416.4,195.8,412.4,192.4,407.4,192.4Zm0,1.4a2.26,2.26,0,0,1,2.4,2.4v1.4h-4.7v-1.4A2.18,2.18,0,0,1,407.4,193.8Z" transform="translate(0.01 0.07)"/>
      <path d="M467.6,192.4c-5,0-9,3.4-9,7.5,0,4.3,4,7.6,9,7.6s9-3.4,9-7.6S472.5,192.4,467.6,192.4Zm0,1.4a2.18,2.18,0,0,1,2.3,2.4v7.5c0,1.5-.9,2-2.3,2s-2.4-.5-2.4-2v-7.5A2.21,2.21,0,0,1,467.6,193.8Z" transform="translate(0.01 0.07)"/>
      <path d="M450,186.3v7.5a7.64,7.64,0,0,0-4.3-1.4,7.22,7.22,0,0,0-7,7c0,3.8,3.2,7.6,7,7.6a11.11,11.11,0,0,0,4.3-.9v.5h6.1V186.3Zm-2.3,8.4a2.29,2.29,0,0,1,2.3,2.4v5.7c0,1.4-.9,1.8-2.3,1.8s-2.4-.5-2.4-1.8v-5.7A2.31,2.31,0,0,1,447.7,194.7Z" transform="translate(0.01 0.07)"/>
      <path d="M477.4,192.8a3.33,3.33,0,0,1-3.3-3.3,3.3,3.3,0,1,1,3.3,3.3Zm0-6a2.53,2.53,0,0,0-2.5,2.7,2.48,2.48,0,0,0,2.5,2.5,2.61,2.61,0,0,0,2.5-2.5A2.72,2.72,0,0,0,477.4,186.8Zm.4,4.1-.5-.9h-.4v.7h-.8v-3h1.5a1.13,1.13,0,0,1,1.1,1.2,1.23,1.23,0,0,1-.5,1l.4.6Zm-.9-1.7h.7c.3,0,.3-.3.3-.4s0-.4-.3-.4h-.7Z" transform="translate(0.01 0.07)"/>
    </g>
  </g>
  <g id="Stick_Area" data-name="Stick Area">
    <g id="Stick_Background_Rim" data-name="Stick Background Rim" class="cls-16">
      <path d="M405.1,448a81.3,81.3,0,1,1-81.3,81.3A81.3,81.3,0,0,1,405.1,448m0-2.9a84.2,84.2,0,1,0,84.2,84.2,84.33,84.33,0,0,0-84.2-84.2Z" transform="translate(0.01 0.07)"/>
    </g>
    <circle id="Stick_Background" data-name="Stick Background" class="cls-17" cx="405.11" cy="529.37" r="81.3"/>
    <g id="Octagon">
      <path class="cls-18" d="M368.1,497l-12,29a8.4,8.4,0,0,0,0,6.6l12,29a8.66,8.66,0,0,0,4.7,4.7l29,12a8.4,8.4,0,0,0,6.6,0l29-12a8.66,8.66,0,0,0,4.7-4.7l12-29a8.4,8.4,0,0,0,0-6.6l-12-29a8.66,8.66,0,0,0-4.7-4.7l-29-12a8.4,8.4,0,0,0-6.6,0l-29,12A9,9,0,0,0,368.1,497Z" transform="translate(0.01 0.07)"/>
      <g>
        <path class="cls-19" d="M355.5,529.3a7.84,7.84,0,0,0,.7,3.3l12,29a7.74,7.74,0,0,0,1.9,2.8l35.1-35.1Z" transform="translate(0.01 0.07)"/>
        <path class="cls-20" d="M405.1,479.7a7.84,7.84,0,0,0-3.3.7l-29,12a7.74,7.74,0,0,0-2.8,1.9l35.1,35.1V479.7Z" transform="translate(0.01 0.07)"/>
        <path class="cls-21" d="M370,494.2a9.23,9.23,0,0,0-1.9,2.8l-12,29a9.76,9.76,0,0,0-.7,3.3H405Z" transform="translate(0.01 0.07)"/>
        <path class="cls-19" d="M440.1,494.2a9.23,9.23,0,0,0-2.8-1.9l-29-12a9.76,9.76,0,0,0-3.3-.7v49.6Z" transform="translate(0.01 0.07)"/>
        <path class="cls-22" d="M440.1,564.4a9.23,9.23,0,0,0,1.9-2.8l12-29a9.76,9.76,0,0,0,.7-3.3H405.1Z" transform="translate(0.01 0.07)"/>
        <path class="cls-23" d="M370,564.4a9.23,9.23,0,0,0,2.8,1.9l29,12a9.76,9.76,0,0,0,3.3.7V529.4Z" transform="translate(0.01 0.07)"/>
        <path class="cls-23" d="M442,497a7.74,7.74,0,0,0-1.9-2.8L405,529.3h49.6a7.84,7.84,0,0,0-.7-3.3Z" transform="translate(0.01 0.07)"/>
        <path class="cls-24" d="M405.1,578.9a7.84,7.84,0,0,0,3.3-.7l29-12a7.74,7.74,0,0,0,2.8-1.9l-35.1-35.1v49.7Z" transform="translate(0.01 0.07)"/>
      </g>
    </g>
  </g>
  <g id="Start_Button" data-name="Start Button">
    <path class="cls-25" d="M405.1,344.3a27.5,27.5,0,1,1-27.5,27.5,27.48,27.48,0,0,1,27.5-27.5m0-2.1a29.6,29.6,0,1,0,29.6,29.6,29.66,29.66,0,0,0-29.6-29.6Z" transform="translate(0.01 0.07)"/>
    <g id="Start_Button_Pressed" data-name="Start Button Pressed">
      <circle class="cls-26" cx="405.11" cy="371.87" r="27.5"/>
      <g class="cls-27">
        <path class="cls-12" d="M392.1,368.2h-3.3v-1.3a3.45,3.45,0,0,0-.1-1.2c-.1-.2-.2-.3-.4-.3a.55.55,0,0,0-.5.3,2.51,2.51,0,0,0-.2,1,4.64,4.64,0,0,0,.2,1.4,2.39,2.39,0,0,0,1,1.1,10.3,10.3,0,0,1,3,3,9.08,9.08,0,0,1,.6,3.8,9.41,9.41,0,0,1-.3,2.8,3.11,3.11,0,0,1-1.3,1.5,4.14,4.14,0,0,1-2.3.6,3.79,3.79,0,0,1-2.4-.7,3.24,3.24,0,0,1-1.3-1.8,12.39,12.39,0,0,1-.3-3.1v-1.2h3.3v2.2a3.81,3.81,0,0,0,.1,1.3.55.55,0,0,0,.5.3.51.51,0,0,0,.5-.4,2.68,2.68,0,0,0,.2-1.1,4.83,4.83,0,0,0-.3-2.1,9.07,9.07,0,0,0-1.7-1.6,8.59,8.59,0,0,1-1.7-1.7,3.65,3.65,0,0,1-.7-1.4,7.8,7.8,0,0,1-.3-2.4,7.39,7.39,0,0,1,.4-3,3.74,3.74,0,0,1,1.3-1.5,3.64,3.64,0,0,1,2.1-.5,4.14,4.14,0,0,1,2.3.6,3.11,3.11,0,0,1,1.3,1.5,10.53,10.53,0,0,1,.3,3v.9Z" transform="translate(0.01 0.07)"/>
        <path class="cls-12" d="M400.6,362.8v3.6h-2.1v14.4H395V366.4h-2.1v-3.6Z" transform="translate(0.01 0.07)"/>
        <path class="cls-12" d="M406.8,362.8l2,18h-3.6l-.2-3.2h-1.3l-.2,3.2h-3.6l1.8-18ZM405,374.3c-.2-2-.4-4.6-.5-7.5-.4,3.4-.6,6-.7,7.5Z" transform="translate(0.01 0.07)"/>
        <path class="cls-12" d="M409.5,362.8H412a12.45,12.45,0,0,1,3.4.3,2.24,2.24,0,0,1,1.4,1.3,6.91,6.91,0,0,1,.6,3.3,6.06,6.06,0,0,1-.4,2.8,2,2,0,0,1-1.6.9,2.15,2.15,0,0,1,1.4.9,2.46,2.46,0,0,1,.4,1.1c0,.4.1,1.2.1,2.7v4.7H414v-6a5.25,5.25,0,0,0-.2-1.8q-.15-.3-.9-.3v8.1h-3.5v-18Zm3.5,3.1v4a1.29,1.29,0,0,0,.8-.2c.2-.1.2-.6.2-1.4v-1a2.33,2.33,0,0,0-.2-1.1C413.7,365.9,413.4,365.9,413,365.9Z" transform="translate(0.01 0.07)"/>
        <path class="cls-12" d="M425.8,362.8v3.6h-2.1v14.4h-3.5V366.4h-2.1v-3.6Z" transform="translate(0.01 0.07)"/>
      </g>
    </g>
    <g id="Start_Button-2" data-name="Start Button">
      <circle class="cls-28" cx="405.11" cy="371.87" r="27.5"/>
      <g class="cls-27">
        <path d="M392.1,368.2h-3.3v-1.3a3.45,3.45,0,0,0-.1-1.2c-.1-.2-.2-.3-.4-.3a.55.55,0,0,0-.5.3,2.51,2.51,0,0,0-.2,1,4.64,4.64,0,0,0,.2,1.4,2.39,2.39,0,0,0,1,1.1,10.3,10.3,0,0,1,3,3,9.08,9.08,0,0,1,.6,3.8,9.41,9.41,0,0,1-.3,2.8,3.11,3.11,0,0,1-1.3,1.5,4.14,4.14,0,0,1-2.3.6,3.79,3.79,0,0,1-2.4-.7,3.24,3.24,0,0,1-1.3-1.8,12.39,12.39,0,0,1-.3-3.1v-1.2h3.3v2.2a3.81,3.81,0,0,0,.1,1.3.55.55,0,0,0,.5.3.51.51,0,0,0,.5-.4,2.68,2.68,0,0,0,.2-1.1,4.83,4.83,0,0,0-.3-2.1,9.07,9.07,0,0,0-1.7-1.6,8.59,8.59,0,0,1-1.7-1.7,3.65,3.65,0,0,1-.7-1.4,7.8,7.8,0,0,1-.3-2.4,7.39,7.39,0,0,1,.4-3,3.74,3.74,0,0,1,1.3-1.5,3.64,3.64,0,0,1,2.1-.5,4.14,4.14,0,0,1,2.3.6,3.11,3.11,0,0,1,1.3,1.5,10.53,10.53,0,0,1,.3,3v.9Z" transform="translate(0.01 0.07)"/>
        <path d="M400.6,362.8v3.6h-2.1v14.4H395V366.4h-2.1v-3.6Z" transform="translate(0.01 0.07)"/>
        <path d="M406.8,362.8l2,18h-3.6l-.2-3.2h-1.3l-.2,3.2h-3.6l1.8-18ZM405,374.3c-.2-2-.4-4.6-.5-7.5-.4,3.4-.6,6-.7,7.5Z" transform="translate(0.01 0.07)"/>
        <path d="M409.5,362.8H412a12.45,12.45,0,0,1,3.4.3,2.24,2.24,0,0,1,1.4,1.3,6.91,6.91,0,0,1,.6,3.3,6.06,6.06,0,0,1-.4,2.8,2,2,0,0,1-1.6.9,2.15,2.15,0,0,1,1.4.9,2.46,2.46,0,0,1,.4,1.1c0,.4.1,1.2.1,2.7v4.7H414v-6a5.25,5.25,0,0,0-.2-1.8q-.15-.3-.9-.3v8.1h-3.5v-18Zm3.5,3.1v4a1.29,1.29,0,0,0,.8-.2c.2-.1.2-.6.2-1.4v-1a2.33,2.33,0,0,0-.2-1.1C413.7,365.9,413.4,365.9,413,365.9Z" transform="translate(0.01 0.07)"/>
        <path d="M425.8,362.8v3.6h-2.1v14.4h-3.5V366.4h-2.1v-3.6Z" transform="translate(0.01 0.07)"/>
      </g>
    </g>
  </g>
  <g id="B_Button" data-name="B Button">
    <path class="cls-25" d="M558.6,335.4a30.1,30.1,0,1,1-30.1,30.1,30.13,30.13,0,0,1,30.1-30.1m0-2.3a32.3,32.3,0,1,0,32.3,32.3,32.35,32.35,0,0,0-32.3-32.3Z" transform="translate(0.01 0.07)"/>
    <g>
      <circle class="cls-29" cx="558.61" cy="365.57" r="30.1"/>
      <path class="cls-4" d="M554,369.5c4-1.1,3.4-5.7,3.4-6.9,0-2.3-.6-5.7-5.7-5.7h-8v25.8h8a10.19,10.19,0,0,0,4.6-1.1c1.7-1.1,1.7-2.3,1.7-2.3v-5.7A4.19,4.19,0,0,0,554,369.5Zm-5.1-9.2s1.7,0,2.3.6c1.1,1.1,1.1,5.2,0,6.3a1.74,1.74,0,0,1-1.1.6H549v-7.5Zm2.8,17.2a1.56,1.56,0,0,1-.6,1.1l-.2.2a1.49,1.49,0,0,1-.9.4h-1.2v-8H550a1.09,1.09,0,0,1,.9.4l.2.2a2.74,2.74,0,0,1,.6,1.7Z" transform="translate(0.01 0.07)"/>
    </g>
    <g>
      <circle class="cls-30" cx="558.61" cy="365.57" r="30.1"/>
      <path class="cls-2" d="M554,369.5c4-1.1,3.4-5.7,3.4-6.9,0-2.3-.6-5.7-5.7-5.7h-8v25.8h8a10.19,10.19,0,0,0,4.6-1.1c1.7-1.1,1.7-2.3,1.7-2.3v-5.7A4.19,4.19,0,0,0,554,369.5Zm-5.1-9.2s1.7,0,2.3.6c1.1,1.1,1.1,5.2,0,6.3a1.74,1.74,0,0,1-1.1.6H549v-7.5Zm2.8,17.2a1.56,1.56,0,0,1-.6,1.1l-.2.2a1.49,1.49,0,0,1-.9.4h-1.2v-8H550a1.09,1.09,0,0,1,.9.4l.2.2a2.74,2.74,0,0,1,.6,1.7Z" transform="translate(0.01 0.07)"/>
    </g>
  </g>
  <g id="A_Button" data-name="A Button">
    <path class="cls-25" d="M615,391.8a30.1,30.1,0,1,1-30,30.1,30.13,30.13,0,0,1,30-30.1m0-2.2a32.3,32.3,0,1,0,32.3,32.3A32.35,32.35,0,0,0,615,389.6Z" transform="translate(0.01 0.07)"/>
    <g>
      <circle class="cls-31" cx="615.01" cy="421.97" r="30.1"/>
      <path class="cls-4" d="M609.6,413.6h-6.3l-5.2,25.8h5.2l1.1-5.7h4l1.1,5.7h5.2ZM605,430.2l1.1-7.4h.6l1.1,7.4Z" transform="translate(0.01 0.07)"/>
    </g>
    <g>
      <circle class="cls-32" cx="615.01" cy="421.97" r="30.1"/>
      <path class="cls-2" d="M609.6,413.6h-6.3l-5.2,25.8h5.2l1.1-5.7h4l1.1,5.7h5.2ZM605,430.2l1.1-7.4h.6l1.1,7.4Z" transform="translate(0.01 0.07)"/>
    </g>
  </g>
  <g id="Dpad">
    <g id="Dpad-2" data-name="Dpad">
      <g id="D-Pad_BG" data-name="D-Pad BG" class="cls-16">
        <path d="M144.8,411.4a7,7,0,0,1-7-7.1V369.6a1.9,1.9,0,0,0-1.9-1.9H101.2a7.11,7.11,0,0,1-7.1-7V330.1a7,7,0,0,1,7.1-7h34.7a1.9,1.9,0,0,0,1.9-1.9V286.5a7.11,7.11,0,0,1,7-7.1h30.6a7.13,7.13,0,0,1,7.1,7.1v34.7a1.9,1.9,0,0,0,1.9,1.9h34.7a7.11,7.11,0,0,1,7.1,7v30.6a7,7,0,0,1-7.1,7H184.4a1.9,1.9,0,0,0-1.9,1.9v34.7a7.13,7.13,0,0,1-7.1,7.1Z" transform="translate(0.01 0.07)"/>
        <path d="M175.4,280.8a5.59,5.59,0,0,1,5.6,5.6v34.7a3.37,3.37,0,0,0,3.4,3.4h34.7a5.59,5.59,0,0,1,5.6,5.6v30.6a5.59,5.59,0,0,1-5.6,5.6H184.4a3.37,3.37,0,0,0-3.4,3.4v34.7a5.59,5.59,0,0,1-5.6,5.6H144.8a5.59,5.59,0,0,1-5.6-5.6V369.7a3.37,3.37,0,0,0-3.4-3.4H101.1a5.59,5.59,0,0,1-5.6-5.6V330.1a5.59,5.59,0,0,1,5.6-5.6h34.7a3.37,3.37,0,0,0,3.4-3.4V286.4a5.59,5.59,0,0,1,5.6-5.6h30.6m0-2.9H144.8a8.49,8.49,0,0,0-8.5,8.5v34.7a.43.43,0,0,1-.4.4H101.2a8.49,8.49,0,0,0-8.5,8.5v30.6a8.49,8.49,0,0,0,8.5,8.5h34.7a.43.43,0,0,1,.4.4v34.7a8.49,8.49,0,0,0,8.5,8.5h30.6a8.49,8.49,0,0,0,8.5-8.5V369.5a.43.43,0,0,1,.4-.4H219a8.49,8.49,0,0,0,8.5-8.5V330a8.49,8.49,0,0,0-8.5-8.5H184.3a.43.43,0,0,1-.4-.4V286.4a8.49,8.49,0,0,0-8.5-8.5Z" transform="translate(0.01 0.07)"/>
      </g>
      <path class="cls-33" d="M219.1,324.5H184.4a3.37,3.37,0,0,1-3.4-3.4V286.4a5.59,5.59,0,0,0-5.6-5.6H144.8a5.59,5.59,0,0,0-5.6,5.6v34.7a3.37,3.37,0,0,1-3.4,3.4H101.1a5.59,5.59,0,0,0-5.6,5.6v30.6a5.59,5.59,0,0,0,5.6,5.6h34.7a3.37,3.37,0,0,1,3.4,3.4v34.7a5.59,5.59,0,0,0,5.6,5.6h30.6a5.59,5.59,0,0,0,5.6-5.6V369.7a3.37,3.37,0,0,1,3.4-3.4h34.7a5.59,5.59,0,0,0,5.6-5.6V330.1A5.72,5.72,0,0,0,219.1,324.5Z" transform="translate(0.01 0.07)"/>
      <g class="cls-34">
        <path d="M126,355.5a4,4,0,0,1-1.3-.4c-2.9-1.4-15.9-8.1-16-8.2-.6-.2-1.6-.9-1.6-1.5s1.1-1.3,1.6-1.5c.2-.1,13.1-6.8,16-8.2a4,4,0,0,1,1.3-.4c.3,0,.4.1.4.2a1.49,1.49,0,0,1,.2.9v18.1a1.49,1.49,0,0,1-.2.9.58.58,0,0,1-.4.1Z" transform="translate(0.01 0.07)"/>
        <path d="M126,335.8h0a.44.44,0,0,1,.1.5v18.9H126a2.41,2.41,0,0,1-1.1-.3c-2.9-1.4-15.9-8.1-16-8.2h0c-.7-.3-1.3-.8-1.3-1a2.06,2.06,0,0,1,1.3-1h0c.1-.1,13.1-6.8,16-8.2.7-.7,1-.7,1.1-.7m0-1a3.36,3.36,0,0,0-1.5.4c-3,1.5-16,8.2-16,8.2s-1.9.8-1.9,1.9,1.9,1.9,1.9,1.9,13,6.8,16,8.2a3.7,3.7,0,0,0,1.5.4c1.3,0,1.1-1.6,1.1-1.6v-18c0,.2.2-1.4-1.1-1.4Z" transform="translate(0.01 0.07)"/>
      </g>
      <g class="cls-34">
        <path d="M169.3,311.9H150.8a.91.91,0,0,1-.8-.3c-.2-.3-.1-.9.3-1.6,1.4-2.9,8.1-15.9,8.2-16,.2-.6.9-1.6,1.5-1.6s1.3,1.1,1.5,1.6c.1.2,6.8,13.1,8.2,16,.4.8.5,1.4.3,1.6S169.5,311.9,169.3,311.9Z" transform="translate(0.01 0.07)"/>
        <path d="M160.1,292.9c.2,0,.7.6,1,1.3h0c.1.1,6.8,13.1,8.2,16a2,2,0,0,1,.3,1.2,1,1,0,0,1-.4.1h-19s-.1-.3.3-1.2c1.4-2.9,8.1-15.9,8.2-16h0c.7-.8,1.2-1.4,1.4-1.4m0-1c-1.1,0-1.9,1.9-1.9,1.9s-6.8,13-8.2,16c-1.2,2.4.3,2.6.9,2.6h18.4c.6,0,2.1-.2.9-2.6-1.5-3-8.2-16-8.2-16s-.8-1.9-1.9-1.9Z" transform="translate(0.01 0.07)"/>
      </g>
      <g class="cls-34">
        <path d="M194.2,355.5c-.3,0-.4-.1-.4-.2a1.49,1.49,0,0,1-.2-.9V336.3a1.49,1.49,0,0,1,.2-.9.52.52,0,0,1,.4-.2,4,4,0,0,1,1.3.4c2.9,1.4,15.9,8.1,16,8.2.6.2,1.6.9,1.6,1.5s-1.1,1.3-1.6,1.5c-.2.1-13.1,6.8-16,8.2a3,3,0,0,1-1.3.5Z" transform="translate(0.01 0.07)"/>
        <path d="M194.2,335.8a2.41,2.41,0,0,1,1.1.3c2.9,1.4,15.9,8.1,16,8.2h0c.7.3,1.3.8,1.3,1a2.06,2.06,0,0,1-1.3,1h0c-.1.1-13.1,6.8-16,8.2a2.17,2.17,0,0,1-1.1.3h-.1a4.33,4.33,0,0,1-.1-.5V335.9c0,.2.1-.1.2-.1h0m0-1c-1.3,0-1.1,1.6-1.1,1.6v18s-.2,1.6,1.1,1.6a3.36,3.36,0,0,0,1.5-.4c3-1.5,16-8.2,16-8.2s1.9-.8,1.9-1.9-1.9-1.9-1.9-1.9-13-6.8-16-8.2a2.64,2.64,0,0,0-1.5-.6Z" transform="translate(0.01 0.07)"/>
      </g>
      <g class="cls-34">
        <path d="M160.1,398.4c-.6,0-1.3-1.1-1.5-1.6-.1-.2-6.8-13.1-8.2-16-.4-.8-.5-1.4-.3-1.6a.91.91,0,0,1,.8-.3h18.5a.91.91,0,0,1,.8.3c.2.3.1.9-.3,1.6-1.4,2.9-8.1,15.9-8.2,16C161.4,397.3,160.7,398.3,160.1,398.4Z" transform="translate(0.01 0.07)"/>
        <path d="M150.9,379.3h19s.1.3-.3,1.2c-1.4,2.9-8.1,15.9-8.2,16h0c-.3.6-.8,1.3-1,1.3a2.06,2.06,0,0,1-1-1.3h0c-.1-.1-6.8-13.1-8.2-16a2,2,0,0,1-.3-1.2h0m18.4-1H150.9c-.6,0-2.1.2-.9,2.6,1.5,3,8.2,16,8.2,16s.8,1.9,1.9,1.9,1.9-1.9,1.9-1.9,6.8-13,8.2-16c1.2-2.4-.3-2.6-.9-2.6Z" transform="translate(0.01 0.07)"/>
      </g>
      <g class="cls-34">
        <path d="M126,335.5a.44.44,0,0,1,.3.1.82.82,0,0,1,.1.7h0v18h0c0,.2,0,.6-.1.7a.44.44,0,0,1-.3.1,3.14,3.14,0,0,1-1.2-.4c-2.9-1.4-15.9-8.1-16-8.2h0c-.6-.3-1.5-.9-1.5-1.3s.9-1,1.5-1.3h0c.1-.1,13.1-6.8,16-8.2a3.52,3.52,0,0,1,1.2-.2m0-.7a3.36,3.36,0,0,0-1.5.4c-3,1.5-16,8.2-16,8.2s-1.9.8-1.9,1.9,1.9,1.9,1.9,1.9,13,6.8,16,8.2a3.7,3.7,0,0,0,1.5.4c1.3,0,1.1-1.6,1.1-1.6v-18c0,.2.2-1.4-1.1-1.4Z" transform="translate(0.01 0.07)"/>
      </g>
      <g class="cls-34">
        <path d="M160.1,292.6c.4,0,1,.9,1.3,1.5h0c.1.1,6.8,13.1,8.2,16,.5,1,.4,1.4.3,1.5a.85.85,0,0,1-.6.2H151.1a.85.85,0,0,1-.6-.2c0-.1-.2-.4.3-1.5,1.4-2.9,8.1-15.9,8.2-16h0c.1-.7.7-1.5,1.1-1.5m0-.7c-1.1,0-1.9,1.9-1.9,1.9s-6.8,13-8.2,16c-1.2,2.4.3,2.6.9,2.6h18.4c.6,0,2.1-.2.9-2.6-1.5-3-8.2-16-8.2-16s-.8-1.9-1.9-1.9Z" transform="translate(0.01 0.07)"/>
      </g>
      <g class="cls-34">
        <path d="M194.2,335.5a3.14,3.14,0,0,1,1.2.4c2.9,1.4,15.9,8.1,16,8.2h0c.6.3,1.5.9,1.5,1.3s-.9,1-1.5,1.3h0c-.1.1-13.1,6.8-16,8.2a3.14,3.14,0,0,1-1.2.4.44.44,0,0,1-.3-.1.82.82,0,0,1-.1-.7h0v-18h0c0-.2,0-.6.1-.7,0-.3.1-.3.3-.3m0-.7c-1.3,0-1.1,1.6-1.1,1.6v18s-.2,1.6,1.1,1.6a3.36,3.36,0,0,0,1.5-.4c3-1.5,16-8.2,16-8.2s1.9-.8,1.9-1.9-1.9-1.9-1.9-1.9-13-6.8-16-8.2a2.64,2.64,0,0,0-1.5-.6Z" transform="translate(0.01 0.07)"/>
      </g>
      <g class="cls-34">
        <path d="M150.9,379h18.2a.85.85,0,0,1,.6.2c0,.1.2.4-.3,1.5-1.4,2.9-8.1,15.9-8.2,16h0c-.3.6-.9,1.5-1.3,1.5s-1-.9-1.3-1.5h0c-.1-.1-6.8-13.1-8.2-16-.5-1-.4-1.4-.3-1.5a1.88,1.88,0,0,1,.8-.2m18.4-.7H150.9c-.6,0-2.1.2-.9,2.6,1.5,3,8.2,16,8.2,16s.8,1.9,1.9,1.9,1.9-1.9,1.9-1.9,6.8-13,8.2-16c1.2-2.4-.3-2.6-.9-2.6Z" transform="translate(0.01 0.07)"/>
      </g>
      <circle class="cls-35" cx="160.11" cy="345.47" r="12.8"/>
    </g>
  </g>
  <g id="C_Pad" data-name="C Pad">
    <g>
      <g id="C_Left" data-name="C Left">
        <path class="cls-25" d="M677.2,246.3a22.9,22.9,0,1,1-22.9,22.9,22.9,22.9,0,0,1,22.9-22.9m0-1.7a24.6,24.6,0,1,0,24.6,24.6,24.65,24.65,0,0,0-24.6-24.6Z" transform="translate(0.01 0.07)"/>
        <circle class="cls-36" cx="677.21" cy="269.28" r="22.9"/>
        <g>
          <g class="cls-34">
            <path d="M686.4,277.3H667.9a.91.91,0,0,1-.8-.3c-.2-.3-.1-.9.3-1.6,1.4-2.9,8.1-15.9,8.2-16,.2-.6.9-1.6,1.5-1.6s1.3,1.1,1.5,1.6c.1.2,6.8,13.1,8.2,16,.4.8.5,1.4.3,1.6S686.6,277.3,686.4,277.3Z" transform="translate(0.01 0.07)"/>
            <path d="M677.2,258.2c.2,0,.7.6,1,1.3h0c.1.1,6.8,13.1,8.2,16a2,2,0,0,1,.3,1.2,1,1,0,0,1-.4.1h-19s-.1-.3.3-1.2c1.4-2.9,8.1-15.9,8.2-16h0a5.85,5.85,0,0,1,1.4-1.4m0-1c-1.1,0-1.9,1.9-1.9,1.9s-6.8,13-8.2,16c-1.2,2.4.3,2.6.9,2.6h18.4c.6,0,2.1-.2.9-2.6-1.5-3-8.2-16-8.2-16s-.8-1.8-1.9-1.9Z" transform="translate(0.01 0.07)"/>
          </g>
          <g class="cls-34">
            <path d="M677.2,257.9c.4,0,1,.9,1.3,1.5h0c.1.1,6.8,13.1,8.2,16,.5,1,.4,1.4.3,1.5a.85.85,0,0,1-.6.2H668.2a.85.85,0,0,1-.6-.2c0-.1-.2-.4.3-1.5,1.4-2.9,8.1-15.9,8.2-16h0c0-.6.6-1.5,1.1-1.5m0-.7c-1.1,0-1.9,1.9-1.9,1.9s-6.8,13-8.2,16c-1.2,2.4.3,2.6.9,2.6h18.4c.6,0,2.1-.2.9-2.6-1.5-3-8.2-16-8.2-16s-.8-1.8-1.9-1.9Z" transform="translate(0.01 0.07)"/>
          </g>
        </g>
      </g>
      <g id="C_Right" data-name="C Right">
        <path class="cls-25" d="M722.4,291.6a22.9,22.9,0,1,1-22.9,22.9,22.9,22.9,0,0,1,22.9-22.9m0-1.8A24.6,24.6,0,1,0,747,314.4a24.65,24.65,0,0,0-24.6-24.6Z" transform="translate(0.01 0.07)"/>
        <circle class="cls-36" cx="722.41" cy="314.57" r="22.9"/>
        <g>
          <g class="cls-34">
            <path d="M715,324.6c-.3,0-.4-.1-.4-.2a1.49,1.49,0,0,1-.2-.9V305.4a1.49,1.49,0,0,1,.2-.9.52.52,0,0,1,.4-.2,4,4,0,0,1,1.3.4c2.9,1.4,15.9,8.1,16,8.2.6.2,1.6.9,1.6,1.5s-1.1,1.3-1.6,1.5c-.2.1-13.1,6.8-16,8.2A3,3,0,0,1,715,324.6Z" transform="translate(0.01 0.07)"/>
            <path d="M715,304.9a2.41,2.41,0,0,1,1.1.3c2.9,1.4,15.9,8.1,16,8.2h0c.7.3,1.3.8,1.3,1a2.06,2.06,0,0,1-1.3,1h0c-.1.1-13.1,6.8-16,8.2a2.17,2.17,0,0,1-1.1.3h-.1a4.33,4.33,0,0,1-.1-.5V305c.1.2.1-.1.2-.1h0m0-1c-1.3,0-1.1,1.6-1.1,1.6v18s-.2,1.6,1.1,1.6a3.36,3.36,0,0,0,1.5-.4c3-1.5,16-8.2,16-8.2s1.9-.8,1.9-1.9-1.9-1.9-1.9-1.9-13-6.8-16-8.2a2.24,2.24,0,0,0-1.5-.6Z" transform="translate(0.01 0.07)"/>
          </g>
          <g class="cls-34">
            <path d="M715,304.6a3.14,3.14,0,0,1,1.2.4c2.9,1.4,15.9,8.1,16,8.2h0c.6.3,1.5.9,1.5,1.3s-.9,1-1.5,1.3h0c-.1.1-13.1,6.8-16,8.2a3.14,3.14,0,0,1-1.2.4.44.44,0,0,1-.3-.1.82.82,0,0,1-.1-.7h0v-18h0a2,2,0,0,1,.1-.7.27.27,0,0,1,.3-.3m0-.7c-1.3,0-1.1,1.6-1.1,1.6v18s-.2,1.6,1.1,1.6a3.36,3.36,0,0,0,1.5-.4c3-1.5,16-8.2,16-8.2s1.9-.8,1.9-1.9-1.9-1.9-1.9-1.9-13-6.8-16-8.2a2.24,2.24,0,0,0-1.5-.6Z" transform="translate(0.01 0.07)"/>
          </g>
        </g>
      </g>
      <g id="C_Down" data-name="C Down">
        <path class="cls-25" d="M677.2,336.8a22.9,22.9,0,1,1-22.9,22.9,22.9,22.9,0,0,1,22.9-22.9m0-1.7a24.6,24.6,0,1,0,24.6,24.6,24.65,24.65,0,0,0-24.6-24.6Z" transform="translate(0.01 0.07)"/>
        <circle class="cls-36" cx="677.21" cy="359.78" r="22.9"/>
        <g>
          <g class="cls-34">
            <path d="M677.2,371.2c-.6,0-1.3-1.1-1.5-1.6-.1-.2-6.8-13.1-8.2-16-.4-.8-.5-1.4-.3-1.6a.91.91,0,0,1,.8-.3h18.5a.91.91,0,0,1,.8.3c.2.3.1.9-.3,1.6-1.4,2.9-8.1,15.9-8.2,16C678.4,370.1,677.8,371.2,677.2,371.2Z" transform="translate(0.01 0.07)"/>
            <path d="M668,352.2h19s.1.3-.3,1.2c-1.4,2.9-8.1,15.9-8.2,16h0c-.3.7-.8,1.3-1,1.3a2.06,2.06,0,0,1-1-1.3h0c-.1-.1-6.8-13.1-8.2-16a2,2,0,0,1-.3-1.2h0m18.4-1H668c-.6,0-2.1.2-.9,2.6,1.5,3,8.2,16,8.2,16s.8,1.9,1.9,1.9,1.9-1.9,1.9-1.9,6.8-13,8.2-16c1.2-2.4-.3-2.6-.9-2.6Z" transform="translate(0.01 0.07)"/>
          </g>
          <g class="cls-34">
            <path d="M668,351.9h18.2a.85.85,0,0,1,.6.2c0,.1.2.4-.3,1.5-1.4,2.9-8.1,15.9-8.2,16h0c-.3.6-.9,1.5-1.3,1.5s-1-.9-1.3-1.5h0c-.1-.1-6.8-13.1-8.2-16-.5-1-.4-1.4-.3-1.5a1.08,1.08,0,0,1,.8-.2m18.4-.7H668c-.6,0-2.1.2-.9,2.6,1.5,3,8.2,16,8.2,16s.8,1.9,1.9,1.9,1.9-1.9,1.9-1.9,6.8-13,8.2-16c1.2-2.4-.3-2.6-.9-2.6Z" transform="translate(0.01 0.07)"/>
          </g>
        </g>
      </g>
      <g id="C_Left-2" data-name="C Left">
        <path class="cls-25" d="M631.9,291.6A22.9,22.9,0,1,1,609,314.5a22.9,22.9,0,0,1,22.9-22.9m0-1.8a24.6,24.6,0,1,0,24.6,24.6,24.65,24.65,0,0,0-24.6-24.6Z" transform="translate(0.01 0.07)"/>
        <circle class="cls-36" cx="631.91" cy="314.57" r="22.9"/>
        <g>
          <g class="cls-34">
            <path d="M639.4,324.6a4,4,0,0,1-1.3-.4c-2.9-1.4-15.9-8.1-16-8.2-.6-.2-1.6-.9-1.6-1.5s1.1-1.3,1.6-1.5c.2-.1,13.1-6.8,16-8.2a4,4,0,0,1,1.3-.4c.3,0,.4.1.4.2a1.49,1.49,0,0,1,.2.9v18.1a1.49,1.49,0,0,1-.2.9C639.7,324.5,639.6,324.6,639.4,324.6Z" transform="translate(0.01 0.07)"/>
            <path d="M639.4,304.9h0a.44.44,0,0,1,.1.5v18.9h-.1a2.41,2.41,0,0,1-1.1-.3c-2.9-1.4-15.9-8.1-16-8.2h0c-.7-.3-1.3-.8-1.3-1a2.06,2.06,0,0,1,1.3-1h0c.1-.1,13.1-6.8,16-8.2.6-.7.9-.7,1.1-.7m0-1a3.36,3.36,0,0,0-1.5.4c-3,1.5-16,8.2-16,8.2s-1.9.8-1.9,1.9,1.9,1.9,1.9,1.9,13,6.8,16,8.2a3.7,3.7,0,0,0,1.5.4c1.3,0,1.1-1.6,1.1-1.6v-18c0,.2.2-1.4-1.1-1.4Z" transform="translate(0.01 0.07)"/>
          </g>
          <g class="cls-34">
            <path d="M639.4,304.6a.44.44,0,0,1,.3.1.82.82,0,0,1,.1.7h0v18h0c0,.2,0,.6-.1.7a.44.44,0,0,1-.3.1,3.14,3.14,0,0,1-1.2-.4c-2.9-1.4-15.9-8.1-16-8.2h0c-.6-.3-1.5-.9-1.5-1.3s.9-1,1.5-1.3h0c.1-.1,13.1-6.8,16-8.2a9.64,9.64,0,0,1,1.2-.2m0-.7a3.36,3.36,0,0,0-1.5.4c-3,1.5-16,8.2-16,8.2s-1.9.8-1.9,1.9,1.9,1.9,1.9,1.9,13,6.8,16,8.2a3.7,3.7,0,0,0,1.5.4c1.3,0,1.1-1.6,1.1-1.6v-18c0,.2.2-1.4-1.1-1.4Z" transform="translate(0.01 0.07)"/>
          </g>
        </g>
      </g>
    </g>
  </g>
  <g id="Z_Button" data-name="Z Button">
    <g id="Z_Button-2" data-name="Z Button">
      <path class="cls-37" d="M424.4,88.2H385.8a6.7,6.7,0,0,1-6.7-6.7V9c0-5.1-.1-5.6,5.9-6.6,20.1-3.3,20.1-3.3,40.2,0,6,1,5.9,1.5,5.9,6.6V81.5A6.7,6.7,0,0,1,424.4,88.2Z" transform="translate(0.01 0.07)"/>
      <g class="cls-38">
        <path d="M399.5,42.9V38.2l5.2-14.6h-5.2v-4h11.2V23l-6,16.3,5.4-.1v3.7Z" transform="translate(0.01 0.07)"/>
      </g>
    </g>
  </g>
</svg>
