<svg id="Layer_1" data-name="Layer 1" xmlns="http://www.w3.org/2000/svg" width="174.1" height="542.7" viewBox="0 0 174.1 542.7">
  <defs>
    <style>
      .cls-1 {
        fill: #ccc;
      }

      .cls-2 {
        opacity: 0.3;
      }

      .cls-3, .cls-7 {
        fill: #fff;
      }

      .cls-4 {
        fill: #0337d8;
      }

      .cls-10, .cls-5 {
        opacity: 0.08;
      }

      .cls-6 {
        fill: #dc78c0;
      }

      .cls-10, .cls-14, .cls-7 {
        isolation: isolate;
      }

      .cls-14, .cls-7 {
        opacity: 0.2;
      }

      .cls-8 {
        fill: #d6dc48;
      }

      .cls-9 {
        fill: #e8e8e8;
      }

      .cls-11 {
        fill: #3dcdd8;
      }

      .cls-12 {
        opacity: 0.25;
      }

      .cls-13 {
        fill: #c9cacc;
      }

      .cls-15 {
        opacity: 0.37;
      }

      .cls-16 {
        opacity: 0.27;
      }
    </style>
  </defs>
  <g id="Z_Button" data-name="Z Button">
    <path class="cls-1" d="M45.3,160.1H6.7A6.7,6.7,0,0,1,0,153.4V80.9c0-5.1-.1-5.6,5.9-6.6C26,71,26,71,46.1,74.3c6,1,5.9,1.5,5.9,6.6v72.5A6.7,6.7,0,0,1,45.3,160.1Z" transform="translate(0)"/>
    <g class="cls-2">
      <path class="cls-3" d="M20.4,114.8v-4.7l5.2-14.6H20.4v-4H31.6v3.4l-6,16.3,5.4-.1v3.7Z" transform="translate(0)"/>
    </g>
  </g>
  <g id="C_Up" data-name="C Up">
    <circle class="cls-4" cx="22.9" cy="255.5" r="22.9"/>
    <g>
      <g class="cls-5">
        <path class="cls-3" d="M32.1,263.5H13.6a.91.91,0,0,1-.8-.3c-.2-.3-.1-.9.3-1.6,1.4-2.9,8.1-15.9,8.2-16,.2-.6.9-1.6,1.5-1.6s1.3,1.1,1.5,1.6c.1.2,6.8,13.1,8.2,16,.4.8.5,1.4.3,1.6C32.8,263.5,32.3,263.5,32.1,263.5Z" transform="translate(0)"/>
        <path class="cls-3" d="M22.9,244.5c.2,0,.7.6,1,1.3h0c.1.1,6.8,13.1,8.2,16a2,2,0,0,1,.3,1.2,1,1,0,0,1-.4.1H13s-.1-.3.3-1.2c1.4-2.9,8.1-15.9,8.2-16h0c.7-.8,1.2-1.4,1.4-1.4m0-1c-1.1,0-1.9,1.9-1.9,1.9s-6.8,13-8.2,16c-1.2,2.4.3,2.6.9,2.6H32.1c.6,0,2.1-.2.9-2.6-1.5-3-8.2-16-8.2-16s-.7-1.9-1.9-1.9Z" transform="translate(0)"/>
      </g>
      <g class="cls-5">
        <path class="cls-3" d="M22.9,244.2c.4,0,1,.9,1.3,1.5h0c.1.1,6.8,13.1,8.2,16,.5,1,.4,1.4.3,1.5a.85.85,0,0,1-.6.2H13.9a.85.85,0,0,1-.6-.2c0-.1-.2-.4.3-1.5,1.4-2.9,8.1-15.9,8.2-16h0c.1-.6.7-1.5,1.1-1.5m0-.7c-1.1,0-1.9,1.9-1.9,1.9s-6.8,13-8.2,16c-1.2,2.4.3,2.6.9,2.6H32.1c.6,0,2.1-.2.9-2.6-1.5-3-8.2-16-8.2-16s-.7-1.9-1.9-1.9Z" transform="translate(0)"/>
      </g>
    </g>
  </g>
  <g>
    <circle class="cls-6" cx="30.1" cy="371.5" r="30.1"/>
    <path class="cls-7" d="M25.5,375.5c4-1.1,3.4-5.7,3.4-6.9,0-2.3-.6-5.7-5.7-5.7h-8v25.8h8a10.19,10.19,0,0,0,4.6-1.1c1.7-1.1,1.7-2.3,1.7-2.3v-5.7A4.25,4.25,0,0,0,25.5,375.5Zm-5.2-9.2s1.7,0,2.3.6c1.1,1.1,1.1,5.2,0,6.3a1.74,1.74,0,0,1-1.1.6H20.4v-7.5Zm2.9,17.2a1.56,1.56,0,0,1-.6,1.1l-.2.2a1.49,1.49,0,0,1-.9.4H20.3v-8h1.2a1.09,1.09,0,0,1,.9.4l.2.2a2.74,2.74,0,0,1,.6,1.7Z" transform="translate(0)"/>
  </g>
  <g>
    <circle class="cls-8" cx="30.1" cy="435.6" r="30.1"/>
    <path class="cls-7" d="M24.6,427.3H18.3l-5.2,25.8h5.2l1.1-5.7h4l1.1,5.7h5.2Zm-4.5,16.6,1.1-7.4h.6l1.1,7.4Z" transform="translate(0)"/>
  </g>
  <g id="D-pad_pressed" data-name="D-pad pressed">
    <g id="Up">
      <path class="cls-9" d="M42.7,204.3V169.6a5.59,5.59,0,0,0-5.6-5.6H6.6A5.59,5.59,0,0,0,1,169.6v34.7a3.49,3.49,0,0,1-1,2.4l12.4,12.4,9.4,9.4,9.4-9.4,12.4-12.4A3.92,3.92,0,0,1,42.7,204.3Z" transform="translate(0)"/>
      <path class="cls-10" d="M12.4,219.1l9.4,9.4,9.4-9.4a13.28,13.28,0,0,0-18.8,0Z" transform="translate(0)"/>
      <g>
        <g class="cls-5">
          <path d="M31.1,195.1H12.6a.91.91,0,0,1-.8-.3c-.2-.3-.1-.9.3-1.6,1.4-2.9,8.1-15.9,8.2-16,.2-.6.9-1.6,1.5-1.6s1.3,1.1,1.5,1.6c.1.2,6.8,13.1,8.2,16,.4.8.5,1.4.3,1.6S31.3,195.1,31.1,195.1Z" transform="translate(0)"/>
          <path d="M21.9,176.1c.2,0,.7.6,1,1.3h0c.1.1,6.8,13.1,8.2,16a2,2,0,0,1,.3,1.2,1,1,0,0,1-.4.1H12s-.1-.3.3-1.2c1.4-2.9,8.1-15.9,8.2-16h0c.6-.7,1.1-1.4,1.4-1.4m0-1c-1.1,0-1.9,1.9-1.9,1.9s-6.8,13-8.2,16c-1.2,2.4.3,2.6.9,2.6H31.1c.6,0,2.1-.2.9-2.6-1.5-3-8.2-16-8.2-16s-.8-1.9-1.9-1.9Z" transform="translate(0)"/>
        </g>
        <g class="cls-5">
          <path d="M21.9,175.8c.4,0,1,.9,1.3,1.5h0c.1.1,6.8,13.1,8.2,16,.5,1,.4,1.4.3,1.5a.85.85,0,0,1-.6.2H12.9a.85.85,0,0,1-.6-.2c0-.1-.2-.4.3-1.5,1.4-2.9,8.1-15.9,8.2-16h0c0-.6.6-1.5,1.1-1.5m0-.7c-1.1,0-1.9,1.9-1.9,1.9s-6.8,13-8.2,16c-1.2,2.4.3,2.6.9,2.6H31.1c.6,0,2.1-.2.9-2.6-1.5-3-8.2-16-8.2-16s-.8-1.9-1.9-1.9Z" transform="translate(0)"/>
        </g>
      </g>
    </g>
  </g>
  <g id="Start_Button_Pressed" data-name="Start Button Pressed">
    <circle class="cls-11" cx="27.5" cy="309.9" r="27.5"/>
    <g class="cls-12">
      <path class="cls-3" d="M14.5,306.3H11.2V305a3.45,3.45,0,0,0-.1-1.2c-.1-.2-.2-.3-.4-.3a.55.55,0,0,0-.5.3,2.51,2.51,0,0,0-.2,1,4.64,4.64,0,0,0,.2,1.4,2.39,2.39,0,0,0,1,1.1,10.3,10.3,0,0,1,3,3,9.08,9.08,0,0,1,.6,3.8,9.41,9.41,0,0,1-.3,2.8,3.11,3.11,0,0,1-1.3,1.5,4.14,4.14,0,0,1-2.3.6,3.79,3.79,0,0,1-2.4-.7,3.24,3.24,0,0,1-1.3-1.8,9.29,9.29,0,0,1-.3-2.9v-1.2h3.3v2.2a3.81,3.81,0,0,0,.1,1.3.55.55,0,0,0,.5.3.51.51,0,0,0,.5-.4,2.68,2.68,0,0,0,.2-1.1,4.83,4.83,0,0,0-.3-2.1A9.07,9.07,0,0,0,9.5,311a8.59,8.59,0,0,1-1.7-1.7,9.08,9.08,0,0,1-.7-1.4,7.8,7.8,0,0,1-.3-2.4,7.39,7.39,0,0,1,.4-3A3.74,3.74,0,0,1,8.5,301a3.64,3.64,0,0,1,2.1-.5,4.14,4.14,0,0,1,2.3.6,3.11,3.11,0,0,1,1.3,1.5,10.53,10.53,0,0,1,.3,3Z" transform="translate(0)"/>
      <path class="cls-3" d="M23,300.9v3.6H20.9v14.4H17.4V304.5H15.3v-3.6Z" transform="translate(0)"/>
      <path class="cls-3" d="M29.3,300.9l2,18H27.7l-.2-3.2H26.2l-.2,3.2H22.4l1.8-18Zm-1.9,11.6c-.2-2-.4-4.6-.5-7.5-.4,3.4-.6,6-.7,7.5Z" transform="translate(0)"/>
      <path class="cls-3" d="M31.9,300.9h2.5a12.45,12.45,0,0,1,3.4.3,2.24,2.24,0,0,1,1.4,1.3,6.91,6.91,0,0,1,.6,3.3,6.06,6.06,0,0,1-.4,2.8,2,2,0,0,1-1.6.9,2.15,2.15,0,0,1,1.4.9,2.46,2.46,0,0,1,.4,1.1,15,15,0,0,1,.1,2.7v4.7H36.4v-6a5.25,5.25,0,0,0-.2-1.8q-.15-.3-.9-.3v8.1H31.8v-18Zm3.5,3.1v4a1.29,1.29,0,0,0,.8-.2c.2-.1.2-.6.2-1.4v-1a2.33,2.33,0,0,0-.2-1.1C36.1,304.1,35.8,304,35.4,304Z" transform="translate(0)"/>
      <path class="cls-3" d="M48.2,300.9v3.6H46.1v14.4H42.6V304.5H40.5v-3.6Z" transform="translate(0)"/>
    </g>
  </g>
  <g id="Left_Bumper_Pressed" data-name="Left Bumper Pressed">
    <path class="cls-13" d="M73.3,32.1c51-6.9,79.1-10.3,79.1-10.3s6.9-.6,11.5-4c2.1-1.6,5.9-10,10-17.7L67,16.6S21.1,26.4,1.3,46.1A5.07,5.07,0,0,0,0,49.4V67.9H0C17.5,53.1,41.2,40.4,73.3,32.1Z" transform="translate(0)"/>
    <path class="cls-14" d="M1.3,46.1C21.1,26.5,67,16.6,67,16.6L174.1,0,174,1.7,67,18.3S21.1,28.1,1.3,47.8A4.38,4.38,0,0,0,0,51V49.3A5,5,0,0,1,1.3,46.1Z" transform="translate(0)"/>
  </g>
  <g id="Stick">
    <g id="Left_Stick" data-name="Left Stick">
      <g class="cls-15">
        <path d="M36.5,470A36.2,36.2,0,1,1,.3,506.2,36.19,36.19,0,0,1,36.5,470m0-.3A36.5,36.5,0,1,0,73,506.2a36.51,36.51,0,0,0-36.5-36.5Z" transform="translate(0)"/>
      </g>
      <circle class="cls-9" cx="36.5" cy="506.2" r="36.2" transform="translate(-470.63 525.83) rotate(-88.09)"/>
      <g class="cls-16">
        <path d="M36.5,495.4a10.7,10.7,0,1,1-10.7,10.7,10.71,10.71,0,0,1,10.7-10.7m0,18.2a7.5,7.5,0,1,0-7.5-7.5,7.49,7.49,0,0,0,7.5,7.5m0-18.5a11,11,0,1,0,11,11,11.1,11.1,0,0,0-11-11Zm0,18.2a7.2,7.2,0,1,1,7.2-7.2,7.23,7.23,0,0,1-7.2,7.2Z" transform="translate(0)"/>
        <path d="M36.5,486.4a19.7,19.7,0,1,1-19.7,19.7,19.67,19.67,0,0,1,19.7-19.7m0,36.4a16.6,16.6,0,1,0-16.6-16.6,16.56,16.56,0,0,0,16.6,16.6m0-36.7a20,20,0,1,0,20,20,20.06,20.06,0,0,0-20-20Zm0,36.4a16.3,16.3,0,1,1,16.3-16.3,16.3,16.3,0,0,1-16.3,16.3Z" transform="translate(0)"/>
        <path d="M36.5,476.6A29.6,29.6,0,1,1,6.9,506.2a29.66,29.66,0,0,1,29.6-29.6m0,55.9a26.3,26.3,0,1,0-26.3-26.3,26.33,26.33,0,0,0,26.3,26.3m0-56.2a29.9,29.9,0,1,0,29.9,29.9,29.92,29.92,0,0,0-29.9-29.9Zm0,55.9a26,26,0,1,1,26-26,26,26,0,0,1-26,26Z" transform="translate(0)"/>
      </g>
      <g>
        <path class="cls-9" d="M36.5,495.4a10.7,10.7,0,1,0,10.7,10.7A10.71,10.71,0,0,0,36.5,495.4Zm0,18.2a7.5,7.5,0,1,1,7.5-7.5A7.49,7.49,0,0,1,36.5,513.6Z" transform="translate(0)"/>
        <path class="cls-9" d="M36.5,486.4a19.7,19.7,0,1,0,19.7,19.7A19.67,19.67,0,0,0,36.5,486.4Zm0,36.4a16.6,16.6,0,1,1,16.6-16.6A16.56,16.56,0,0,1,36.5,522.8Z" transform="translate(0)"/>
        <path class="cls-9" d="M36.5,476.6a29.6,29.6,0,1,0,29.6,29.6A29.66,29.66,0,0,0,36.5,476.6Zm0,55.9a26.3,26.3,0,1,1,26.3-26.3A26.33,26.33,0,0,1,36.5,532.5Z" transform="translate(0)"/>
      </g>
    </g>
    <circle cx="36.2" cy="506.1" r="2.3"/>
  </g>
</svg>
